<?xml version="1.0" encoding="utf-8"?>
<!-- Generator: Adobe Illustrator 27.9.0, SVG Export Plug-In . SVG Version: 6.00 Build 0)  -->
<svg version="1.1" xmlns="http://www.w3.org/2000/svg" xmlns:xlink="http://www.w3.org/1999/xlink" x="0px" y="0px"
	 viewBox="0 0 500 500" style="enable-background:new 0 0 500 500;" xml:space="preserve">
<style type="text/css">
	.st0{fill:#FFFFFF;}
	.st1{fill:#D8E5D3;}
	.st2{fill:#6E7A2E;}
	.st3{fill:#96AA37;}
	.st4{fill:#565E1F;}
	.st5{opacity:0.4;fill:#878E32;}
	.st6{fill:#B3511A;}
	.st7{fill:#651D13;}
	.st8{fill:#CAD16D;}
	.st9{fill:#B0B254;}
	.st10{fill:#BACCB6;}
	.st11{fill:#3E6654;}
	.st12{fill:none;stroke:#754E34;stroke-width:5.7814;stroke-linecap:round;stroke-miterlimit:10;}
	.st13{fill:#E4AD29;}
	.st14{fill:#C48458;}
	.st15{fill:#896215;}
	.st16{fill:#254737;}
	.st17{fill:#193326;}
	.st18{fill:#08160E;}
	.st19{fill:none;stroke:#42210B;stroke-width:7.352;stroke-linecap:round;stroke-miterlimit:10;}
	.st20{fill:#42210B;}
	.st21{fill:none;stroke:#FFFFFF;stroke-width:3;stroke-linecap:round;stroke-miterlimit:10;}
	.st22{fill:#747F21;}
	.st23{fill:#B78820;}
	.st24{fill:none;stroke:#173324;stroke-width:6;stroke-linecap:round;stroke-miterlimit:10;}
	.st25{fill:#274939;}
	.st26{fill:#AA6F46;}
	.st27{fill:#49311F;}
	.st28{opacity:0.7;fill:#BC4A33;}
	.st29{opacity:0.45;fill:#49311F;}
	.st30{fill:#9E633B;}
	.st31{opacity:0.49;fill:#254737;}
	.st32{fill:#A87B14;}
	.st33{opacity:0.16;fill:#FFFFFF;}
	.st34{fill:#9BA843;}
	.st35{opacity:0.37;fill:#FFF2DD;}
	.st36{opacity:0.37;fill:#651D13;}
	.st37{display:none;}
	.st38{display:inline;fill:none;}
	.st39{display:inline;}
	.st40{font-family:'TitanOne';}
	.st41{font-size:32px;}
	.st42{display:inline;fill:#274939;}
	.st43{display:inline;fill:#FFFFFF;}
	.st44{font-family:'Montserrat-Regular';}
	.st45{font-size:20px;}
</style>
<g id="BACKGROUND">
	<rect class="st0" width="500" height="500"/>
</g>
<g id="OBJECTS">
	<path class="st1" d="M83.88,399.5c0,0-71.3-104.17-45.56-193.31c25.73-89.14,61.95-75.56,104.8-67.47
		c42.85,8.09,84.75,10.3,146.17-14.48c61.42-24.78,131.11-40.82,169.31,30.16s22.36,226.58-76.21,257.21
		C290.64,431.49,83.88,399.5,83.88,399.5z"/>
	<path class="st0" d="M119.28,217.36h52.2l-7.59-2.49c0,0-0.98-4.84-3.53-4.84c-2.55,0-4.28,2.99-4.28,2.99s0.08-10.05-6.46-10.05
		c-6.53,0-7.96,9.83-7.96,9.83s-1.58-4.92-5.11-4.92c-3.53,0-4.88,6.27-4.88,6.27L119.28,217.36z"/>
	<path class="st0" d="M298.02,202.07h133.54l-19.41-6.38c0,0-2.5-12.39-9.03-12.39c-6.53,0-10.95,7.65-10.95,7.65
		s0.19-25.7-16.52-25.7c-16.72,0-20.37,25.15-20.37,25.15s-4.03-12.58-13.07-12.58c-9.03,0-12.49,16.04-12.49,16.04L298.02,202.07z"
		/>
	<g>
		<path class="st2" d="M65.98,361.24h91.25c6.84,0,11.83-6.47,10.1-13.09L117,156.21c-1.45-5.55-9.33-5.55-10.78,0L55.88,348.16
			C54.15,354.77,59.14,361.24,65.98,361.24z"/>
		<path class="st3" d="M117,156.21c-1.45-5.55-9.33-5.55-10.78,0l-25.16,95.96h0.2c0,4.2,3.41,7.61,7.61,7.61
			c4.2,0,7.61-3.41,7.61-7.61c0,4.2,3.41,7.61,7.61,7.61c4.2,0,7.61-3.41,7.61-7.61c0,4.2,3.41,7.61,7.61,7.61s7.61-3.41,7.61-7.61
			c0,4.2,3.41,7.61,7.61,7.61c4.2,0,7.61-3.41,7.61-7.61l0,0L117,156.21z"/>
		<g>
			<path class="st4" d="M167.33,348.16l-5.6-21.36c-1.18,5.71-6.23,10.01-12.3,10.01c-6.93,0-12.55-5.62-12.55-12.55
				c0,6.93-5.62,12.55-12.55,12.55c-6.93,0-12.55-5.62-12.55-12.55c0,6.93-5.62,12.55-12.55,12.55c-6.93,0-12.55-5.62-12.55-12.55
				c0,6.93-5.62,12.55-12.55,12.55c-6.34,0-11.56-4.7-12.42-10.8l-5.81,22.15c-1.74,6.62,3.26,13.09,10.1,13.09h91.25
				C164.07,361.24,169.06,354.77,167.33,348.16z"/>
		</g>
		<path class="st5" d="M108.56,152.94c-1.08,0.69-1.95,1.77-2.35,3.27L55.88,348.16c-1.74,6.62,3.26,13.09,10.1,13.09h33.14
			L108.56,152.94z"/>
		<rect x="107.29" y="361.35" class="st6" width="8.64" height="66.12"/>
		<rect x="107.29" y="361.35" class="st7" width="8.64" height="25.95"/>
		<path class="st2" d="M139.75,428.36c0.11-0.58,0.18-1.18,0.18-1.8c0-5.17-4.19-9.35-9.35-9.35c-2.17,0-4.16,0.75-5.75,1.98
			c-1.97-5.25-7.02-9-12.96-9c-6.87,0-12.55,5-13.65,11.56c-1.21-0.78-2.64-1.24-4.19-1.24c-4.26,0-7.71,3.45-7.71,7.71
			c0,0.05,0.01,0.1,0.01,0.15H139.75z"/>
	</g>
	<g>
		<path class="st2" d="M345.44,353.67h101.54c7.61,0,13.17-7.2,11.24-14.57l-56.01-213.6c-1.62-6.17-10.38-6.17-12,0l-56.01,213.6
			C332.27,346.47,337.83,353.67,345.44,353.67z"/>
		<path class="st3" d="M402.21,125.51c-1.62-6.17-10.38-6.17-12,0l-28,106.79h0.22c0,4.68,3.79,8.47,8.47,8.47s8.47-3.79,8.47-8.47
			c0,4.68,3.79,8.47,8.47,8.47s8.47-3.79,8.47-8.47c0,4.68,3.79,8.47,8.47,8.47c4.68,0,8.47-3.79,8.47-8.47
			c0,4.68,3.79,8.47,8.47,8.47s8.47-3.79,8.47-8.47l0,0L402.21,125.51z"/>
		<g>
			<path class="st4" d="M458.22,339.11l-6.23-23.77c-1.31,6.36-6.94,11.14-13.68,11.14c-7.72,0-13.97-6.25-13.97-13.97
				c0,7.72-6.25,13.97-13.97,13.97c-7.72,0-13.97-6.25-13.97-13.97c0,7.72-6.25,13.97-13.97,13.97s-13.97-6.25-13.97-13.97
				c0,7.72-6.25,13.97-13.97,13.97c-7.05,0-12.87-5.23-13.82-12.02l-6.46,24.65c-1.93,7.36,3.62,14.57,11.24,14.57h101.54
				C454.59,353.67,460.15,346.47,458.22,339.11z"/>
		</g>
		<path class="st5" d="M392.82,121.87c-1.2,0.77-2.17,1.97-2.61,3.64l-56.01,213.6c-1.93,7.36,3.62,14.57,11.24,14.57h36.88
			L392.82,121.87z"/>
		<rect x="391.41" y="353.79" class="st6" width="9.61" height="73.58"/>
		<rect x="391.41" y="353.79" class="st7" width="9.61" height="28.88"/>
		<path class="st2" d="M427.53,428.36c0.13-0.65,0.2-1.32,0.2-2c0-5.75-4.66-10.41-10.41-10.41c-2.41,0-4.63,0.83-6.4,2.21
			c-2.19-5.85-7.81-10.02-14.42-10.02c-7.64,0-13.97,5.57-15.19,12.86c-1.34-0.87-2.94-1.39-4.66-1.39c-4.74,0-8.58,3.84-8.58,8.58
			c0,0.06,0.01,0.11,0.01,0.17H427.53z"/>
	</g>
	<g>
		<path class="st8" d="M358.11,442.22H155.35c0,0-47.64-107.95-17.87-127.88c29.76-19.93,80.09,89.1,80.09,89.1
			s-17.06-46.87-8.76-52.8c8.3-5.93,67.86,68.24,67.86,68.24s-31.46-77.91-1.09-89.63C305.96,317.53,355.43,434.14,358.11,442.22z"
			/>
		<path class="st9" d="M479.02,442.81c0,0-10.9-92.42-65.39-106.37c-54.5-13.95-11.89,60.6-11.89,60.6s-63.25-45.42-88.23-41.93
			c-44.04,6.15,26.14,87.11,26.14,87.11L479.02,442.81z"/>
		<path class="st9" d="M173.04,442.22c0,0-8.16-69.18-48.95-79.63c-40.79-10.44-8.9,45.37-8.9,45.37s-47.35-34-66.05-31.39
			c-32.97,4.61,19.9,65.65,19.9,65.65H173.04z"/>
	</g>
	<g>
		<path class="st10" d="M443.39,464.7c0,2.69-81.18,4.86-181.32,4.86s-181.32-2.18-181.32-4.86c0-2.69,81.18-4.86,181.32-4.86
			S443.39,462.02,443.39,464.7z"/>
		<path class="st11" d="M210.26,400.42l-3.35-20.85c-0.22-1.37,0.71-2.66,2.08-2.88l0,0c1.37-0.22,2.66,0.71,2.88,2.08l3.35,20.85
			c0.22,1.37-0.71,2.66-2.08,2.88l0,0C211.77,402.72,210.48,401.79,210.26,400.42z"/>
		<line class="st12" x1="215.5" y1="388.79" x2="247.49" y2="398.23"/>
		<rect x="332.52" y="304.16" class="st13" width="10.24" height="6.39"/>
		<g>
			<path class="st13" d="M220.37,372.57c0,0-7.46,0.25-10.71,3.66c4.79,25.11,9.01,36.64,10.89,36.9
				c1.88,0.26,6.23-31.64,6.23-31.64L220.37,372.57z"/>
			<path class="st14" d="M226.07,366.3l-5.71,6.27c0,0,2.21,8.52,6.41,8.92c8.83-8.34,8.83-8.34,8.83-8.34L226.07,366.3z"/>
			<path class="st15" d="M220.54,413.13c1.14,0.16,3.2-11.55,4.63-20.77c-2.38-2.3-6.45-4.6-13.05-4.08
				C215.86,405.05,219,412.91,220.54,413.13z"/>
			<path class="st0" d="M225.72,388.79c0,0-5.35-3.46-8.75-4.42c-2.79-1.14,3.06-3.89,9.29,0.76
				C225.72,388.79,225.72,388.79,225.72,388.79z"/>
			<path class="st16" d="M238.61,278.81c0,0,49.04,13.43,62.55,23.49c13.51,10.05-43.35,60.63-67.54,75.39
				c-9.42-5.34-10.99-9.74-10.99-9.74L259.66,318l-46.77-2.51l-4.08-47.12L238.61,278.81z"/>
			<path class="st17" d="M289.29,310.53c0,4.92,2.44,9.27,6.18,11.92c7.01-9.27,10.11-16.87,5.69-20.16
				c-1.54-1.14-3.54-2.33-5.88-3.54C291.66,301.41,289.29,305.69,289.29,310.53z"/>
			<g>
				<path class="st18" d="M259.66,318c0.34-1.1,0.84-2.09,1.38-3.04c0.55-0.95,1.15-1.85,1.81-2.72c0.66-0.86,1.37-1.69,2.13-2.47
					c0.78-0.77,1.59-1.52,2.57-2.14c-0.34,1.11-0.84,2.09-1.38,3.04c-0.55,0.95-1.15,1.85-1.81,2.71c-0.66,0.86-1.37,1.69-2.14,2.47
					C261.44,316.63,260.63,317.38,259.66,318z"/>
			</g>
		</g>
		<g>
			<g>
				<g>
					<g>
						<path class="st0" d="M309.9,399.5c9.51-0.21,19.01-0.3,28.52-0.38l28.52-0.12l28.52,0.11l14.26,0.14l14.26,0.25l-14.26,0.25
							l-14.26,0.14L366.93,400l-28.52-0.12C328.91,399.8,319.4,399.7,309.9,399.5z"/>
					</g>
					<g>
						<path class="st0" d="M366.93,456.53c-0.21-9.51-0.3-19.01-0.38-28.52l-0.12-28.52l0.11-28.52l0.14-14.26l0.25-14.26
							l0.25,14.26l0.14,14.26l0.11,28.52l-0.12,28.52C367.23,437.52,367.14,447.03,366.93,456.53z"/>
					</g>
				</g>
				<g>
					<g>
						<path class="st0" d="M326.6,439.83c6.58-6.87,13.23-13.66,19.89-20.44l20.08-20.25l20.25-20.08l10.18-9.98l10.26-9.91
							l-9.91,10.26l-9.98,10.18l-20.08,20.25l-20.25,20.08C340.26,426.6,333.47,433.25,326.6,439.83z"/>
					</g>
					<g>
						<path class="st0" d="M407.26,439.83c-6.87-6.58-13.66-13.23-20.44-19.89l-20.25-20.08l-20.08-20.25l-9.98-10.18l-9.91-10.26
							l10.26,9.91l10.18,9.98l20.25,20.08l20.08,20.25C394.03,426.17,400.68,432.96,407.26,439.83z"/>
					</g>
				</g>
			</g>
			<g>
				<g>
					<g>
						<path class="st0" d="M314.02,420.8c8.74-3.74,17.52-7.38,26.31-11.01l26.41-10.76l26.5-10.54l13.28-5.2l13.32-5.1l-13.14,5.55
							l-13.17,5.45l-26.41,10.76l-26.5,10.54C331.77,413.98,322.92,417.44,314.02,420.8z"/>
					</g>
					<g>
						<path class="st0" d="M388.23,452.4c-3.74-8.74-7.38-17.52-11.01-26.31l-10.76-26.41l-10.54-26.5l-5.2-13.28l-5.1-13.32
							l5.55,13.14l5.45,13.17l10.76,26.41l10.54,26.5C381.41,434.66,384.87,443.51,388.23,452.4z"/>
					</g>
				</g>
				<g>
					<g>
						<path class="st0" d="M344.58,451.97c3.54-8.83,7.17-17.61,10.82-26.39l11.07-26.28l11.28-26.19l5.72-13.06l5.81-13.02
							l-5.36,13.21l-5.46,13.17l-11.07,26.28l-11.28,26.19C352.31,434.6,348.49,443.31,344.58,451.97z"/>
					</g>
					<g>
						<path class="st0" d="M419.4,421.85c-8.83-3.54-17.61-7.17-26.39-10.82l-26.28-11.07l-26.19-11.28l-13.06-5.72l-13.02-5.81
							l13.21,5.36l13.17,5.46l26.28,11.07l26.19,11.28C402.03,414.12,410.74,417.93,419.4,421.85z"/>
					</g>
				</g>
			</g>
		</g>
		<g>
			<g>
				<g>
					<g>
						<path class="st0" d="M88.54,399.5c9.51-0.21,19.01-0.3,28.52-0.38l28.52-0.12l28.52,0.11l14.26,0.14l14.26,0.25l-14.26,0.25
							l-14.26,0.14L145.57,400l-28.52-0.12C107.55,399.8,98.05,399.7,88.54,399.5z"/>
					</g>
					<g>
						<path class="st0" d="M145.57,456.53c-0.21-9.51-0.3-19.01-0.38-28.52l-0.12-28.52l0.11-28.52l0.14-14.26l0.25-14.26
							l0.25,14.26l0.14,14.26l0.11,28.52l-0.12,28.52C145.88,437.52,145.78,447.03,145.57,456.53z"/>
					</g>
				</g>
				<g>
					<g>
						<path class="st0" d="M105.24,439.83c6.58-6.87,13.23-13.66,19.89-20.44l20.08-20.25l20.25-20.08l10.18-9.98l10.26-9.91
							l-9.91,10.26l-9.98,10.18l-20.08,20.25l-20.25,20.08C118.9,426.6,112.11,433.25,105.24,439.83z"/>
					</g>
					<g>
						<path class="st0" d="M185.9,439.83c-6.87-6.58-13.66-13.23-20.44-19.89l-20.25-20.08l-20.08-20.25l-9.98-10.18l-9.91-10.26
							l10.26,9.91l10.18,9.98l20.25,20.08l20.08,20.25C172.67,426.17,179.33,432.96,185.9,439.83z"/>
					</g>
				</g>
			</g>
			<g>
				<g>
					<g>
						<path class="st0" d="M92.67,420.8c8.74-3.74,17.52-7.38,26.31-11.01l26.41-10.76l26.5-10.54l13.28-5.2l13.32-5.1l-13.14,5.55
							l-13.17,5.45l-26.41,10.76l-26.5,10.54C110.42,413.98,101.56,417.44,92.67,420.8z"/>
					</g>
					<g>
						<path class="st0" d="M166.87,452.4c-3.74-8.74-7.38-17.52-11.01-26.31l-10.76-26.41l-10.54-26.5l-5.2-13.28l-5.1-13.32
							l5.55,13.14l5.45,13.17l10.76,26.41l10.54,26.5C160.05,434.66,163.51,443.51,166.87,452.4z"/>
					</g>
				</g>
				<g>
					<g>
						<path class="st0" d="M123.22,451.97c3.54-8.83,7.17-17.61,10.82-26.39l11.07-26.28l11.28-26.19l5.72-13.06l5.81-13.02
							l-5.36,13.21l-5.46,13.17l-11.07,26.28l-11.28,26.19C130.95,434.6,127.14,443.31,123.22,451.97z"/>
					</g>
					<g>
						<path class="st0" d="M198.05,421.85c-8.83-3.54-17.61-7.17-26.39-10.82l-26.28-11.07l-26.19-11.28l-13.06-5.72l-13.02-5.81
							l13.21,5.36l13.17,5.46l26.28,11.07l26.19,11.28C180.67,414.12,189.38,417.93,198.05,421.85z"/>
					</g>
				</g>
			</g>
		</g>
		<line class="st19" x1="191.72" y1="299.99" x2="247.49" y2="398.23"/>
		<path class="st11" d="M145.38,332.31c-37.11,0-67.19,30.08-67.19,67.19s30.08,67.19,67.19,67.19s67.19-30.08,67.19-67.19
			S182.49,332.31,145.38,332.31z M145.38,456.53c-31.5,0-57.03-25.53-57.03-57.03c0-31.5,25.53-57.03,57.03-57.03
			s57.03,25.53,57.03,57.03C202.41,431,176.88,456.53,145.38,456.53z"/>
		<path class="st16" d="M89.46,410.72c-0.72-3.63-1.11-7.38-1.11-11.22c0-28.7,21.2-52.44,48.79-56.43
			c1.47-8.43-2.24-9.89-2.33-9.92c-32.08,5.07-56.62,32.85-56.62,66.36c0,4.76,0.5,9.4,1.44,13.88
			C83.98,413.47,87.16,412.3,89.46,410.72z"/>
		<path class="st0" d="M145.38,338c-33.96,0-61.5,27.53-61.5,61.5c0,33.96,27.53,61.5,61.5,61.5c33.96,0,61.5-27.53,61.5-61.5
			C206.88,365.53,179.34,338,145.38,338z M145.38,456.53c-31.5,0-57.03-25.53-57.03-57.03c0-31.5,25.53-57.03,57.03-57.03
			s57.03,25.53,57.03,57.03C202.41,431,176.88,456.53,145.38,456.53z"/>
		
			<ellipse transform="matrix(0.2071 -0.9783 0.9783 0.2071 -275.5643 458.9973)" class="st13" cx="145.38" cy="399.5" rx="13.99" ry="13.99"/>
		<path class="st11" d="M154.54,399.3c0,5.06-4.1,9.16-9.16,9.16c-5.06,0-9.16-4.1-9.16-9.16c0-5.06,4.1-9.16,9.16-9.16
			C150.44,390.14,154.54,394.25,154.54,399.3z"/>
		<line class="st19" x1="358.11" y1="400.11" x2="334.76" y2="330.08"/>
		<line class="st19" x1="321.67" y1="276.64" x2="339.64" y2="329.47"/>
		<path class="st11" d="M366.64,332.31c-37.11,0-67.19,30.08-67.19,67.19s30.08,67.19,67.19,67.19c37.11,0,67.19-30.08,67.19-67.19
			S403.74,332.31,366.64,332.31z M366.64,456.53c-31.5,0-57.03-25.53-57.03-57.03c0-31.5,25.53-57.03,57.03-57.03
			c31.5,0,57.03,25.53,57.03,57.03C423.67,431,398.13,456.53,366.64,456.53z"/>
		<path class="st16" d="M385.61,335.04c-0.61-0.09-2.44,0.08-3.21,5c1.68,1.38,3.65,3.7,5.78,6.65
			c20.81,8.5,35.49,28.94,35.49,52.81c0,2.67-0.2,5.29-0.55,7.87l3.69,4.87c0,0,0.01,3.13,5.31,2.28c1.1-4.83,1.71-9.85,1.71-15.02
			C433.83,368.98,413.47,343.23,385.61,335.04z"/>
		<path class="st0" d="M366.64,338c-33.96,0-61.5,27.53-61.5,61.5c0,33.96,27.53,61.5,61.5,61.5c33.96,0,61.5-27.53,61.5-61.5
			C428.13,365.53,400.6,338,366.64,338z M366.64,456.53c-31.5,0-57.03-25.53-57.03-57.03c0-31.5,25.53-57.03,57.03-57.03
			c31.5,0,57.03,25.53,57.03,57.03C423.67,431,398.13,456.53,366.64,456.53z"/>
		<path class="st13" d="M380.62,399.5c0,7.72-6.26,13.99-13.99,13.99c-7.72,0-13.99-6.26-13.99-13.99c0-7.72,6.26-13.99,13.99-13.99
			C374.36,385.51,380.62,391.77,380.62,399.5z"/>
		<path class="st11" d="M375.79,399.3c0,5.06-4.1,9.16-9.16,9.16c-5.06,0-9.16-4.1-9.16-9.16c0-5.06,4.1-9.16,9.16-9.16
			C371.69,390.14,375.79,394.25,375.79,399.3z"/>
		<line class="st19" x1="366.64" y1="399.5" x2="343.29" y2="329.47"/>
		<polyline class="st19" points="143.31,401.29 191.72,299.99 329.93,300.92 		"/>
		<path class="st20" d="M241.5,404.97h-98.19c-2.03,0-3.68-1.65-3.68-3.68c0-2.03,1.65-3.68,3.68-3.68h95.34l93.63-85.23
			c1.5-1.37,3.83-1.26,5.19,0.24c1.37,1.5,1.26,3.83-0.24,5.19L241.5,404.97z"/>
		<line class="st21" x1="330.79" y1="295.84" x2="340.06" y2="323.08"/>
		<path class="st22" d="M200.74,306.62H182.7c-3.64,0-6.63-2.98-6.63-6.63l0,0c0-3.64,2.98-6.63,6.63-6.63h18.05
			c3.64,0,6.63,2.98,6.63,6.63l0,0C207.37,303.64,204.39,306.62,200.74,306.62z"/>
		<g>
			
				<ellipse transform="matrix(0.7899 -0.6132 0.6132 0.7899 -191.8664 235.4753)" class="st23" cx="247.71" cy="397.74" rx="19.88" ry="19.88"/>
			<path class="st15" d="M261.4,397.74c0,7.56-6.13,13.69-13.69,13.69s-13.69-6.13-13.69-13.69c0-7.56,6.13-13.69,13.69-13.69
				S261.4,390.18,261.4,397.74z"/>
		</g>
		<path class="st24" d="M320.19,274.09h28.72c4.33,0,7.85,3.51,7.85,7.85l0,0c0,4.33-3.51,7.85-7.85,7.85h-9.5"/>
		<line class="st21" x1="181.65" y1="314.96" x2="150.26" y2="380.65"/>
		<path class="st16" d="M350.6,296.38c-0.04,0-0.09-0.01-0.13-0.01c-6.11,0-11.06,4.95-11.06,11.06s4.95,11.06,11.06,11.06
			c0.04,0,0.09-0.01,0.13-0.01V296.38z"/>
		<path class="st13" d="M352.41,320.39L352.41,320.39c-0.99,0-1.81-0.81-1.81-1.81v-22.37c0-0.99,0.81-1.81,1.81-1.81l0,0
			c0.99,0,1.81,0.81,1.81,1.81v22.37C354.21,319.58,353.4,320.39,352.41,320.39z"/>
		<polygon class="st13" points="313.24,329.73 317.39,335.89 293.2,357.91 288.44,352.3 		"/>
		<line class="st12" x1="297.19" y1="427.18" x2="247.49" y2="398.23"/>
		<g>
			<path class="st13" d="M287.65,417.89c0,0-1.88,7.23,0.48,11.31c25.44,2.51,37.69,1.73,38.48,0c0.79-1.73-28.59-14.93-28.59-14.93
				L287.65,417.89z"/>
			<path class="st14" d="M283.26,410.65l4.4,7.25c0,0,8.8,0.29,10.37-3.62c-5.5-10.83-5.5-10.83-5.5-10.83L283.26,410.65z"/>
			<path class="st15" d="M326.61,429.2c0.48-1.05-10.18-6.34-18.61-10.32c-2.88,1.63-6.24,4.89-7.61,11.36
				C317.53,431.41,325.96,430.63,326.61,429.2z"/>
			<path class="st0" d="M304.73,417.35c0,0-4.83,4.16-6.71,7.14c-1.88,2.36-2.87-4.03,3.36-8.69
				C304.73,417.35,304.73,417.35,304.73,417.35z"/>
			<path class="st11" d="M191.01,270.88c0,0-6.39,21.68,12.77,40.84c19.16,19.16,44.6,56.86,44.6,56.86l31.54,44.92
				c0,0,14.26-3.46,16.81-9.74c-25.72-62.2-28.8-64.71-35.11-74.14c-6.32-9.42-24.15-47.12-24.15-47.12l1.92-6.18L191.01,270.88z"/>
			<path class="st14" d="M194.04,261.46c0,0-2.62,4.71-3.04,9.42c25.34,5.65,33.82,6.27,45.76,5.49
				C230.38,269.31,194.04,261.46,194.04,261.46z"/>
			<path class="st3" d="M246.08,189.83c0,0-12.14-5.85-20.31-3.34c-8.17,2.51-10.68,7.96-10.68,7.96s-7.54,0.42-17.59,10.26
				c-10.05,9.84-14.87,22.2-5.65,31.41c9.21,9.21,14.66,9.01,14.66,9.01L246.08,189.83z"/>
			<path class="st22" d="M237.47,186.81c-3.76-0.92-8.11-1.43-11.7-0.33c-8.17,2.51-10.68,7.96-10.68,7.96s0,0,8.8,0.63
				C228.7,190.25,237.46,186.82,237.47,186.81z"/>
			<path class="st22" d="M222.63,214.34c0,0-8.65-8.49-22.26-12.25c-0.93,0.79-1.88,1.66-2.87,2.62c-2.21,2.16-4.17,4.45-5.78,6.8
				c7.18,1.7,20.22,6.08,23.37,15.82c0.59,1.81,1.15,2.91,1.68,3.45l3.89-5.43C221.9,220.47,222.63,214.34,222.63,214.34z"/>
			<path class="st22" d="M198.33,229.93c-3.25-2.26-7.97-4.38-11.38-5.77c-0.17,4.24,1.27,8.34,4.89,11.96
				c9.21,9.21,14.66,9.01,14.66,9.01l11.52-16.09C211.38,230.66,201.87,232.38,198.33,229.93z"/>
			<path class="st13" d="M257.78,183.48c0,0-45.41,18.08-66.77,77.98c22.62,16.54,48.38,14.87,48.38,14.87s14.97-44.27,31.99-60.14
				C271.42,201.35,257.78,183.48,257.78,183.48z"/>
			<path class="st3" d="M257.35,202.97c0,0-9.84,10.52-27.31-0.89c-10.56,2.21-12.48,12.83-12.48,12.83s27.34,9.27,41.85-7.69
				C260.53,203.03,257.35,202.97,257.35,202.97z"/>
			<path class="st25" d="M250.9,171.82c0,0-3.14,7.96-4.08,12.36c-0.94,4.4,16.02-4.45,16.02-4.45S252.47,171.88,250.9,171.82z"/>
			<path class="st26" d="M290.77,161.73c0,0,4.9,5.8,5.84,7.84c0.94,2.04-3.93,1.41-3.93,1.41L290.77,161.73z"/>
			<path class="st27" d="M250.9,171.82c0,0,9.15,9.61,14,10.25c4.85,0.43,7.57-14.23,7.57-14.23l-1.88-18.43
				c0,0-15.93,5.11-18.22,12.77C250.08,169.85,250.9,171.82,250.9,171.82z"/>
			<path class="st14" d="M286.29,150.46c0,0,11.31,27.22,10.68,31.83c-0.63,4.61-16.54,0.84-16.54,0.84l-7.54,13.19l-10.05-7.75
				l4.82-15.18l1.68-8.48l-0.21-15.29C269.12,149.63,282.94,148.79,286.29,150.46z"/>
			<path class="st11" d="M286.29,150.46c0,0-4.4-11.31-14.45-10.89c-10.05,0.42-21.36,9.01-23.46,20.52
				c-0.21,6.28,2.51,11.73,2.51,11.73S262.63,147.53,286.29,150.46z"/>
			<path class="st27" d="M285.3,156.85c0,0-4.4-0.47-7.23,0.94c-2.83,1.41-1.41-4.24,4.56-4.71
				C286.71,153.08,285.3,156.85,285.3,156.85z"/>
			<g>
				<path class="st27" d="M293.31,172.74c-0.94,0.14-1.82,0-2.67-0.2c-0.85-0.23-1.68-0.53-2.43-1.12c0.95-0.15,1.82-0.01,2.67,0.2
					C291.72,171.86,292.55,172.16,293.31,172.74z"/>
			</g>
			<path class="st28" d="M286.29,167.66c0,1.06-1.98,1.91-4.42,1.91c-2.44,0-4.42-0.86-4.42-1.91c0-1.06,1.98-1.91,4.42-1.91
				C284.31,165.75,286.29,166.61,286.29,167.66z"/>
			<path class="st29" d="M278.51,186.49l1.92-3.35c0,0-3.61-1.62-5.03-2.25C274.34,180.41,277.08,184.44,278.51,186.49z"/>
			<path class="st0" d="M263.93,179.72c0,0,5.81,0.22,8.17-2.76c2.36-2.98-0.79-12.86-3.77-15.22c-2.98-2.37-10.2,0.74-10.54,5.21
				C257.45,171.42,263.93,179.72,263.93,179.72z"/>
			<path class="st13" d="M263.05,163.16c0,0-7-15.96-0.7-20.95c2.05-0.94,2.05-0.94,2.05-0.94s-3.76-2.7-8,0
				c-4.24,2.7-0.7,17.07,2.4,23.79C262.37,165.33,263.05,163.16,263.05,163.16z"/>
			<path class="st13" d="M263.05,163.16c1.75-0.29,3.45,0.74,4.06,2.4c1.3,3.55,3.29,9.82,1.85,11.7c-2.04,2.67-7.38,4.24-10.05-1.1
				c-2.67-5.34-1.73-10.99,1.41-12.25C261.3,163.53,262.23,163.3,263.05,163.16z"/>
			<path class="st14" d="M250.76,191.88c0,0,2.03-10.68,13.02-8.64c10.99,2.04,34.55,34.4,41.78,40.52
				c7.23,6.13,36.75,31.26,42.25,34.08c5.5,2.83,6.75,9.27,5.34,15.55c-1.41,6.28-7.85,5.45-13.82,4.06
				c-5.97-1.39-4.4-12.54-4.4-12.54s-29.84-14.92-36.91-20.58C290.95,238.68,247.68,210.42,250.76,191.88z"/>
			<path class="st13" d="M263.78,183.24c-10.99-2.04-13.02,8.64-13.02,8.64c-1.88,11.34,13.57,26.31,27.47,37.52
				c2.69-11.22,9.64-17.57,13.91-20.53C282.49,197.7,270.67,184.52,263.78,183.24z"/>
			<path class="st0" d="M278.23,229.4c2.69-11.22,9.64-17.57,13.91-20.53c-1.67-1.93-3.4-3.93-5.17-5.91
				c-4.35,2.79-11.34,8.98-14.96,21.23C274.08,225.99,276.17,227.74,278.23,229.4z"/>
			<path class="st30" d="M306.67,240.9c0-5.63-4.56-10.19-10.19-10.19c-4.03,0-7.5,2.34-9.15,5.73c4.95,3.69,8.94,6.49,10.69,7.89
				c1.26,1.01,3.25,2.31,5.66,3.77C305.53,246.27,306.67,243.72,306.67,240.9z"/>
			<path class="st0" d="M257.88,225.02c-10.64,0-19.27,8.63-19.27,19.27c0,6.11,2.85,11.54,7.28,15.07
				c4.34-10.37,10.5-23.51,17.43-33.54C261.6,225.3,259.77,225.02,257.88,225.02z"/>
			<path class="st8" d="M244.17,244.86c0,3.77,1.42,7.2,3.73,9.83c3.49-7.96,7.85-16.92,12.68-24.68c-0.49-0.05-0.98-0.08-1.48-0.08
				C250.86,229.93,244.17,236.61,244.17,244.86z"/>
			<path class="st0" d="M191.01,261.46c22.62,16.54,48.38,14.87,48.38,14.87s0.67-1.97,1.88-5.23
				c-27.53-3.49-41.81-12.57-47.39-17.08C192.88,256.43,191.92,258.9,191.01,261.46z"/>
			<path class="st16" d="M205.35,297.79c-7.23-6.28-5.65-21.38-5.65-21.38l-9.55-1.39c-0.55,6.18-0.06,17.08,7.44,28.19
				C199.49,301.88,202,300.13,205.35,297.79z"/>
			<path class="st31" d="M261.93,330.1c-2.81,2.64-4.58,6.38-4.58,10.54c0,7.99,6.48,14.47,14.47,14.47c1.3,0,2.56-0.19,3.76-0.51
				C268.36,339.04,265.64,335.6,261.93,330.1z"/>
			<path class="st0" d="M285.53,161.48c0,0.91-0.82,1.64-1.83,1.64c-1.01,0-1.83-0.73-1.83-1.64c0-0.91,0.82-1.64,1.83-1.64
				C284.71,159.83,285.53,160.57,285.53,161.48z"/>
			<path class="st27" d="M285.53,161.48c0,0.91-0.71,1.64-1.58,1.64c-0.87,0-1.58-0.73-1.58-1.64c0-0.91,0.71-1.64,1.58-1.64
				C284.82,159.83,285.53,160.57,285.53,161.48z"/>
			<g>
				<path class="st27" d="M285.19,160.46c-0.83-0.1-1.53-0.23-2.02-0.06c-0.24,0.08-0.47,0.21-0.7,0.46
					c-0.12,0.11-0.22,0.26-0.35,0.4c-0.11,0.15-0.22,0.31-0.38,0.47c-0.05-0.21-0.05-0.42-0.06-0.63c0.04-0.21,0.06-0.43,0.16-0.63
					c0.15-0.42,0.56-0.81,1.04-0.97c0.49-0.15,0.99-0.07,1.38,0.12C284.65,159.81,284.98,160.08,285.19,160.46z"/>
			</g>
			<g>
				<path class="st22" d="M217.57,214.91c0.06-1.6,0.47-3.19,1.14-4.67c0.66-1.49,1.59-2.86,2.74-4.03
					c1.16-1.15,2.48-2.17,3.97-2.82c0.71-0.39,1.51-0.6,2.27-0.86c0.78-0.2,1.58-0.33,2.36-0.45c-1.49,0.58-2.95,1.15-4.28,1.96
					c-1.36,0.75-2.56,1.74-3.63,2.83c-1.09,1.08-2,2.34-2.76,3.7C218.62,211.92,218,213.37,217.57,214.91z"/>
			</g>
			<g>
				<path class="st32" d="M267.59,220.2c-2.37-1.63-4.54-3.52-6.57-5.55c-2.04-2.02-3.92-4.21-5.63-6.55
					c-1.67-2.36-3.2-4.86-4.2-7.63c-0.51-1.37-0.88-2.81-1.02-4.28c-0.12-1.47,0-2.99,0.58-4.31c-0.34,2.87,0.63,5.54,1.8,8.02
					c0.62,1.24,1.27,2.46,2.03,3.63c0.74,1.18,1.51,2.35,2.34,3.47c1.62,2.28,3.39,4.47,5.18,6.66L267.59,220.2z"/>
			</g>
			<path class="st14" d="M282.51,144.49c-2.08,0.33-3.41,1.47-4.34,3.82c1.51-0.52,4.59-0.43,6.9-0.27
				C284.46,146.98,283.61,145.72,282.51,144.49z"/>
			<path class="st33" d="M296.61,169.57c-0.94-2.04-5.84-7.84-5.84-7.84l0,0c-2.35-6.16-4.47-11.27-4.47-11.27
				s-4.4-11.31-14.45-10.89c-0.65,0.03-1.31,0.09-1.97,0.19c-0.07,2.93-0.44,38.84,20.1,44.79c3.52,0.18,6.73-0.24,7-2.25
				c0.22-1.63-1.06-6.12-2.8-11.22C295.51,171.08,297.2,170.85,296.61,169.57z"/>
			<g>
				<path class="st16" d="M207.52,275.01c-0.05,1.66,0.23,3.3,0.61,4.9c0.38,1.6,0.87,3.18,1.49,4.7c1.2,3.07,2.78,5.97,4.52,8.75
					c1.71,2.81,3.72,5.42,5.78,7.99l6.26,7.71c4.19,5.13,8.31,10.32,12.42,15.52c4.09,5.22,8.18,10.44,11.98,15.91
					c1.88,2.73,3.73,5.59,5.21,8.59c1.51,2.93,3.06,5.86,4.61,8.78c3.1,5.85,6.27,11.67,9.33,17.54l9.27,17.58
					c3.04,5.89,6.13,11.74,9.13,17.66c-3.37-5.71-6.62-11.48-9.93-17.22l-9.74-17.33c-3.26-5.77-6.41-11.6-9.58-17.41
					c-1.58-2.91-3.16-5.82-4.7-8.77c-1.48-2.93-3.27-5.63-5.16-8.34c-7.55-10.81-15.91-21.11-24.03-31.57l-6.07-7.87
					c-2-2.65-3.96-5.37-5.62-8.27c-1.67-2.89-3.11-5.92-4.19-9.07C208.05,281.66,207.27,278.33,207.52,275.01z"/>
			</g>
			<g>
				<path class="st16" d="M237.47,282.5c-2.59,0.21-5.03,0.04-7.46-0.11l-3.64-0.26l-3.73-0.23c1.11-0.7,2.39-1.05,3.66-1.27
					c1.28-0.21,2.56-0.23,3.84-0.15c1.27,0.08,2.53,0.29,3.76,0.61C235.12,281.44,236.33,281.85,237.47,282.5z"/>
			</g>
			<g>
				<path class="st32" d="M227.98,223.13c-0.53,3.9-0.82,7.78-0.88,11.66c-0.02,3.87,0.17,7.74,0.85,11.51
					c0.63,3.78,1.77,7.46,3.49,10.86c0.88,1.69,1.93,3.3,3.11,4.82c1.19,1.52,2.59,2.87,4.05,4.19c-1.71-0.98-3.31-2.17-4.74-3.56
					c-1.4-1.42-2.67-2.99-3.71-4.72c-1.05-1.72-1.87-3.56-2.57-5.45c-0.66-1.9-1.14-3.85-1.5-5.82c-0.67-3.95-0.78-7.96-0.45-11.91
					C225.97,230.77,226.69,226.86,227.98,223.13z"/>
			</g>
		</g>
		<path class="st11" d="M314.27,434.01h-21.11c-1.39,0-2.52-1.13-2.52-2.52l0,0c0-1.39,1.13-2.52,2.52-2.52h21.11
			c1.39,0,2.52,1.13,2.52,2.52l0,0C316.78,432.88,315.66,434.01,314.27,434.01z"/>
	</g>
	<circle class="st9" cx="39.98" cy="363.54" r="8.43"/>
	<circle class="st9" cx="450.91" cy="238.04" r="10.09"/>
	<path class="st34" d="M460.29,266.98c0,2.59-2.1,4.69-4.69,4.69c-2.59,0-4.69-2.1-4.69-4.69c0-2.59,2.1-4.69,4.69-4.69
		C458.19,262.29,460.29,264.39,460.29,266.98z"/>
	<path class="st34" d="M169.22,278.44c0,2.59-2.1,4.69-4.69,4.69c-2.59,0-4.69-2.1-4.69-4.69c0-2.59,2.1-4.69,4.69-4.69
		C167.12,273.75,169.22,275.85,169.22,278.44z"/>
	<g>
		<g>
			<path class="st3" d="M325.39,130.99l32.38,14.84c0,0,7.28-15.24-6.59-20.67C339.06,120.41,333.6,132.31,325.39,130.99z"/>
			<path class="st3" d="M325.39,130.99l32.38,14.84c0,0-6.79,15.46-19.96,8.51C326.3,148.25,331.76,136.34,325.39,130.99z"/>
			<path class="st35" d="M344.09,139.56c-5.06-2.22-10.96,0.43-14.47,2.56c0.67,3.49,1.7,7.06,4.89,9.94
				c5.79-5.87,17.82-7.81,17.82-7.81s-0.32-0.94-5.39-3.38L344.09,139.56z"/>
			<path class="st36" d="M344.1,139.54c-4.99-2.39-6.83-8.58-7.51-12.63c3.08-1.77,6.46-3.32,10.72-2.79
				c-0.66,8.22,5.72,18.59,5.72,18.59s-0.92,0.37-6.08-1.87L344.1,139.54z"/>
			<path class="st7" d="M366.82,154.86c0,0-19.01-12.55-30.95-18.91c-0.39-0.21-0.13-0.8,0.29-0.66
				c10.43,3.6,31.71,17.29,31.71,17.29L366.82,154.86z"/>
			<path class="st7" d="M344.04,140.57c0,0-4.08-0.4-6.71,0.77c-2.63,1.17,6.27-0.69,10.03,0.74
				C351.11,143.53,344.04,140.57,344.04,140.57z"/>
			<path class="st7" d="M352.69,144.41c0,0-4.84-8.22-4.47-13.12c0.37-4.9,1.17,6.58,6.02,13.83
				C352.38,143.86,352.69,144.41,352.69,144.41z"/>
		</g>
	</g>
	<g>
		<g>
			<path class="st3" d="M69.13,224.61l-23.35,13.97c0,0,6.44,11.17,15.86,4.79C69.88,237.8,64.74,229.21,69.13,224.61z"/>
			<path class="st3" d="M69.13,224.61l-23.35,13.97c0,0-6.8-10.96,3.28-16.24C57.87,217.71,63.01,226.3,69.13,224.61z"/>
			<path class="st35" d="M55.64,232.68c3.59-2.23,4.47-7.08,4.65-10.22c-2.49-1.09-5.18-1.98-8.37-1.22
				c1.19,6.19-2.79,14.6-2.79,14.6s0.73,0.21,4.46-1.93L55.64,232.68z"/>
			<path class="st36" d="M55.65,232.69c3.66-2.11,8.36-0.59,11.2,0.74c-0.22,2.71-0.7,5.5-2.88,7.95
				c-4.89-3.97-14.18-4.44-14.18-4.44s0.16-0.74,3.81-3.02L55.65,232.69z"/>
			<path class="st7" d="M36.18,240.37c0,0,16.13-6.54,25.3-11.3c0.3-0.16,0.56,0.26,0.29,0.46c-6.78,5.01-24.6,12.48-24.6,12.48
				L36.18,240.37z"/>
			<path class="st7" d="M55.03,232.21c0,0,2.01-2.4,2.42-4.56c0.4-2.16-2.28,4.25-4.81,5.99C50.11,235.38,55.03,232.21,55.03,232.21
				z"/>
			<path class="st7" d="M48.87,235.99c0,0,7.27,0.51,10.19,2.87c2.93,2.35-4.65-2.11-11.31-2.2
				C49.35,236.03,48.87,235.99,48.87,235.99z"/>
		</g>
	</g>
	<g>
		<path class="st2" d="M171.5,160.45L145.7,135.2C145.7,135.2,138.76,156.33,171.5,160.45z"/>
		<path class="st9" d="M171.5,160.45L145.7,135.2C145.7,135.2,166.66,127.81,171.5,160.45z"/>
		<g>
			<path class="st7" d="M171.44,160.52c-3.23-2.56-6.4-5.18-9.53-7.86c-3.11-2.7-6.17-5.47-9.16-8.31
				c-2.98-2.86-6.02-5.68-8.61-8.94c-1.29-1.63-2.52-3.31-3.6-5.11c-1.08-1.78-2.04-3.7-2.51-5.74l0.19-0.07
				c2,3.58,4.75,6.59,7.43,9.64c2.74,3.01,5.38,6.14,8.22,9.1c2.83,2.96,5.75,5.86,8.71,8.7c2.95,2.86,5.94,5.68,9,8.44
				L171.44,160.52z"/>
		</g>
	</g>
</g>
<g id="TEXTS" class="st37">
	<rect x="65.25" y="37.91" class="st38" width="369.55" height="31.05"/>
	<text transform="matrix(1 0 0 1 107.6299 60.6277)" class="st39"><tspan x="0" y="0" class="st11 st40 st41">WORLD </tspan><tspan x="109.53" y="0" class="st22 st40 st41">BICYCLE</tspan><tspan x="219.8" y="0" class="st11 st40 st41"> DAY</tspan></text>
	<polygon class="st42" points="322.62,96.05 176.49,96.05 181.45,83.59 176.49,70.95 322.62,70.95 317.66,83.59 	"/>
	<rect x="107.13" y="76.01" class="st38" width="287.34" height="14.88"/>
	<text transform="matrix(1 0 0 1 199.3006 90.8481)" class="st43 st44 st45">3RD JUNE</text>
</g>
</svg>
