<?xml version="1.0" encoding="utf-8"?>
<!-- Generator: Adobe Illustrator 27.9.0, SVG Export Plug-In . SVG Version: 6.00 Build 0)  -->
<svg version="1.1" xmlns="http://www.w3.org/2000/svg" xmlns:xlink="http://www.w3.org/1999/xlink" x="0px" y="0px"
	 viewBox="0 0 800 800" style="enable-background:new 0 0 800 800;" xml:space="preserve">
<style type="text/css">
	.st0{fill:#F6F6F6;}
	.st1{fill:#FAF9D4;}
	.st2{display:none;}
	.st3{display:inline;}
	.st4{fill:#4B4B4B;}
	
		.st5{clip-path:url(#SVGID_00000044883202117712404040000015686968251526269071_);fill:url(#SVGID_00000183961286296185240760000002435308524411900318_);}
</style>
<g id="Background">
	<rect x="0.14" y="-0.49" class="st0" width="800" height="800"/>
	<rect x="0" class="st1" width="800" height="800"/>
</g>
<g id="Objects">
	<g class="st2">
		<g class="st3">
			<path class="st4" d="M283.7,773.61v-0.26c-0.35,0.4-0.69,0.72-1.03,0.97c-0.34,0.25-0.71,0.44-1.1,0.57
				c-0.4,0.13-0.83,0.2-1.3,0.2c-0.62,0-1.2-0.13-1.72-0.39c-0.53-0.26-0.99-0.64-1.37-1.13c-0.39-0.49-0.68-1.06-0.88-1.72
				c-0.2-0.66-0.3-1.37-0.3-2.14c0-1.62,0.4-2.89,1.19-3.79c0.79-0.9,1.83-1.36,3.12-1.36c0.75,0,1.38,0.13,1.89,0.38
				c0.51,0.26,1.01,0.65,1.5,1.18v-3.83c0-0.53,0.11-0.93,0.32-1.21c0.21-0.27,0.51-0.41,0.91-0.41c0.39,0,0.69,0.12,0.91,0.38
				c0.21,0.25,0.32,0.62,0.32,1.11v11.44c0,0.49-0.11,0.86-0.34,1.11c-0.23,0.25-0.52,0.37-0.88,0.37c-0.35,0-0.65-0.13-0.88-0.38
				C283.81,774.45,283.7,774.09,283.7,773.61z M278.6,769.8c0,0.7,0.11,1.3,0.33,1.79c0.22,0.49,0.52,0.87,0.9,1.12
				c0.38,0.25,0.79,0.38,1.24,0.38c0.46,0,0.87-0.12,1.25-0.36c0.38-0.24,0.68-0.6,0.9-1.09c0.23-0.49,0.34-1.11,0.34-1.84
				c0-0.69-0.11-1.28-0.34-1.78c-0.22-0.5-0.53-0.88-0.91-1.14c-0.38-0.26-0.8-0.39-1.26-0.39c-0.47,0-0.9,0.13-1.27,0.4
				c-0.37,0.27-0.66,0.65-0.87,1.16C278.7,768.55,278.6,769.14,278.6,769.8z"/>
			<path class="st4" d="M295.13,770.46h-5.07c0.01,0.59,0.12,1.11,0.36,1.56c0.23,0.45,0.54,0.79,0.92,1.02
				c0.38,0.23,0.81,0.34,1.27,0.34c0.31,0,0.59-0.04,0.85-0.11c0.26-0.07,0.5-0.19,0.75-0.34c0.24-0.15,0.46-0.32,0.66-0.5
				c0.2-0.18,0.46-0.42,0.79-0.72c0.13-0.11,0.32-0.17,0.57-0.17c0.27,0,0.48,0.07,0.64,0.22c0.16,0.15,0.25,0.35,0.25,0.62
				c0,0.23-0.09,0.51-0.28,0.82c-0.19,0.31-0.46,0.61-0.83,0.9c-0.37,0.29-0.84,0.53-1.4,0.72c-0.56,0.19-1.2,0.29-1.93,0.29
				c-1.66,0-2.96-0.48-3.88-1.42c-0.92-0.95-1.39-2.24-1.39-3.87c0-0.77,0.11-1.48,0.34-2.13c0.23-0.66,0.56-1.22,1-1.69
				c0.44-0.47,0.98-0.83,1.62-1.08c0.64-0.25,1.35-0.37,2.13-0.37c1.01,0,1.88,0.21,2.61,0.64c0.73,0.43,1.27,0.98,1.63,1.66
				c0.36,0.68,0.54,1.37,0.54,2.07c0,0.65-0.19,1.08-0.56,1.27C296.33,770.36,295.81,770.46,295.13,770.46z M290.06,768.99h4.7
				c-0.06-0.89-0.3-1.55-0.72-1.99c-0.42-0.44-0.96-0.66-1.64-0.66c-0.65,0-1.18,0.22-1.59,0.67
				C290.4,767.45,290.15,768.11,290.06,768.99z"/>
			<path class="st4" d="M306.94,771.7c0,0.72-0.17,1.33-0.52,1.84c-0.35,0.51-0.86,0.9-1.54,1.16c-0.68,0.26-1.51,0.39-2.48,0.39
				c-0.93,0-1.73-0.14-2.39-0.43c-0.66-0.28-1.16-0.64-1.47-1.07c-0.32-0.43-0.48-0.86-0.48-1.29c0-0.29,0.1-0.53,0.3-0.73
				c0.2-0.2,0.46-0.3,0.77-0.3c0.27,0,0.48,0.07,0.63,0.2c0.15,0.13,0.29,0.32,0.42,0.56c0.27,0.46,0.58,0.81,0.96,1.04
				c0.37,0.23,0.87,0.34,1.52,0.34c0.52,0,0.94-0.12,1.28-0.35c0.33-0.23,0.5-0.5,0.5-0.79c0-0.46-0.17-0.79-0.52-1
				c-0.35-0.21-0.91-0.41-1.7-0.6c-0.89-0.22-1.62-0.45-2.18-0.7c-0.56-0.24-1.01-0.56-1.34-0.96c-0.34-0.4-0.5-0.89-0.5-1.47
				c0-0.52,0.15-1.01,0.47-1.47c0.31-0.46,0.77-0.83,1.37-1.11c0.6-0.28,1.33-0.41,2.19-0.41c0.67,0,1.27,0.07,1.81,0.21
				c0.54,0.14,0.98,0.33,1.34,0.56c0.36,0.23,0.63,0.49,0.82,0.78c0.19,0.29,0.28,0.56,0.28,0.84c0,0.3-0.1,0.54-0.3,0.73
				c-0.2,0.19-0.48,0.29-0.85,0.29c-0.27,0-0.49-0.08-0.68-0.23c-0.19-0.15-0.4-0.38-0.64-0.68c-0.2-0.25-0.43-0.46-0.69-0.61
				c-0.27-0.15-0.63-0.23-1.08-0.23c-0.47,0-0.86,0.1-1.17,0.3c-0.31,0.2-0.47,0.45-0.47,0.74c0,0.27,0.11,0.5,0.34,0.67
				c0.23,0.17,0.54,0.32,0.92,0.43c0.39,0.11,0.92,0.25,1.6,0.42c0.8,0.2,1.46,0.43,1.97,0.7c0.51,0.27,0.9,0.59,1.16,0.96
				C306.81,770.81,306.94,771.23,306.94,771.7z"/>
			<path class="st4" d="M309.59,763.35c-0.36,0-0.67-0.11-0.93-0.33c-0.26-0.22-0.38-0.53-0.38-0.94c0-0.37,0.13-0.67,0.39-0.91
				c0.26-0.24,0.57-0.36,0.92-0.36c0.34,0,0.63,0.11,0.89,0.32c0.26,0.22,0.39,0.53,0.39,0.94c0,0.4-0.13,0.71-0.38,0.94
				C310.24,763.23,309.94,763.35,309.59,763.35z M310.88,766.02v7.49c0,0.52-0.12,0.91-0.37,1.18c-0.25,0.27-0.56,0.4-0.94,0.4
				s-0.69-0.14-0.93-0.41c-0.24-0.27-0.36-0.66-0.36-1.17v-7.42c0-0.51,0.12-0.9,0.36-1.16c0.24-0.26,0.55-0.39,0.93-0.39
				s0.69,0.13,0.94,0.39C310.75,765.2,310.88,765.56,310.88,766.02z"/>
			<path class="st4" d="M322.23,766.45v7.53c0,0.86-0.09,1.6-0.28,2.22c-0.18,0.62-0.48,1.13-0.88,1.54
				c-0.41,0.4-0.94,0.71-1.59,0.9c-0.66,0.2-1.47,0.29-2.45,0.29c-0.89,0-1.69-0.12-2.39-0.38c-0.7-0.25-1.24-0.57-1.62-0.97
				c-0.38-0.4-0.57-0.8-0.57-1.22c0-0.32,0.11-0.58,0.32-0.77c0.21-0.2,0.48-0.3,0.78-0.3c0.38,0,0.71,0.17,1,0.5
				c0.14,0.17,0.28,0.34,0.43,0.52c0.15,0.17,0.31,0.32,0.49,0.45c0.18,0.12,0.4,0.21,0.65,0.27c0.25,0.06,0.55,0.09,0.87,0.09
				c0.67,0,1.19-0.09,1.56-0.28c0.37-0.19,0.63-0.45,0.78-0.78c0.15-0.33,0.24-0.69,0.26-1.08c0.03-0.38,0.04-1,0.06-1.85
				c-0.4,0.56-0.86,0.98-1.38,1.27c-0.52,0.29-1.14,0.44-1.87,0.44c-0.87,0-1.63-0.22-2.28-0.66c-0.65-0.44-1.15-1.06-1.5-1.86
				c-0.35-0.8-0.52-1.72-0.52-2.76c0-0.78,0.11-1.48,0.32-2.11c0.21-0.63,0.52-1.16,0.91-1.59c0.39-0.43,0.85-0.75,1.36-0.97
				c0.51-0.22,1.08-0.33,1.69-0.33c0.73,0,1.37,0.14,1.91,0.42c0.54,0.28,1.04,0.72,1.5,1.33v-0.35c0-0.45,0.11-0.8,0.33-1.04
				c0.22-0.25,0.51-0.37,0.86-0.37c0.5,0,0.83,0.16,1,0.49C322.15,765.37,322.23,765.84,322.23,766.45z M314.72,769.74
				c0,1.05,0.23,1.85,0.69,2.38c0.46,0.54,1.05,0.81,1.78,0.81c0.43,0,0.84-0.12,1.22-0.35c0.38-0.23,0.7-0.58,0.94-1.04
				c0.24-0.47,0.36-1.03,0.36-1.7c0-1.06-0.23-1.88-0.7-2.47c-0.47-0.59-1.08-0.88-1.84-0.88c-0.74,0-1.33,0.28-1.78,0.85
				C314.94,767.9,314.72,768.7,314.72,769.74z"/>
			<path class="st4" d="M326.36,765.98v0.31c0.46-0.6,0.95-1.04,1.5-1.33c0.54-0.28,1.16-0.42,1.87-0.42c0.68,0,1.3,0.15,1.83,0.45
				c0.54,0.3,0.94,0.72,1.21,1.26c0.17,0.32,0.28,0.66,0.33,1.03c0.05,0.37,0.08,0.84,0.08,1.41v4.82c0,0.52-0.12,0.91-0.36,1.18
				c-0.24,0.27-0.55,0.4-0.93,0.4c-0.39,0-0.7-0.14-0.94-0.41c-0.24-0.27-0.36-0.66-0.36-1.17v-4.32c0-0.85-0.12-1.51-0.36-1.96
				c-0.24-0.45-0.71-0.68-1.42-0.68c-0.46,0-0.88,0.14-1.26,0.41c-0.38,0.28-0.66,0.66-0.84,1.14c-0.13,0.39-0.19,1.11-0.19,2.16
				v3.25c0,0.53-0.12,0.92-0.37,1.18c-0.24,0.26-0.56,0.39-0.94,0.39c-0.37,0-0.68-0.14-0.92-0.41c-0.24-0.27-0.36-0.66-0.36-1.17
				v-7.49c0-0.49,0.11-0.86,0.32-1.11c0.22-0.24,0.51-0.37,0.88-0.37c0.23,0,0.43,0.05,0.62,0.16c0.18,0.11,0.33,0.27,0.44,0.48
				C326.3,765.41,326.36,765.68,326.36,765.98z"/>
			<path class="st4" d="M342.13,770.46h-5.07c0.01,0.59,0.12,1.11,0.36,1.56c0.23,0.45,0.54,0.79,0.92,1.02
				c0.38,0.23,0.81,0.34,1.27,0.34c0.31,0,0.59-0.04,0.85-0.11c0.26-0.07,0.5-0.19,0.75-0.34c0.24-0.15,0.46-0.32,0.67-0.5
				c0.2-0.18,0.46-0.42,0.79-0.72c0.13-0.11,0.32-0.17,0.57-0.17c0.27,0,0.48,0.07,0.65,0.22c0.16,0.15,0.25,0.35,0.25,0.62
				c0,0.23-0.09,0.51-0.28,0.82c-0.18,0.31-0.46,0.61-0.83,0.9c-0.37,0.29-0.83,0.53-1.4,0.72c-0.56,0.19-1.21,0.29-1.93,0.29
				c-1.66,0-2.96-0.48-3.89-1.42c-0.92-0.95-1.39-2.24-1.39-3.87c0-0.77,0.11-1.48,0.34-2.13c0.23-0.66,0.56-1.22,1-1.69
				c0.44-0.47,0.98-0.83,1.61-1.08c0.64-0.25,1.35-0.37,2.13-0.37c1.01,0,1.88,0.21,2.61,0.64c0.73,0.43,1.27,0.98,1.63,1.66
				c0.36,0.68,0.54,1.37,0.54,2.07c0,0.65-0.19,1.08-0.56,1.27C343.33,770.36,342.81,770.46,342.13,770.46z M337.06,768.99h4.7
				c-0.06-0.89-0.3-1.55-0.72-1.99c-0.42-0.44-0.96-0.66-1.64-0.66c-0.65,0-1.18,0.22-1.59,0.67
				C337.4,767.45,337.15,768.11,337.06,768.99z"/>
			<path class="st4" d="M352.7,773.61v-0.26c-0.35,0.4-0.69,0.72-1.03,0.97c-0.34,0.25-0.71,0.44-1.1,0.57
				c-0.39,0.13-0.83,0.2-1.3,0.2c-0.62,0-1.2-0.13-1.72-0.39c-0.53-0.26-0.99-0.64-1.37-1.13c-0.39-0.49-0.68-1.06-0.88-1.72
				c-0.2-0.66-0.3-1.37-0.3-2.14c0-1.62,0.4-2.89,1.19-3.79c0.79-0.9,1.83-1.36,3.12-1.36c0.75,0,1.38,0.13,1.89,0.38
				c0.51,0.26,1.01,0.65,1.5,1.18v-3.83c0-0.53,0.11-0.93,0.32-1.21c0.21-0.27,0.51-0.41,0.91-0.41c0.39,0,0.69,0.12,0.91,0.38
				c0.21,0.25,0.32,0.62,0.32,1.11v11.44c0,0.49-0.11,0.86-0.34,1.11c-0.23,0.25-0.52,0.37-0.88,0.37c-0.35,0-0.65-0.13-0.88-0.38
				C352.82,774.45,352.7,774.09,352.7,773.61z M347.6,769.8c0,0.7,0.11,1.3,0.33,1.79c0.22,0.49,0.52,0.87,0.9,1.12
				c0.38,0.25,0.79,0.38,1.24,0.38c0.46,0,0.87-0.12,1.25-0.36c0.38-0.24,0.68-0.6,0.9-1.09c0.23-0.49,0.34-1.11,0.34-1.84
				c0-0.69-0.11-1.28-0.34-1.78c-0.22-0.5-0.53-0.88-0.91-1.14c-0.38-0.26-0.8-0.39-1.26-0.39c-0.47,0-0.9,0.13-1.27,0.4
				c-0.37,0.27-0.66,0.65-0.87,1.16C347.7,768.55,347.6,769.14,347.6,769.8z"/>
			<path class="st4" d="M363.3,762.18v3.96c0.49-0.51,0.98-0.89,1.49-1.16c0.51-0.27,1.13-0.4,1.88-0.4c0.86,0,1.62,0.2,2.27,0.61
				c0.65,0.41,1.15,1,1.51,1.78c0.36,0.77,0.54,1.7,0.54,2.76c0,0.79-0.1,1.5-0.3,2.16c-0.2,0.66-0.49,1.22-0.87,1.7
				c-0.38,0.48-0.84,0.85-1.38,1.12c-0.54,0.26-1.14,0.39-1.79,0.39c-0.4,0-0.77-0.05-1.13-0.14c-0.35-0.09-0.65-0.22-0.9-0.38
				c-0.25-0.15-0.46-0.31-0.63-0.48c-0.17-0.16-0.4-0.41-0.69-0.74v0.26c0,0.49-0.12,0.86-0.35,1.11c-0.23,0.25-0.53,0.37-0.89,0.37
				c-0.37,0-0.66-0.12-0.88-0.37c-0.22-0.25-0.33-0.62-0.33-1.11v-11.32c0-0.53,0.11-0.92,0.32-1.19c0.21-0.27,0.51-0.4,0.89-0.4
				c0.4,0,0.71,0.13,0.92,0.38C363.19,761.34,363.3,761.7,363.3,762.18z M363.42,769.88c0,1.03,0.24,1.82,0.71,2.38
				c0.47,0.55,1.09,0.83,1.86,0.83c0.65,0,1.21-0.28,1.69-0.85c0.47-0.57,0.71-1.38,0.71-2.44c0-0.68-0.1-1.27-0.29-1.77
				c-0.2-0.49-0.47-0.88-0.84-1.14c-0.36-0.27-0.78-0.4-1.26-0.4c-0.49,0-0.93,0.13-1.32,0.4c-0.39,0.27-0.69,0.66-0.91,1.17
				C363.53,768.57,363.42,769.18,363.42,769.88z"/>
			<path class="st4" d="M374.34,775.42l0.24-0.58l-3.19-8.04c-0.2-0.46-0.29-0.8-0.29-1.01c0-0.22,0.06-0.43,0.17-0.62
				c0.11-0.19,0.27-0.34,0.47-0.46c0.2-0.12,0.41-0.17,0.62-0.17c0.37,0,0.65,0.12,0.85,0.36c0.19,0.24,0.36,0.58,0.5,1.02
				l2.19,6.38l2.08-5.94c0.16-0.48,0.31-0.86,0.45-1.13c0.13-0.27,0.27-0.46,0.42-0.55c0.15-0.1,0.36-0.14,0.63-0.14
				c0.2,0,0.38,0.05,0.57,0.16c0.18,0.1,0.32,0.25,0.42,0.42c0.1,0.18,0.15,0.36,0.15,0.56c-0.03,0.12-0.07,0.29-0.12,0.51
				c-0.06,0.22-0.13,0.45-0.21,0.67l-3.38,8.85c-0.29,0.78-0.58,1.39-0.86,1.83c-0.28,0.44-0.65,0.79-1.11,1.02
				c-0.46,0.24-1.08,0.36-1.86,0.36c-0.76,0-1.33-0.08-1.71-0.25c-0.38-0.17-0.57-0.47-0.57-0.9c0-0.3,0.09-0.53,0.27-0.69
				c0.18-0.16,0.45-0.24,0.8-0.24c0.14,0,0.28,0.02,0.41,0.06c0.16,0.04,0.31,0.06,0.43,0.06c0.3,0,0.53-0.04,0.7-0.13
				c0.17-0.09,0.32-0.24,0.46-0.46C374.01,776.16,374.17,775.84,374.34,775.42z"/>
		</g>
		<g class="st3">
			<path class="st4" d="M411.91,764.78h0.62V764c0-0.81,0.1-1.46,0.31-1.94c0.2-0.48,0.56-0.83,1.05-1.04
				c0.49-0.22,1.16-0.33,2.02-0.33c1.52,0,2.27,0.37,2.27,1.11c0,0.24-0.08,0.44-0.24,0.62c-0.15,0.17-0.34,0.26-0.56,0.26
				c-0.1,0-0.28-0.02-0.53-0.06c-0.24-0.03-0.45-0.06-0.62-0.06c-0.47,0-0.77,0.14-0.91,0.42c-0.13,0.28-0.2,0.67-0.2,1.18v0.62
				h0.63c0.99,0,1.48,0.3,1.48,0.9c0,0.42-0.13,0.69-0.39,0.8c-0.26,0.11-0.62,0.17-1.09,0.17h-0.63v6.87c0,0.51-0.12,0.9-0.37,1.17
				c-0.24,0.27-0.55,0.41-0.94,0.41c-0.37,0-0.67-0.13-0.92-0.41c-0.24-0.27-0.36-0.66-0.36-1.17v-6.87h-0.71
				c-0.39,0-0.68-0.08-0.89-0.26c-0.21-0.17-0.31-0.4-0.31-0.68C410.6,765.08,411.04,764.78,411.91,764.78"/>
			<path class="st4" d="M420.4,771.35v2.17c0,0.52-0.13,0.92-0.37,1.18c-0.25,0.27-0.56,0.39-0.94,0.39c-0.38,0-0.69-0.13-0.93-0.4
				c-0.24-0.26-0.36-0.66-0.36-1.17v-7.22c0-1.17,0.42-1.75,1.26-1.75c0.43,0,0.74,0.13,0.93,0.41c0.19,0.27,0.29,0.67,0.32,1.21
				c0.31-0.53,0.62-0.93,0.95-1.21c0.33-0.27,0.76-0.41,1.31-0.41c0.55,0,1.07,0.13,1.59,0.41c0.52,0.27,0.77,0.64,0.77,1.08
				c0,0.31-0.11,0.58-0.33,0.78c-0.22,0.21-0.45,0.31-0.71,0.31c-0.1,0-0.33-0.06-0.69-0.18c-0.37-0.11-0.69-0.17-0.96-0.17
				c-0.38,0-0.69,0.1-0.93,0.3c-0.24,0.21-0.43,0.5-0.56,0.89c-0.13,0.39-0.22,0.87-0.27,1.4
				C420.42,769.91,420.4,770.57,420.4,771.35"/>
			<path class="st4" d="M432.32,770.46h-5.07c0.01,0.59,0.12,1.11,0.35,1.56c0.24,0.45,0.54,0.79,0.92,1.02
				c0.38,0.23,0.8,0.34,1.27,0.34c0.31,0,0.59-0.03,0.85-0.11c0.25-0.07,0.5-0.19,0.75-0.34c0.24-0.15,0.46-0.32,0.66-0.5
				c0.2-0.17,0.47-0.42,0.79-0.72c0.13-0.11,0.32-0.17,0.57-0.17c0.27,0,0.48,0.07,0.65,0.22c0.17,0.15,0.24,0.35,0.24,0.62
				c0,0.24-0.09,0.51-0.27,0.82c-0.19,0.32-0.46,0.62-0.84,0.91c-0.37,0.29-0.84,0.53-1.4,0.71c-0.56,0.19-1.21,0.29-1.93,0.29
				c-1.67,0-2.96-0.47-3.89-1.42c-0.92-0.95-1.39-2.24-1.39-3.87c0-0.77,0.12-1.48,0.35-2.13c0.22-0.66,0.56-1.22,1-1.69
				c0.44-0.47,0.97-0.83,1.61-1.08c0.64-0.25,1.35-0.37,2.13-0.37c1.01,0,1.88,0.21,2.61,0.65c0.72,0.42,1.27,0.98,1.63,1.65
				c0.36,0.68,0.54,1.37,0.54,2.07c0,0.65-0.19,1.07-0.56,1.27C433.52,770.36,432.99,770.46,432.32,770.46 M427.24,768.98h4.7
				c-0.06-0.88-0.3-1.55-0.71-1.99c-0.42-0.44-0.96-0.66-1.64-0.66c-0.65,0-1.18,0.22-1.59,0.67
				C427.58,767.45,427.33,768.11,427.24,768.98"/>
			<path class="st4" d="M443.1,770.46h-5.07c0.01,0.59,0.12,1.11,0.35,1.56c0.23,0.45,0.54,0.79,0.92,1.02
				c0.38,0.23,0.81,0.34,1.27,0.34c0.31,0,0.59-0.03,0.84-0.11c0.26-0.07,0.51-0.19,0.75-0.34c0.24-0.15,0.46-0.32,0.66-0.5
				c0.2-0.17,0.46-0.42,0.79-0.72c0.13-0.11,0.33-0.17,0.57-0.17c0.27,0,0.48,0.07,0.65,0.22c0.17,0.15,0.24,0.35,0.24,0.62
				c0,0.24-0.09,0.51-0.27,0.82c-0.18,0.32-0.46,0.62-0.83,0.91c-0.37,0.29-0.84,0.53-1.4,0.71c-0.56,0.19-1.21,0.29-1.93,0.29
				c-1.67,0-2.96-0.47-3.89-1.42c-0.92-0.95-1.39-2.24-1.39-3.87c0-0.77,0.12-1.48,0.35-2.13c0.23-0.66,0.56-1.22,1-1.69
				c0.44-0.47,0.97-0.83,1.61-1.08c0.64-0.25,1.35-0.37,2.13-0.37c1.01,0,1.88,0.21,2.61,0.65c0.72,0.42,1.27,0.98,1.62,1.65
				c0.36,0.68,0.54,1.37,0.54,2.07c0,0.65-0.19,1.07-0.56,1.27C444.3,770.36,443.78,770.46,443.1,770.46 M438.03,768.98h4.7
				c-0.06-0.88-0.3-1.55-0.71-1.99c-0.42-0.44-0.96-0.66-1.64-0.66c-0.65,0-1.18,0.22-1.59,0.67
				C438.37,767.45,438.11,768.11,438.03,768.98"/>
			<path class="st4" d="M448.78,766v0.31c0.49-0.6,0.99-1.04,1.52-1.32c0.52-0.28,1.12-0.43,1.78-0.43c0.79,0,1.54,0.21,2.21,0.62
				c0.67,0.41,1.2,1.02,1.59,1.81c0.39,0.79,0.59,1.73,0.59,2.81c0,0.8-0.11,1.53-0.34,2.2c-0.22,0.67-0.54,1.23-0.93,1.68
				c-0.39,0.45-0.86,0.8-1.39,1.05c-0.54,0.24-1.11,0.36-1.73,0.36c-0.74,0-1.36-0.15-1.87-0.45c-0.5-0.29-0.98-0.73-1.44-1.31v3.89
				c0,1.14-0.42,1.71-1.24,1.71c-0.49,0-0.81-0.15-0.97-0.44c-0.15-0.3-0.23-0.72-0.23-1.29v-11.19c0-0.5,0.11-0.86,0.32-1.11
				c0.21-0.24,0.51-0.36,0.88-0.36c0.37,0,0.67,0.12,0.9,0.37C448.67,765.17,448.78,765.53,448.78,766 M453.87,769.77
				c0-0.68-0.11-1.27-0.31-1.76c-0.21-0.49-0.5-0.87-0.87-1.13c-0.37-0.26-0.78-0.4-1.23-0.4c-0.71,0-1.32,0.28-1.81,0.84
				c-0.49,0.57-0.74,1.4-0.74,2.49c0,1.03,0.24,1.83,0.74,2.41c0.49,0.57,1.09,0.86,1.81,0.86c0.43,0,0.83-0.13,1.2-0.37
				c0.37-0.25,0.66-0.63,0.88-1.13C453.76,771.09,453.87,770.48,453.87,769.77"/>
			<path class="st4" d="M459.08,763.34c-0.36,0-0.67-0.11-0.92-0.33c-0.26-0.22-0.39-0.53-0.39-0.94c0-0.37,0.13-0.67,0.4-0.91
				c0.26-0.23,0.57-0.36,0.91-0.36c0.34,0,0.64,0.11,0.89,0.32c0.26,0.22,0.39,0.53,0.39,0.95c0,0.4-0.13,0.71-0.38,0.94
				C459.74,763.22,459.44,763.34,459.08,763.34 M460.37,766.02v7.5c0,0.52-0.12,0.91-0.37,1.17c-0.25,0.27-0.56,0.4-0.94,0.4
				c-0.38,0-0.68-0.13-0.93-0.41c-0.23-0.28-0.36-0.66-0.36-1.17v-7.43c0-0.51,0.12-0.89,0.36-1.15c0.24-0.26,0.55-0.39,0.93-0.39
				c0.38,0,0.69,0.13,0.94,0.39C460.24,765.2,460.37,765.56,460.37,766.02"/>
			<path class="st4" d="M468.73,773.91l-2.28-3.77l-1.41,1.33v2.07c0,0.5-0.13,0.88-0.4,1.15c-0.26,0.27-0.57,0.41-0.91,0.41
				c-0.4,0-0.71-0.13-0.94-0.4c-0.23-0.26-0.34-0.66-0.34-1.17v-11.06c0-0.57,0.11-1.01,0.33-1.31c0.22-0.3,0.54-0.45,0.95-0.45
				c0.4,0,0.71,0.14,0.95,0.41c0.23,0.27,0.35,0.67,0.35,1.2v6.29l2.92-3.06c0.36-0.38,0.63-0.64,0.83-0.78
				c0.19-0.14,0.42-0.21,0.69-0.21c0.33,0,0.59,0.1,0.82,0.31c0.21,0.21,0.32,0.47,0.32,0.77c0,0.38-0.35,0.89-1.05,1.52l-1.38,1.26
				l2.66,4.18c0.19,0.31,0.34,0.54,0.42,0.71c0.08,0.16,0.13,0.32,0.13,0.46c0,0.41-0.11,0.73-0.34,0.98
				c-0.22,0.24-0.52,0.35-0.89,0.35c-0.32,0-0.56-0.08-0.73-0.26C469.25,774.66,469.02,774.35,468.73,773.91"/>
			<path class="st4" d="M474.36,775.09c-0.39,0-0.73-0.13-1.01-0.38c-0.28-0.25-0.43-0.61-0.43-1.06c0-0.39,0.14-0.72,0.41-1
				c0.27-0.28,0.61-0.42,1.01-0.42c0.4,0,0.74,0.14,1.02,0.41c0.28,0.28,0.42,0.61,0.42,1c0,0.45-0.14,0.81-0.42,1.06
				C475.07,774.97,474.74,775.09,474.36,775.09"/>
			<path class="st4" d="M487.26,771.88c0,0.32-0.1,0.67-0.29,1.03c-0.19,0.37-0.49,0.72-0.89,1.05c-0.39,0.33-0.89,0.6-1.5,0.8
				c-0.6,0.2-1.28,0.31-2.03,0.31c-1.61,0-2.86-0.47-3.76-1.4c-0.9-0.94-1.35-2.19-1.35-3.76c0-1.07,0.2-2.01,0.62-2.82
				c0.41-0.81,1-1.45,1.78-1.89c0.78-0.45,1.72-0.67,2.79-0.67c0.67,0,1.29,0.1,1.85,0.29c0.56,0.2,1.03,0.45,1.42,0.76
				c0.39,0.31,0.69,0.64,0.89,0.99c0.21,0.35,0.31,0.68,0.31,0.99c0,0.31-0.11,0.57-0.34,0.79c-0.24,0.21-0.52,0.32-0.84,0.32
				c-0.22,0-0.4-0.06-0.54-0.17c-0.14-0.11-0.3-0.29-0.48-0.54c-0.32-0.48-0.65-0.84-1-1.08c-0.34-0.24-0.78-0.36-1.31-0.36
				c-0.76,0-1.38,0.3-1.85,0.9c-0.47,0.6-0.7,1.42-0.7,2.45c0,0.49,0.06,0.94,0.18,1.35c0.12,0.41,0.29,0.76,0.52,1.04
				c0.23,0.29,0.5,0.5,0.83,0.65c0.32,0.15,0.68,0.23,1.06,0.23c0.52,0,0.97-0.12,1.34-0.36c0.38-0.24,0.7-0.61,0.99-1.1
				c0.16-0.29,0.33-0.52,0.51-0.68c0.18-0.16,0.41-0.25,0.68-0.25c0.32,0,0.58,0.12,0.79,0.36
				C487.15,771.35,487.26,771.61,487.26,771.88"/>
			<path class="st4" d="M498.45,769.82c0,0.77-0.12,1.48-0.36,2.14c-0.25,0.65-0.59,1.21-1.05,1.68c-0.46,0.47-1,0.83-1.63,1.08
				c-0.64,0.25-1.35,0.38-2.14,0.38c-0.79,0-1.49-0.13-2.12-0.38c-0.62-0.25-1.17-0.61-1.63-1.08c-0.46-0.48-0.81-1.03-1.05-1.68
				c-0.23-0.64-0.35-1.35-0.35-2.13c0-0.79,0.12-1.51,0.36-2.16c0.24-0.65,0.59-1.21,1.04-1.67c0.45-0.46,0.99-0.82,1.63-1.07
				c0.64-0.25,1.35-0.37,2.12-0.37c0.78,0,1.5,0.12,2.14,0.38c0.64,0.25,1.18,0.61,1.64,1.08c0.46,0.47,0.8,1.03,1.04,1.67
				C498.33,768.33,498.45,769.04,498.45,769.82 M495.85,769.82c0-1.06-0.23-1.88-0.7-2.47c-0.46-0.6-1.09-0.89-1.87-0.89
				c-0.51,0-0.96,0.13-1.34,0.39c-0.39,0.26-0.68,0.65-0.89,1.16c-0.21,0.51-0.32,1.11-0.32,1.8c0,0.68,0.1,1.27,0.31,1.77
				c0.21,0.51,0.5,0.9,0.89,1.17c0.39,0.27,0.84,0.4,1.35,0.4c0.78,0,1.41-0.3,1.87-0.89C495.61,771.68,495.85,770.86,495.85,769.82
				"/>
			<path class="st4" d="M508.34,770.01v3.45c0,0.55-0.12,0.95-0.37,1.23c-0.25,0.27-0.57,0.41-0.98,0.41
				c-0.39,0-0.71-0.14-0.95-0.41c-0.25-0.28-0.37-0.68-0.37-1.23v-4.13c0-0.65-0.02-1.16-0.06-1.52c-0.05-0.35-0.17-0.66-0.36-0.88
				c-0.2-0.24-0.51-0.35-0.93-0.35c-0.85,0-1.41,0.29-1.68,0.88c-0.27,0.58-0.41,1.41-0.41,2.51v3.5c0,0.54-0.12,0.95-0.36,1.22
				c-0.25,0.27-0.57,0.41-0.96,0.41c-0.4,0-0.72-0.14-0.97-0.41c-0.25-0.28-0.38-0.69-0.38-1.22v-7.42c0-0.49,0.11-0.86,0.33-1.11
				c0.23-0.26,0.53-0.38,0.89-0.38c0.36,0,0.65,0.12,0.89,0.36c0.24,0.24,0.35,0.57,0.35,0.98v0.25c0.45-0.54,0.93-0.93,1.44-1.18
				c0.52-0.26,1.08-0.39,1.71-0.39c0.65,0,1.21,0.13,1.68,0.39c0.47,0.26,0.85,0.66,1.16,1.18c0.44-0.53,0.91-0.92,1.41-1.18
				c0.5-0.26,1.05-0.39,1.66-0.39c0.71,0,1.32,0.14,1.83,0.42c0.51,0.28,0.89,0.68,1.15,1.2c0.22,0.47,0.33,1.21,0.33,2.22v5.06
				c0,0.55-0.12,0.95-0.37,1.23c-0.25,0.27-0.58,0.41-0.98,0.41c-0.39,0-0.71-0.14-0.96-0.41c-0.25-0.28-0.38-0.69-0.38-1.22v-4.36
				c0-0.56-0.02-1-0.07-1.34c-0.05-0.34-0.18-0.62-0.38-0.85c-0.21-0.23-0.53-0.34-0.95-0.34c-0.34,0-0.67,0.11-0.97,0.31
				c-0.31,0.2-0.55,0.48-0.72,0.81C508.44,768.13,508.34,768.9,508.34,770.01"/>
		</g>
		<g class="st3">
			<path class="st4" d="M387.64,769.19c0,0,0-0.01,0-0.02C387.64,769.18,387.64,769.19,387.64,769.19z"/>
			<path class="st4" d="M387.77,770.02C387.77,770.02,387.77,770.02,387.77,770.02c-0.05-0.24-0.09-0.47-0.12-0.7
				C387.68,769.55,387.72,769.79,387.77,770.02z"/>
			<path class="st4" d="M388.63,772.43c-0.01-0.01-0.01-0.02-0.02-0.03C388.62,772.41,388.62,772.42,388.63,772.43z"/>
			<path class="st4" d="M388.55,772.27c-0.02-0.04-0.04-0.09-0.07-0.13C388.5,772.18,388.52,772.22,388.55,772.27z"/>
			<path class="st4" d="M388.01,770.95c0.13,0.4,0.28,0.79,0.46,1.16C388.29,771.73,388.14,771.34,388.01,770.95
				C388.01,770.95,388.01,770.95,388.01,770.95z"/>
			<path class="st4" d="M397.68,759.26c0.5,0,0.87,0.04,1.29,0.11l0.12-0.76c0,0-1.17-0.36-2.71-0.23l-0.12-0.42
				c0.48-0.1,0.84-0.53,0.84-1.03c0-0.58-0.47-1.05-1.06-1.05s-1.06,0.47-1.06,1.05c0,0.51,0.36,0.93,0.84,1.03l0.13,0.46
				c-1.63,0.22-2.94,0.86-2.94,0.86l0.23,0.71c0.99-0.33,1.85-0.53,2.62-0.61C396.64,759.29,397.21,759.26,397.68,759.26z"/>
			<path class="st4" d="M388.61,763.11L388.61,763.11c0.04-0.06,0.08-0.1,0.12-0.15l-0.31-0.23l-0.49-0.36
				c-0.03,0.04-0.79,0.74-1.4,2.05c-0.03-0.04-0.06-0.08-0.09-0.12c-0.18-0.2-0.44-0.3-0.76-0.29c0,0-0.01,0-0.01,0
				c-0.2,0-0.34-0.07-0.43-0.15c0.09-0.11,0.14-0.26,0.14-0.41c0-0.37-0.3-0.67-0.67-0.67c-0.37,0-0.67,0.3-0.67,0.67
				c0,0.37,0.3,0.67,0.67,0.67c0.06,0,0.11-0.01,0.17-0.02c0.16,0.18,0.43,0.34,0.81,0.33c0.2,0,0.34,0.05,0.44,0.16
				c0.11,0.12,0.15,0.3,0.16,0.43c0,0,0,0,0,0c-0.44,1.19-0.31,2.67-0.31,2.67l1.06,0.04c0.02-0.54,0.1-1.48,0.37-2.23
				C387.92,764.06,388.58,763.15,388.61,763.11z"/>
			<path class="st4" d="M406.88,760.14c-0.37,0-0.67,0.3-0.67,0.67c0,0.06,0.01,0.11,0.02,0.17c-0.18,0.17-0.34,0.43-0.34,0.81
				c0,0.2-0.05,0.34-0.15,0.44c-0.09,0.08-0.19,0.12-0.3,0.14c-0.79-1.1-1.76-1.78-1.76-1.78l-0.76,0.81
				c0.57,0.52,1.16,1.17,1.73,1.99c0.39,0.56,0.8,1.29,1.14,2.01l1.02-0.49c0,0-0.47-1.16-1.13-2.19c0.11-0.04,0.23-0.1,0.33-0.19
				c0.2-0.18,0.3-0.44,0.29-0.76c0-0.21,0.07-0.35,0.15-0.44c0.11,0.09,0.26,0.14,0.41,0.14c0.37,0,0.67-0.3,0.67-0.67
				C407.55,760.44,407.25,760.14,406.88,760.14z"/>
			<path class="st4" d="M404.22,769.34c-1.41,0.69-3.73,1.59-6.78,2.02c-1.2,0.17-2.36,0.23-3.43,0.23c-1.39,0-2.62-0.1-3.56-0.22
				c-1.08-0.14-1.92-0.3-2.43-0.42c0.12,0.39,0.27,0.78,0.45,1.16c0,0.01,0.01,0.02,0.01,0.03c0.02,0.04,0.04,0.09,0.07,0.13
				c0.02,0.04,0.04,0.09,0.06,0.13c0.01,0.01,0.01,0.02,0.02,0.03c0.3,0.57,0.67,1.09,1.08,1.55c1.44,1.58,2.91,1.82,2.92,1.83
				l0.02,0l0.02,0.01c0.01,0,1.31,0.42,3.29,0.42c1.95,0,3.85-0.39,5.67-1.17c1.35-0.69,2.62-1.74,3.25-2.67
				c0.49-0.72,0.84-1.49,1.05-2.29c0.11-0.43,0.2-1.11,0.15-1.83C405.69,768.55,405.07,768.93,404.22,769.34z"/>
			<path class="st4" d="M389.06,763.45c-0.04,0.06-0.65,0.92-1.14,2.25c-0.36,1-0.35,2.44-0.35,2.46v0c0,0.34,0.02,0.68,0.06,1.01
				c0,0.01,0,0.01,0,0.02c0,0.04,0.01,0.08,0.02,0.13c0.03,0.23,0.07,0.47,0.12,0.7c0.7,0.18,4.88,1.15,9.55,0.5
				c2.93-0.41,5.15-1.27,6.5-1.93c1.12-0.54,1.84-1.04,2.12-1.24c-0.28-1.03-1.04-2.64-1.74-3.65c-2-2.87-4.17-3.6-5.28-3.78
				c-0.42-0.07-0.76-0.11-1.24-0.11c-0.45,0-1,0.04-1.74,0.11c-0.74,0.08-1.57,0.27-2.53,0.6c-1.35,0.45-2.57,1.16-3.53,2.05
				l-0.03,0.03C389.7,762.74,389.4,763.01,389.06,763.45z M401.33,762.78c0.96,0,1.74,0.78,1.74,1.74c0,0.96-0.78,1.74-1.74,1.74
				c-0.96,0-1.74-0.78-1.74-1.74C399.59,763.56,400.37,762.78,401.33,762.78z M393.09,762.71c1.56,0,2.82,1.26,2.82,2.82
				c0,1.56-1.26,2.81-2.82,2.81c-1.55,0-2.82-1.26-2.82-2.81C390.27,763.97,391.53,762.71,393.09,762.71z"/>
		</g>
	</g>
	<g>
		<defs>
			<rect id="SVGID_1_" x="-0.91" y="-0.49" width="800" height="800"/>
		</defs>
		<clipPath id="SVGID_00000147902508108063823860000016749616105970593462_">
			<use xlink:href="#SVGID_1_"  style="overflow:visible;"/>
		</clipPath>
		
			<linearGradient id="SVGID_00000059998555270043356620000007179769901712047027_" gradientUnits="userSpaceOnUse" x1="64.5677" y1="424.1372" x2="853.9369" y2="424.1372">
			<stop  offset="0" style="stop-color:#61BB5D"/>
			<stop  offset="1" style="stop-color:#95C11F"/>
		</linearGradient>
		
			<path style="clip-path:url(#SVGID_00000147902508108063823860000016749616105970593462_);fill:url(#SVGID_00000059998555270043356620000007179769901712047027_);" d="
			M358.47,466.76c1-1.1,1.82-2.35,2.4-3.62c2.11-4.68,1.11-10.1-1.63-14.31c-2.84-4.36-7.41-7.91-12.81-7.72
			c-1.71,0.06-3.42,0.36-5.01,0.92c-0.32-9.94-6.88-19.61-18.32-17.86c-6.19,0.95-11.18,5.25-13.74,10.86
			c-1.12,2.45-2.5,6.51-2.09,9.77c-5.24-1.11-11.57,1.35-14.34,5.67c-3.19,4.97-2.28,11.73,1.66,15.78
			c0.46,0.67,0.82,1.27,0.79,1.51c-0.11,0.78-2.43,2.18-3.01,2.75c-1.15,1.14-2.14,2.5-2.9,3.93c-1.52,2.89-2.21,6.24-1.76,9.49
			c0.36,2.58,1.41,4.97,2.94,6.99c1.18,1.95,2.73,3.67,4.55,5.05c1.15,0.87,2.68,1.9,4.26,2.44c-1.41,4.79,0.01,10.64,3.9,13.82
			c1.25,1.62,3.14,2.64,5.67,2.41c0.03,0,0.07-0.01,0.1-0.02c3.44,0.33,6.96-1.01,9.28-3.88c-0.1,3.48-0.19,6.96-0.34,10.42
			c-0.19,4.62-1.5,13.88,5.55,13.92c0.25,0,0.4-0.12,0.46-0.28c2.67-0.43,3.94-3.3,4.09-6.22c0.32-6.19-0.69-12.75-1.68-18.97
			c3.04,4.64,9.83,5.2,14.61,2.45c2.86-1.65,5.15-4.33,6.42-7.37c0.84-2.01,0.91-3.79,1.2-5.9c0.26-1.93,0-1.5,2.2-1.86
			c4.48-0.73,8.57-3.5,11.08-7.28c1.17-1.54,2.08-3.28,2.66-5.17C366.61,478.12,363.94,470.43,358.47,466.76z M319.7,464.46
			c-0.08,2.14-0.12,4.29-0.13,6.43C319.52,468.75,319.57,466.61,319.7,464.46z M327.39,505.18c-0.45,0.07-0.79,0.29-1.03,0.59
			c-0.24,0.13-0.48,0.27-0.73,0.4c-0.3,0.15-0.36,0.43-0.3,0.67c-0.23,0.11-0.41,0.35-0.36,0.66c0.65,4.17,1.19,8.36,1.56,12.56
			c0.31,3.53,2.22,12.98-3.07,13.94c-7.1-1.14-3.96-18.73-3.77-23.26c0.27-6.65,0.77-13.34,0.58-19.99
			c-0.01-0.35-0.39-0.41-0.58-0.21c-6.18-4.55-9.57-11.77-10.83-19.18c1.85,5.76,5.91,10.64,11.28,13.67
			c0.37,0.21,0.91-0.05,0.89-0.51c-0.65-11.22-0.29-22.35,0.61-33.5c0.08-0.37,0.18-0.73,0.26-1.09c0.11,3.96,0.27,7.93,0.42,11.89
			c0.07,1.76-0.98,8.66,1.41,9.71c2.47,1.08,7.15-2.65,8.72-4.12c1.77-1.66,3.15-3.61,4.26-5.72c0.42-0.55,0.81-1.12,1.19-1.7
			c-0.56,4.48-2.04,8.81-6.06,11.46c-2.16,1.43-6.93,2.07-8.36,4.33c-0.18,0.28-0.03,0.6,0.2,0.78c0.04,0.03,0.09,0.07,0.13,0.1
			c0.09,5.44,0.22,10.88,0.24,16.31c-0.08,0.51-0.1,1.03-0.08,1.61c0.01,0.16,0.04,0.31,0.09,0.45c0,0.89-0.03,1.79-0.04,2.68
			c-0.31,0.51-0.28,1.12-0.02,1.65c-0.01,0.61-0.01,1.21-0.03,1.82c-0.01,0.33,0.29,0.62,0.61,0.61c6.3-0.07,11.73-6.61,15.08-12.33
			C337.92,496.15,333.35,501.61,327.39,505.18z M332.32,512.13c2.83,0.56,5.93-0.01,8.38-1.52c0.06,0.01,0.11,0.03,0.17,0.04
			C338.4,512.18,335.16,512.78,332.32,512.13z M284,261.25c-0.15-0.66-0.98-0.55-1.2-0.05c-0.09-0.09-0.22-0.15-0.39-0.14
			c-3.43,0.15-6.85,0.23-10.27,0.3c0.02-0.06,0.04-0.12,0.04-0.19c0.13-5.66-1.99-10.97-5.59-14.87c-0.1-0.21-0.26-0.4-0.49-0.57
			c-0.06-0.04-0.12-0.09-0.19-0.13c-3.53-3.48-8.31-5.66-13.72-5.69c-5.21-0.02-10.54,1.91-14.27,5.6
			c-4.35,4.29-4.8,9.85-3.99,15.61c-2.96-0.05-5.93-0.09-8.89-0.14c-1.02-0.11-2.03-0.22-3.05-0.32c-0.07-0.01-0.14-0.02-0.21-0.02
			c-0.43-0.05-0.87-0.09-1.3-0.14c-0.55-0.06-1.19,0.46-1.3,0.99c-0.44,2.06-0.65,4.06-0.82,6.16c-0.01,0.13,0.01,0.24,0.04,0.35
			c-1.46,10.24-2.32,20.61-3.58,30.87c-1.65,13.43-3.43,26.84-5.35,40.23c-0.05,0.37,0.18,0.63,0.45,0.74
			c-0.1,0.27,0.04,0.62,0.42,0.64c14.03,0.7,28.23,0.03,42.27-0.05c0.11,0,0.23,0,0.34,0c6.67,0.1,13.38,0.12,20.08-0.09
			c7.28-0.04,14.57-0.08,21.85-0.16c0.22,0,0.37-0.1,0.47-0.23c0.2,0.01,0.39-0.11,0.38-0.38C294.44,313.38,289.72,286.8,284,261.25
			z M267.12,249.18c2.39,3.37,3.73,7.55,3.65,11.97c0,0.08,0.02,0.15,0.04,0.22c-1.76,0.03-3.53,0.04-5.29,0.05
			c0.53-4.78,0.23-10.23-3.31-13.59C263.94,248.23,265.6,248.7,267.12,249.18z M244.51,247.28c4.91-1.28,10.54-0.9,15.66,0.1
			c4.52,3.49,4.21,8.92,4.04,14.05c-7.87,0.04-15.73-0.07-23.6-0.2c-0.7-5.23,0.25-9.78,3.87-13.9
			C244.49,247.32,244.49,247.3,244.51,247.28z M235.14,253.41c0-0.01,0.01-0.01,0.02-0.01c1.61-2.22,3.66-3.8,5.96-4.89
			c0.19-0.08,0.38-0.17,0.58-0.24c0.38-0.15,0.76-0.3,1.14-0.46c-3.18,3.53-4.8,8.77-3.55,13.4c-1.5-0.03-3-0.05-4.5-0.08
			C234.66,258.47,234.64,255.86,235.14,253.41z M275.13,312.63c-0.08,0.29-0.16,0.57-0.25,0.85c-0.64,1.57-1.3,3.14-2.09,4.63
			c-5.19,8.49-16.04,12.25-25.98,9.56c-7.92-2.14-13.75-7.59-17.37-14.5c-0.14-0.37-0.28-0.74-0.42-1.12
			c-0.53-1.49-1.08-2.93-1.86-4.31c0.07,0,0.13,0,0.2-0.01c0.44-0.08,0.52-0.77,0.13-0.97c-0.42-0.21-0.9-0.28-1.38-0.33
			c-0.19-0.09-0.39-0.16-0.61-0.17c-0.32-0.01-0.64-0.01-0.95,0c-0.32-0.04-0.65-0.08-0.97-0.03c-0.03-0.02-0.06-0.04-0.09-0.06
			c0-0.15,0.01-0.3,0-0.45c1.07-0.72,2.04-1.54,3.05-2.41c1.22-1.05,3.43-3.84,4.92-4.27c2-0.58,3.42,2.07,4.56,3.29
			c0.75,0.81,1.53,1.58,2.33,2.34c0.37,0.46,0.74,0.91,1.14,1.34c-0.9,0.03-1.8,0.06-2.69,0.09c-0.56,0.02-0.77,0.57-0.63,0.97
			c-0.19,0.43-0.21,0.92,0.07,1.35c1.03,1.54,2.18,3.09,3.43,4.54c3,4.2,7.48,7.22,12.84,7.84c7.42,0.87,14.35-3.64,15.92-11.03
			c0.05-0.25-0.03-0.45-0.16-0.61c2.32,1.02,4.62,2.29,6.97,3.26C275.19,312.49,275.15,312.55,275.13,312.63z M273.66,305.8
			c-1.47-0.4-3.53-2.95-4.73-3.93c-1.36-1.11-2.75-2.2-4.13-3.28c1.37,0,2.71,0.11,4.07,0.33c0.56,0.09,0.89-0.46,0.78-0.86
			c0-0.01,0-0.01,0-0.01c0.72-7.69-6.06-13.35-13.22-13.8c-7.92-0.5-15.52,3.52-19.79,10.12c-0.32-0.2-0.66-0.39-1.01-0.57
			c-1.96-1.14-3.98-2.03-6.18-2.72c5.62-9.3,16.04-15.44,27.15-13.66c10.36,1.67,18.73,9.85,21.31,19.89
			c0.06,0.22,0.18,0.35,0.34,0.43c0.08,0.11,0.21,0.19,0.38,0.21c0.83,0.08,1.67,0.16,2.5,0.24c0.39,0.04,0.77,0.08,1.15,0.11
			c0.19,0.02,0.38,0.04,0.58,0.05c0.06,0.02,0.1,0.02,0.16,0.03c0.01,0.03,0.01,0.06,0.03,0.09c0.02,0.04,0.03,0.08,0.05,0.11
			c0.02,0.05,0.05,0.08,0.09,0.12C280.8,301.13,276.45,306.57,273.66,305.8z M310.73,388.55c-5.08,2.07-10.06,4.32-14.98,6.74
			c4.73,2.81,9.34,5.79,13.83,8.97c0.31,0.22,0.22,0.75-0.2,0.75c-2.99-0.03-5.98,0.02-8.97,0.22c-1.26,0.09-2.6,0.08-3.83,0.33
			c-1.78,0.36-1.65,0.11-0.6,1.54c2.99,4.05,6.47,7.72,9.39,11.86c0.15,0.21-0.05,0.58-0.31,0.55c-5.39-0.72-10.71-1.76-15.93-3.25
			c1.94,4.8,3.97,9.55,6.12,14.26c0.15,0.33-0.16,0.68-0.5,0.5c-1.59-0.85-12.32-7.49-13.23-6.47c-0.2,0.23,0.39,3.45,0.42,3.79
			c0.13,1.26,0.26,2.53,0.38,3.79c0.24,2.53,0.45,5.06,0.65,7.59c0.03,0.34-0.42,0.47-0.64,0.27c-4.15-3.91-7.79-8.27-11.28-12.77
			c-0.01,0-0.02,0-0.02,0.01c0.04,0.07,0.06,0.15,0.03,0.25c-1.31,5.18-1.99,11.47-4.77,16.11c-0.19,0.31-0.61,0.21-0.73-0.09
			c-1.99-5.12-3.43-10.37-4.17-15.82c-2.2,4.82-6.6,9.27-10.08,13.11c-0.25,0.28-0.66,0.04-0.68-0.28
			c-0.44-5.08,0.89-10.47,1.7-15.5c-3.98,3.44-8.4,6.38-12.89,9.11c-0.39,0.23-0.75-0.22-0.58-0.58c2.23-4.67,4.33-9.39,6.3-14.18
			c-0.02-0.02-0.04-0.04-0.06-0.05c-5.87,1.44-11.85,2.49-17.79,3.63c-0.43,0.08-0.71-0.39-0.42-0.72
			c3.47-4.04,7.42-7.56,11.91-10.43c0.02-0.01,0.03-0.01,0.05-0.02c-5.17-0.17-10.37-0.98-15.5-1.55c-0.43-0.05-0.55-0.53-0.21-0.78
			c3.49-2.62,7.19-5.06,11.16-6.87c0.01-0.04,0.03-0.09,0.06-0.13c0.21-0.23,0.43-0.46,0.64-0.68c0.18-0.19,0.33-0.36,0.55-0.48
			c-5.34-2.17-10.49-4.77-15.52-7.59c-0.26-0.15-0.3-0.61,0-0.74c2.47-1.13,4.99-2.1,7.63-2.78c1.48-0.38,2.98-0.68,4.49-0.9
			c0.13-0.02,2.26-0.11,3.34-0.04c-0.01-0.05-0.01-0.11,0.01-0.17c0.01-0.03,0.02-0.07,0.04-0.1c0.04-0.11,0.13-0.21,0.24-0.26
			c-2.15-2.17-4.11-4.51-6.37-6.57c-2.03-1.85-4.27-3.32-5.6-5.77c-0.14-0.26,0.03-0.66,0.36-0.64c5.37,0.47,10.85,0.95,16.17,1.94
			c-3.26-3.91-6.06-8.09-8.46-12.61c-0.17-0.32,0.11-0.7,0.47-0.61c2.7,0.69,5.34,1.59,7.89,2.74c0.8,0.36,7.1,4.12,7.16,4.07
			c0.87-0.66-0.28-6.6-0.34-8.05c-0.14-3.47-0.1-6.94,0.05-10.41c0.01-0.31,0.42-0.54,0.65-0.27c1.83,2.12,3.58,4.3,5.23,6.57
			c0.56,0.78,4.71,8.01,5.14,7.96c1.09-0.12,2.76-6.09,3.26-7.26c1.32-3.13,2.75-6.21,4.21-9.28c0.15-0.31,0.59-0.19,0.68,0.09
			c1.72,5.06,3.18,10.26,3.99,15.55c0.69-1.22,2.09-2.53,2.6-3.24c2.38-3.33,4.78-6.65,7.16-9.98c0.2-0.28,0.72-0.22,0.7,0.19
			c-0.25,5.29-1.08,10.51-2.12,15.7c0.04,0.38,0.02,0.77-0.02,1.17c4.24-4.08,8.68-7.8,12.64-12.2c0.28-0.31,0.76,0.02,0.67,0.39
			c-1.38,5.62-2.81,11.79-5.57,16.97c2.8,0.31,6.14-1.5,8.77-2.34c2.99-0.96,5.99-1.92,8.98-2.88c0.43-0.14,0.64,0.4,0.4,0.69
			c-3.68,4.63-7.19,9.88-11.43,14.06c5.91,0.43,11.87,1.8,17.64,3.06C311.2,387.82,311.09,388.41,310.73,388.55z M479.99,179.42
			c-7.63,2.21-10.4,9.93-13.43,16.44c-2.34,5.02-5.4,9.39-9.83,12.77c-7.51,5.72-20.49,9.58-28.06,1.95
			c-0.03-0.03-0.04-0.06-0.06-0.09c-4.57,6.74-7.37,14.52-7.24,23.51c0.47-0.05,0.95-0.05,1.44,0.01c4.78,0.58,7.03,4.96,7.81,9.21
			c5.98-5.37,20.63-3.1,19.73,6.59c-0.94,10.07-13.69,12.59-19.52,5.37c-0.9,5.11-7.67,5.59-10.13,1.35
			c-3.48,10.36-23.5,9.44-25.71-1.15c-4.92,4.21-14.3,1.99-13.6-5.63c0.76-8.33,12.29-9.3,17.48-4.9
			c-1.26-4.79,1.63-9.91,6.45-11.22c0.61-0.16,1.21-0.26,1.8-0.31c-2.26-11.85-6.03-23.17-11.39-33.7
			c-8.99,1.9-20.58-1.96-26.12-9.41c-6.9-9.29-1.92-23.37-11.52-31.14c-0.01,0-0.02,0-0.03,0c-0.2-0.02-0.31-0.17-0.34-0.33
			c-0.15-0.25,0.08-0.61,0.39-0.43c0.02,0.01,0.04,0.03,0.06,0.04c13.36,0.53,29.61-1.58,39.7,9.26c7.34,7.9,9.77,21.44,1.74,29.73
			c-0.07,0.07-0.14,0.11-0.22,0.13c6.89,10.94,11.76,23.13,14.27,35.94c1.61-9.94,5.7-19.13,11.58-26.95
			c-7.39-12.06,3.23-26.23,14.36-30.98c12.19-5.2,30.07-6.16,40.64,2.98C480.58,178.75,480.38,179.31,479.99,179.42z M392.19,547.77
			c-0.05-0.12-0.16-0.2-0.28-0.23c0.04-0.23-0.08-0.5-0.38-0.5c-6.27,0.03-12.55,0.03-18.82,0.02c0-0.16,0.01-0.32,0.01-0.48
			c0.6-2.82-0.04-4.59-1.36-5.7c0,0,0,0,0,0c-1.07-1.35-3.15-1.7-5.3-1.74c-2.26-0.22-4.71-0.13-6.73-0.19
			c-2.73-0.08-6.64-0.76-9.55,0.18c-0.68,0.12-1.33,0.34-1.91,0.76c-1.59,1.14-1.95,2.86-1.86,4.66c-0.02,0.86,0.06,1.73,0.18,2.56
			c-3.24,0.03-6.49,0.06-9.73,0.11c-2.99-0.02-5.98-0.02-8.98-0.01c-0.31,0-0.62,0.09-0.91,0.23c-0.07,0.02-0.13,0.04-0.17,0.09
			c-0.19-0.1-0.42-0.07-0.54,0.17c-1.65,3.41-1.42,7.41,0.93,10.43c-0.09,0.13-0.07,0.32,0.13,0.35c0.29,0.05,0.59,0.07,0.88,0.11
			c0.91,0.59,1.79,0.75,2.7,0.68c-1.04,13.05-0.96,26.27-0.59,39.34c0.09,3.17,0.21,6.33,0.36,9.49c0.12,2.44-0.09,5.24,0.62,7.61
			c0.25,0.85,0.64,1.54,1.13,2.09c0.22,0.35,0.46,0.67,0.76,0.95c1.15,1.09,2.71,1.19,4.22,1.22c0.47,0.05,0.95,0.09,1.43,0.11
			c12.6,0.5,25.3,0.16,37.92,0.22c3.68,0.02,8.3,0.21,11.06-2.71c2.42-2.56,2.18-6.75,2.01-10.28c0.06-1.95,0-3.92-0.11-5.89
			c-0.14-13.63-0.28-27.25-0.41-40.88c0-0.26-0.17-0.4-0.37-0.44c0-0.17-0.01-0.34-0.01-0.51c0.5,0.01,0.99-0.03,1.45-0.12
			c0.52,0,1.04,0,1.56-0.01c0.22,0,0.34-0.14,0.37-0.3c0.18,0.04,0.38-0.03,0.44-0.26C393.22,555.38,393.53,551.24,392.19,547.77z
			 M373.62,580.95c0.49,0.5,0.95,1.03,1.39,1.59c-0.2-0.26-0.41-0.51-0.63-0.76c-4.73-5.28-11.19-7.57-17.97-8.51
			C362.84,574.07,368.94,576.17,373.62,580.95z M354.13,543.62c1.58,0.09,3.16,0.46,4.74,0.58c1.75,0.14,3.52,0.17,5.27,0.09
			c1.22-0.06,2.23-0.59,2.99,0.44c0.18,0.24,0.27,0.5,0.33,0.78c-0.02,0.12-0.04,0.23-0.07,0.35c-0.07,0.38-0.18,0.79-0.25,1.2
			c-5.53,0-11.06,0-16.59,0.03c0.08-0.22,0.16-0.45,0.25-0.65C351.99,543.58,351.76,543.49,354.13,543.62z M350.82,543.41
			c-0.6,0.58-0.62,1.36-0.69,2.25C350.02,544.27,350.07,543.71,350.82,543.41z M373.04,603.98c-6.85,3.39-15.43,2.45-21.04-3.02
			c-5.87-5.72-7.4-14.54-8.49-22.31c-0.02-0.14-0.06-0.27-0.12-0.39c-0.06-0.42-0.11-0.84-0.18-1.25c0.02-0.93,0.04-1.87,0.06-2.8
			c5.34,5.86,12.07,10.88,18.07,15.99c4.61,3.92,9.24,7.81,13.92,11.65C374.64,602.62,373.9,603.33,373.04,603.98z M376.85,601.98
			c-0.08-0.07-0.16-0.13-0.24-0.2c0.16-0.22,0.29-0.45,0.43-0.68C376.97,601.39,376.9,601.68,376.85,601.98z M375.81,601.12
			c-4.81-3.95-9.6-7.93-14.34-11.97c-5.95-5.07-11.68-10.92-18.05-15.48c9.64-0.14,20.21,0.17,27.97,6.63
			C377.44,585.33,380.22,594.77,375.81,601.12z M530.74,408.3c-3.71-0.42-7.23,0.24-10.31,1.7c-0.28-0.52-0.57-1.03-0.86-1.54
			c0.4-0.12,0.8-0.23,1.21-0.32c5.16-1.22,13.56-1.93,17.91,1.71c1.52,1.27,3.72-0.91,2.19-2.19c-5.31-4.45-13.76-3.97-20.18-2.66
			c-0.79,0.16-1.7,0.41-2.66,0.74c-2.47-4.49-4.93-9.27-8.24-13.03c-0.01-0.01-0.02-0.02-0.04-0.03c0.49-1.14,0.99-2.28,1.5-3.43
			c1.97,0.14,4.01,0.23,5.86-0.3c1.2-0.35,1.26-2.18,0-2.49c-1.93-0.49-4.02-0.41-6.06-0.4c-0.45-0.26-0.99-0.31-1.43-0.02
			c-0.21-0.01-0.41-0.01-0.62-0.02c-1.4-0.07-2.8-0.16-4.19-0.33c-0.35-0.04-1.13-0.3-1.49-0.05c-0.06,0.04-0.11,0.08-0.17,0.12
			c-0.85,0.59-0.96,1.86,0,2.42c1.29,0.76,3.08,0.86,4.72,0.9c-0.55,1.1-1.09,2.21-1.62,3.34c-4.89-0.06-9.78,0.05-14.66,0.09
			c-4.92,0.04-11.25,1.15-15.99-0.28c0,0,0,0,0,0c0.34-3.46,0.28-6.89-0.47-10.28c0.85,0.7,1.79,1.28,2.88,1.66
			c2.27,0.8,5.41,0.82,6.88-1.33c0.71-1.04-0.46-2.05-1.46-1.9c-2.08,0.31-3.43,0.96-5.49-0.13c-1.71-0.91-3.07-2.47-4.36-3.88
			c-0.69-0.76-1.85-0.22-2.08,0.59c-0.58,0.43-0.93,1.2-0.53,2.02c3.28,7.5,1.33,15.62-0.3,23.27c-0.09,0.4-0.18,0.81-0.27,1.21
			c-7.35-1.18-15.36,1.02-20.05,6.72c-1.01,1.23,0.49,2.69,1.72,1.72c5.14-4.03,11.06-6.63,17.66-5.42
			c-0.16,0.71-0.31,1.41-0.47,2.12c-1.97-0.37-4.01-0.44-6.04-0.17c-10.29,1.35-18.73,11.4-17.48,21.86
			c0.61,5.13,3.43,9.88,7.46,13.08c2.34,1.86,6.87,4.51,10.29,3.84c0.17,0.08,0.35,0.14,0.57,0.16c12.48,1.16,23.22-9.16,21.7-21.82
			c-0.9-7.52-6.44-13.6-13.32-16.08c0.15-0.7,0.28-1.41,0.43-2.11c4.34,1.66,7.33,4.84,10.44,8.5c1.09,1.29,2.78-0.35,2.18-1.68
			c-2.31-5.09-6.82-8.43-11.97-10c0.37-1.88,0.74-3.75,1.11-5.62c0.18-0.9,0.33-1.8,0.47-2.7c2.96,5,6.73,9.65,10.23,14.26
			c3.04,4,6.03,8.76,9.69,12.33c-0.38,1.04-0.09,2.22,0,3.34c0.11,1.29,0.26,2.56,0.45,3.83c-1.03-0.06-2.05-0.11-3.08-0.06
			c-1.41,0.07-1.87,2.27-0.35,2.58c1.35,0.28,2.73,0.38,4.1,0.52c1.35,0.14,2.6,0.44,3.86-0.14c0.93-0.43,0.73-1.73,0-2.21
			c-0.55-0.37-1.19-0.5-1.85-0.56c0.01-0.07,0.02-0.13,0.02-0.2c0.01-1.43-0.06-2.86-0.17-4.29c0.16,0.03,0.33,0.07,0.53,0.1
			c2.93,0.56,6.43,0.06,9.43,0.21c0.32,0.02,0.64,0.05,0.96,0.07c-0.13,0.85-0.22,1.72-0.25,2.6c-0.32,9.73,9.17,21.24,19.59,19.23
			c9.63-0.11,18.47-6.66,19.87-16.71C549.7,419.65,541.9,409.57,530.74,408.3z M482.78,426.87c0.61,10.09-7.61,17.57-17.22,17.46
			c-0.38-0.28-0.9-0.39-1.4-0.16c-0.09,0.04-0.19,0.06-0.28,0.1c-0.25,0-0.47,0.06-0.65,0.17c-3.35,0.53-8.11-3.23-9.98-5.26
			c-2.94-3.18-4.73-7.46-4.47-11.82c0.52-8.53,8.28-15.9,16.83-15.94c1.01,0,2,0.09,2.98,0.27c-0.88,3.97-1.73,7.95-2.44,11.94
			c-1.6-0.16-3.36,0.92-3.77,2.58c-0.72,2.94,2.59,5.54,5.26,4.19c1.31-0.67,2.15-2.15,1.94-3.61c-0.09-0.59-0.35-1.14-0.72-1.6
			c1.08-4.16,2.05-8.38,2.95-12.61C477.75,414.84,482.38,420.3,482.78,426.87z M525.27,424.32c-0.04,0.04-0.07,0.08-0.11,0.12
			c-3.91-1.11-8.28-1.35-12.31-1.66c1.23-3.46,3.5-6.45,6.43-8.51C520.95,417.56,522.64,421.67,525.27,424.32z M496.68,419.37
			c-2.86-4.24-6.66-8.18-9.65-12.14c-2.82-3.72-5.45-7.64-8.35-11.31c3.41,0.37,7.28-0.24,10.31-0.26
			c5.28-0.03,10.57,0.01,15.84-0.11C501.41,403.23,498.53,411.32,496.68,419.37z M505.41,422.37c-0.94-0.03-5.8,0.58-6.88,0.04
			c-0.04-0.08-0.09-0.15-0.13-0.23c0.16-0.14,0.3-0.33,0.39-0.58c3.13-8.73,6.19-17.31,9.69-25.82c1.76,3.86,4.13,7.58,6.45,11.25
			c-3.82,1.89-7.36,4.91-6.71,8.82c0.07,0.4,0.64,0.62,0.96,0.39c1.55-1.1,2.31-2.72,3.68-4.04c1.11-1.07,2.36-1.91,3.7-2.58
			c0.4,0.64,0.79,1.28,1.17,1.93c-3.78,2.59-6.65,6.49-8.07,11.02C508.25,422.49,506.83,422.42,505.41,422.37z M545.21,428.91
			c-0.5,9.09-8.44,15.67-17.21,15.53c-3.79-0.44-7.27-0.92-10.47-3.54c-3.77-3.09-5.83-7.78-5.71-12.64
			c0.02-0.79,0.1-1.56,0.22-2.32c4.02,0.45,8.05,1.11,12.06,1.3c0,0.04,0,0.09,0,0.13c-0.05,1.63,0.99,3.2,2.54,3.77
			c3.37,1.24,6.93-2.81,4.9-5.91c-0.76-1.15-2.03-1.78-3.31-1.86c-2.48-3.2-4.41-6.96-6.32-10.61c2.48-1.14,5.28-1.68,8.21-1.41
			C539.1,412.18,545.7,419.93,545.21,428.91z M343.66,376.59c-49.57-2.86-29.81-69.67-7.59-92.95c1.1-1.15,2.65-0.57,3.27,0.54
			c0.86,0.14,1.6,0.73,1.79,1.9c3.82,23.34,28.31,36.88,31.11,60.49C374.42,365.02,361.93,377.65,343.66,376.59z M420.11,478.89
			c-3.72-11.32-15.23-16.84-26.57-16.55c-5.72,0.15-12.32,1.22-16.43,5.54c-3.61,3.79-5.47,9.25-5.89,14.39
			c-0.5,6.18,1.29,12.01,4.67,17.14c3.67,5.56,8,10.18,9.1,17.01c0.06,0.34,0.22,0.58,0.44,0.73c-1.94,1.09-2.61,3.51-1.47,5.45
			c0.19,0.32,0.47,0.65,0.81,0.94c-0.44,0.54-0.64,1.28-0.58,1.99c0.2,2.27,2.89,3.94,5.05,3.49c2.48,7.72,14.61,7.44,16.92,0.05
			c0.3,0,0.59-0.03,0.84-0.08c0.98-0.22,1.85-0.9,2.25-1.81c0.47-1.08,0.19-2.29-0.52-3.15c1.49-0.62,2.61-2.06,2.55-3.75
			c-0.06-1.86-1.44-3.33-3.18-3.64c0.4-0.34,0.65-0.87,0.51-1.52c-1.85-8.56,6.42-14.13,10.1-20.82
			C421.36,489.51,421.82,484.08,420.11,478.89z M383.38,473.99c-0.2,0-0.4,0.01-0.6,0.03c0.51-0.54,1.06-1.04,1.66-1.5
			C384.06,473,383.71,473.49,383.38,473.99z M520.02,220.23c3.97-8.5-4.5-17.26-13.14-19.21c-9.08-2.05-19.23,2.6-20.43,11.73
			c-2.44-1.62-5.48-2.19-8.48-1.24c-3.14,0.99-5.46,3.71-5.39,6.74c-5.49-5.55-14.58,1.64-12.83,9.27c1.11,4.8,5.37,7.96,10,8.97
			c6.6,1.44,13.99,0.93,20.71,1.21c7.51,0.31,15.03,0.72,22.54,0.91c5.2,0.13,11.03-0.32,14.51-4.74
			C532.9,227.01,526.95,220.55,520.02,220.23z M497.72,204.78c-0.58,0.16-1.16,0.38-1.71,0.67c-0.78,0.16-1.54,0.41-2.26,0.75
			c1.27-0.88,2.75-1.53,4.31-1.96C497.94,204.42,497.82,204.6,497.72,204.78z M440.11,502.24c6.5-3.08,12.58-7.73,18.5-11.98
			c-0.49,6.22,2.92,12.15,8.28,15.44c7.05,4.33,15.88,3.26,23.24,0.39c1.49-0.58,1.27-2.64-0.24-3.01c-4.3-1.05-6.25-5.18-8.82-8.36
			c-1.72-2.13-3.69-3.97-6-5.44c-3.21-2.04-6.88-3.29-10.57-3.19c2.01-1.43,4.01-2.87,5.99-4.32c3.1-2.28,6.84-4.42,9.22-7.49
			c0.21,0.25,0.42,0.5,0.64,0.75c6.7,7.43,14.79,4.51,21.86-0.72c0.71-0.53,0.84-1.43,0.39-2.17c-0.65-1.09-1.31-2.23-1.98-3.39
			c1.04-0.54,2.01-1.29,3.01-1.9c2.06-1.27,4.18-2.5,6.15-3.91c1.54-1.11-0.04-3.18-1.63-2.36c-2.16,1.12-4.21,2.45-6.28,3.72
			c-0.96,0.59-1.95,1.09-2.83,1.71c-1.24-2.13-2.55-4.27-3.97-6.28c1.42-1.04,2.83-2.08,4.31-3.04c1.75-1.14,3.71-2.08,5.3-3.43
			c1.07-0.91,0.28-2.6-1.13-2.21c-3.66,1.02-7.35,3.75-10.36,6.18c-0.95-1.17-1.95-2.26-3.01-3.24c-0.34-0.51-1.19-0.57-1.73-0.26
			c-0.44-0.24-1-0.3-1.47-0.02c-3.91,2.33-8.46,6.57-9.89,11.03c-0.93,2.87-0.16,5.47,1.34,7.79c-3.08,1.29-5.63,3.68-8.32,5.65
			c-3.49,2.55-6.99,5.08-10.53,7.56c-6.74,4.74-14.39,8.85-20.69,14.13C437.84,500.76,438.64,502.93,440.11,502.24z M471.51,500.71
			c0.25,0.3,0.52,0.59,0.78,0.88c-0.33-0.11-0.66-0.23-0.98-0.37C471.4,501.06,471.46,500.89,471.51,500.71z M416.5,449.87
			c-4.51,0.56-8.94,0.32-13.15-0.61c-0.27-0.22-0.6-0.38-0.99-0.4c-0.31-0.02-0.63-0.05-0.94-0.08
			c-13.64-3.76-24.55-14.84-27.44-29.3l1.17,0c1.83,0.01,4.97,0.79,6.23-0.93c0.08-0.11,0.12-0.23,0.14-0.36
			c0.11-0.12,0.19-0.27,0.23-0.46c0.44-2.27-1.9-4.35-3.08-6.1c-2.05-3.04-4.04-6.12-5.95-9.24c-3.83-6.25-7.38-12.67-10.67-19.22
			c-0.4-0.8-1.63-0.74-2.04,0c-3.21,5.72-6.5,11.39-9.88,17.01c-2.82,4.68-6,9.25-8.72,14.01c-0.38,0.31-0.61,0.76-0.68,1.22
			c-0.28,0.52-0.57,1.04-0.84,1.56c-0.12,0.24-0.13,0.49-0.06,0.72c-0.28,0.62,0.03,1.5,0.94,1.55c2.98,0.16,5.97,0.22,8.97,0.24
			c1.74,12.08,11.46,22.53,21.83,28.16c13.78,7.48,30.22,7.69,45.24,4.56C418.1,451.92,417.84,449.7,416.5,449.87z M373.2,445.81
			c-0.93-0.49-1.83-1.02-2.71-1.57c0.8,0.4,1.61,0.78,2.43,1.14c0.39,0.3,0.78,0.59,1.17,0.87
			C373.8,446.11,373.5,445.97,373.2,445.81z M440.99,405.56c0.04-0.44-0.18-0.89-0.77-1.08c-2.09-0.7-4.53-0.19-6.84,0.11
			c-8.58-26.12-36.4-41.42-63.31-34.25c-1.51,0.4-0.83,2.49,0.63,2.28c9.62-1.41,19.18,2.71,25.94,9.46
			c6.24,6.22,9.47,13.85,12.53,21.84c-2.66-0.09-5.31-0.1-7.93,0.07c-0.8,0.05-1.2,1.1-0.77,1.62c0.21,2.7,2.2,5.09,3.53,7.4
			c1.76,3.05,3.56,6.08,5.38,9.09c1.72,2.83,3.46,5.65,5.23,8.46c1.78,2.82,3.42,6.01,5.73,8.44c0.41,0.43,0.89,0.37,1.21,0.08
			c0.37,0.18,0.83,0.15,1.22-0.25c4.09-4.23,7.05-10.42,9.94-15.51c3.07-5.4,6.22-10.98,8.46-16.78
			C441.33,406.15,441.22,405.8,440.99,405.56z M404.73,388.44c0.3,0.4,0.61,0.8,0.91,1.21c0.23,0.47,0.46,0.94,0.7,1.41
			C405.82,390.17,405.29,389.29,404.73,388.44z M325.52,190.07c-2.37-6.03-7.75-14.89-15.54-12.61c-3.63,1.06-6.05,4.1-8.01,7.16
			c-2.82,4.41-5.6,8.92-8.03,13.56c-0.22,0.41-0.13,0.79,0.09,1.05c0.06,0.15,0.16,0.29,0.33,0.38c3.27,1.69,6.6,3.26,9.83,5.03
			c2.93,1.6,5.68,3.69,8.76,4.97c0.28,0.11,0.53,0.06,0.73-0.08c0.19-0.01,0.38-0.1,0.54-0.3c4.18-5.22,8.37-11.17,11.48-17.09
			c0.23-0.44,0.1-0.92-0.19-1.25C325.62,190.67,325.64,190.4,325.52,190.07z M295.99,198.51c0.1-0.15,0.2-0.31,0.3-0.46
			c0.05,0.24,0.14,0.48,0.29,0.69C296.38,198.67,296.19,198.59,295.99,198.51z M314.19,180.19c-0.28-0.26-0.56-0.42-0.85-0.51
			c0.4,0.08,0.79,0.19,1.17,0.34C314.4,180.07,314.29,180.12,314.19,180.19z M330.87,203.67c-0.57,0.48-0.29,1.28,0.24,1.61
			c0.12,0.25,0.36,0.44,0.74,0.46c6.77,0.35,13.63-0.12,20.39-0.45c0.57-0.03,0.92-0.39,1.04-0.82c0.04-0.03,0.08-0.05,0.11-0.08
			c2-2.24,3.57-4.8,5.06-7.4c1.46-2.53,3.17-5.26,3.85-8.11c0.05-0.2,0.02-0.38-0.04-0.53c0.6-0.58,0.2-1.91-0.76-1.52
			c-1.84,0.74-3.64,1.63-5.43,2.58c-1.94-3.41-4.01-6.78-6.12-10.08c-1.35-2.11-2.83-3.77-5.36-4.37
			c-3.15-0.74-6.83-0.26-10.02-0.17c-4.48,0.13-9,0.33-13.44,0.89c-0.26,0.03-0.46,0.15-0.61,0.3c-0.48,0.12-0.82,0.75-0.39,1.25
			c3.19,3.74,6.22,7.66,8.83,11.83c2.42,3.87,4.1,8,6.18,12.01C333.64,201.83,332.11,202.62,330.87,203.67z M359.67,190.17
			c-0.16,0.29-0.3,0.58-0.45,0.87c-0.07-0.15-0.15-0.3-0.26-0.42C359.19,190.46,359.43,190.32,359.67,190.17z M297.83,235.63
			c0.28,0.37,0.87,0.55,1.26,0.14c2.66-2.78,4.74-6.15,6.24-9.7c1.2,0.7,2.41,1.38,3.64,2.03c0.84,0.44,1.51-0.4,1.25-1.09
			c0.09-0.23,0.09-0.49-0.05-0.77c-2.65-5.36-5.2-10.77-7.93-16.09c-0.14-0.27-0.41-0.36-0.67-0.33c-0.05-0.01-0.09-0.04-0.15-0.05
			c-5.45-0.73-11.22-0.77-16.83-0.66c-0.02-0.01-0.04-0.01-0.05-0.02c-0.37-0.12-0.68-0.09-0.94,0.04c-1.1,0.02-2.2,0.05-3.29,0.08
			c-0.89,0.02-0.88,1.23-0.08,1.38c0.52,1.25,2.04,1.71,3.18,2.37c0.51,0.29,1.01,0.59,1.52,0.88c-2.33,3.41-5.33,7.67-5.54,11.71
			c-0.2,3.77,2.82,7.66,5.27,10.25c0.38,0.4,0.9,0.26,1.18-0.08C289.6,236.43,294.19,236.88,297.83,235.63z M301.32,229.28
			c-0.62,1.11-1.3,2.19-2,3.26c0-0.05-0.01-0.1-0.01-0.16C300.01,231.37,300.67,230.33,301.32,229.28z M281.43,225.31
			c0.01,0.04,0.01,0.08,0.02,0.11c0.08,0.79,0.19,1.7,0.38,2.59C281.53,227.17,281.38,226.27,281.43,225.31z M323.48,240.05
			c-1.16-1.17-3.86-0.5-5.3-0.5c-3.44,0-6.88-0.01-10.32-0.01c-1.54,0-3.08-0.01-4.62-0.03c-0.33-0.04-0.66-0.07-1-0.11
			c-0.26-0.03-0.48,0.01-0.69,0.09c-5.01-0.04-10.03-0.06-15.02,0.27c-0.11,0.01-0.21,0.04-0.29,0.08c-0.17,0.05-0.3,0.18-0.31,0.35
			c-0.11,0.3-0.01,0.66,0.3,0.83c2.88,6.83,7.01,13.96,11.51,19.79c0.07,0.09,0.14,0.15,0.22,0.21c0.04,0.21,0.19,0.38,0.48,0.42
			c7.97,1.11,16.35,0.57,24.4,0.68c0.21,0,0.38-0.05,0.52-0.13c0.3,0.01,0.6-0.13,0.65-0.5c1.06-6.69,1.63-14.18,0.88-20.92
			C324.82,239.73,323.9,239.55,323.48,240.05z M306.73,259.67c0.05-0.04,0.09-0.09,0.13-0.13c0.38,0.02,0.77,0.03,1.15,0.04
			c0,0.03,0,0.06,0.01,0.09C307.58,259.66,307.15,259.67,306.73,259.67z M322.66,260.09c-0.1,0-0.2-0.01-0.3-0.01
			c0.07-0.13,0.13-0.27,0.17-0.42c0.05-0.24,0.09-0.49,0.14-0.73C322.67,259.32,322.67,259.71,322.66,260.09z M370.58,238.57
			c-2.66,4.95-5.5,9.8-8.41,14.6c-1.8,2.97-3.66,8.16-7.37,9.12c-0.26,0.07-0.45-0.03-0.55-0.19c-2,0.27-4.12,0.05-6.12,0.03
			c-1.99-0.01-4.24,0.35-6.03-0.61c-0.02-0.01-0.03-0.03-0.04-0.04c-0.08,2.35-0.24,4.69-0.61,6.97c0.45,0.28,0.24,0.85-0.17,0.98
			c-0.09,0.28-0.32,0.4-0.57,0.4c0,0.02,0,0.03,0,0.05c-0.01,0.51-0.69,0.86-1.06,0.44c-0.67-0.77-1.05-1.67-1.26-2.67
			c-0.02-0.09-0.01-0.17,0.02-0.24c-0.9-1.44-1.45-3.32-2.09-4.61c-1.94-3.89-4.42-7.55-6.22-11.49c-0.22-0.49,0.14-1.06,0.58-1.16
			c0.15-0.23,0.36-0.65,0.6-1.18c-0.09-0.36-0.05-0.75,0.21-1.1l0.67-0.91c1.01-2.4,2.14-5.27,2.39-5.75
			c1.52-2.87,3.11-5.91,5.27-8.34c0.37-0.42,0.86-0.31,1.16,0c0.36,0.04,0.7,0.3,0.76,0.77c0.22,1.8,0.34,3.63,0.41,5.47
			c0.11,0.02,0.23,0.05,0.34,0.07c1.22-0.15,2.8-0.19,3.02-0.19c2.69-0.05,5.39-0.06,8.08-0.08c2.69-0.03,5.38-0.05,8.08-0.07
			c2.59-0.02,5.34,0.31,7.53-1.33c0.16-0.12,0.33-0.15,0.48-0.12C370.26,237.25,370.96,237.88,370.58,238.57z M374.57,229.35
			c-2.63,7.87-11.59,9.11-18.72,6.76c-0.15-0.05-0.26-0.15-0.32-0.27c-0.06-0.04-0.13-0.08-0.18-0.16
			c-4.5-5.62-5.69-13.11-10.23-18.76c-0.25-0.31-0.18-0.67,0.02-0.89c-0.12-0.28-0.08-0.64,0.26-0.88
			c5.34-3.83,11.48-7.96,17.49-10.62c0.06-0.03,0.12-0.04,0.18-0.05c0.39-0.24,0.94-0.22,1.25,0.29c2.86,4.79,5.72,9.57,8.57,14.36
			C374.96,222.61,375.91,225.31,374.57,229.35z M456.95,563.49c-3.17-10.39-7.6-20.37-12.42-30.09
			c-4.51-9.09-9.16-18.24-16.72-25.21c-0.94-0.86-2.27,0.27-1.81,1.23c-0.27,0.19-0.46,0.5-0.42,0.96
			c0.92,12.8-4.79,23.64-11.06,34.28c-0.43,0.67-0.87,1.32-1.29,1.99c-0.12,0.19-0.19,0.38-0.23,0.57
			c-3.35,5.62-6.71,11.23-9.2,17.08c-3.69,8.68-5.16,17.98-3.9,27.35c1.04,7.71,3.76,17.08,9.9,22.36
			c6.19,5.32,16.12,7.3,24.07,7.14c7.63-0.15,15.35-2.84,20.7-8.45C466.5,600.2,461.41,578.14,456.95,563.49z M446.92,544.23
			c-0.15-0.18-0.31-0.36-0.47-0.54c-0.19-0.7-0.45-1.41-0.74-2.1C446.13,542.47,446.53,543.35,446.92,544.23z M425.17,529.09
			c0.01,0.17,0.03,0.33,0.08,0.46c-0.17,0.22-0.35,0.45-0.52,0.67C424.88,529.84,425.03,529.47,425.17,529.09z M419.43,596.98
			c-0.04-0.33-0.09-0.65-0.13-0.98c0.07,0.06,0.13,0.11,0.2,0.17c0.04,0.31,0.08,0.63,0.12,0.94
			C419.56,597.06,419.49,597.02,419.43,596.98z M451.05,600.22c-1.94,3.52-6.5,6.64-10.39,4c-7.31-4.95,1.92-15.7,4.5-21.02
			c2.09-4.3,3.53-8.83,3.39-13.5c3.24,5.5,4.06,12.88,4.3,18.93C453,592.49,452.96,596.76,451.05,600.22z M455.09,566.9
			c0.06-0.07,0.13-0.15,0.18-0.23c0.35,1.23,0.68,2.47,0.98,3.71C455.84,569.2,455.45,568.04,455.09,566.9z M560.07,384.6
			c-1.61,1.51-5.28,1.19-7.29,1.42c-0.61,0.07-1.14-0.57-1.14-1.13c0.05-17.33-1.56-34.64-4.93-51.64
			c-1.52-7.71-3.51-15.23-5.74-22.67c0.75,3.76,1.46,7.52,2.14,11.27c1.18,6.47,2.21,12.97,3.1,19.49c0.83,6.1,2.05,12.4,2.08,18.55
			c0,0.28-0.12,0.5-0.29,0.66c0.3,0.56-0.23,1.44-0.96,1.23c-19.98-5.78-40.12-25.34-41.54-46.92
			c-1.46-22.14,21.6-44.16,10.17-65.99c-0.67-1.28,1.01-2.6,2.04-1.53c9.82,10.11,20.77,18.31,32.36,26.25
			c16.47,11.28,29.74,28.07,30.42,48.76c0.29,8.89-1.84,18.16-7.02,25.49c-2.45,3.46-5.52,6.53-9.22,8.63
			c-1.5,0.85-4.06,2.38-6.15,2.37c1.1,6.67,1.96,13.37,2.52,20.11C560.77,380.63,561.51,383.25,560.07,384.6z M423.1,348.11
			c-0.53-0.28-1.1-0.36-1.69-0.29c-15.09-1.29-13.61,21.63-2.98,22.99c0.16,0.1,0.35,0.17,0.57,0.2c6.21,0.65,12.46-4.03,13.1-10.38
			C432.67,354.98,428.52,349.46,423.1,348.11z M423.74,361.24c-0.09,0.17-0.18,0.34-0.25,0.51c-0.21,0.37-0.48,0.72-0.82,1
			c-0.24-0.14-0.53-0.21-0.87-0.15c-1.85,0.32-3.8-0.81-4.23-2.71c-0.41-1.8,1.06-3.27,2.72-3.64
			C423.45,355.54,424.71,358.83,423.74,361.24z M475.81,348.11c-0.53-0.28-1.1-0.36-1.69-0.29c-15.09-1.29-13.61,21.63-2.98,22.99
			c0.16,0.1,0.35,0.17,0.57,0.2c6.21,0.65,12.46-4.03,13.1-10.38C485.38,354.98,481.23,349.46,475.81,348.11z M476.44,361.24
			c-0.09,0.17-0.18,0.34-0.25,0.51c-0.21,0.37-0.48,0.72-0.82,1c-0.24-0.14-0.53-0.21-0.87-0.15c-1.85,0.32-3.8-0.81-4.23-2.71
			c-0.41-1.8,1.06-3.27,2.72-3.64C476.15,355.54,477.42,358.83,476.44,361.24z M493.97,339.42c-3.77-4.18-10.09-7.25-15.73-5.8
			c-4.5-11.49-15.51-18.17-27.5-20.74c2.36-0.98,4.63-2.23,6.85-3.74c6.72-4.57,13.44-10.63,22.22-9.01
			c1.19,0.22,1.93-0.89,1.76-1.77c0.31-0.29,0.5-0.73,0.41-1.23c-1.23-6.91-6.96-13.79-12.18-18.19c-6.1-5.15-13.58-8.38-21.5-9.36
			c-13.17-1.63-35.13,4.24-33.03,21.47c0.14,1.16,1.66,1.35,2.03,0.42c0.1,0.4,0.42,0.76,0.89,0.79c7.16,0.35,14.32-0.36,21.51,0.19
			c5.17,0.4,10.12,1.14,15.07,2.21c-22.27-0.9-45.04-1.02-66.68,4.71c-0.67,0.18-0.97,0.85-0.85,1.49c0.35,1.76,0.93,2.76,2.19,4.02
			c0.4,0.4,0.97,0.25,1.25-0.12c3.86,0.37,8.19-1.46,11.99-2.12c4.55-0.79,9.13-1.25,13.73-1.5c0.05,6.33,4.46,10.06,9.97,12.07
			c-8.81,2.3-16.8,7.36-21.78,15.13c-5.74,8.96-7.9,21.35-5.95,31.77c0.1,0.56,0.49,0.84,0.92,0.9c0.22,0.35,0.6,0.61,1.16,0.65
			c1.6,0.12,3.22,0.09,4.83,0.09c1.23,0,1.69-1.2,1.37-2.1c0.93-4.22,1.57-7.96,5.36-10.72c2.78-2.02,6.17-3.2,9.6-3.26
			c7.93-0.15,14.54,6.49,13.27,14.55c-0.13,0.81,0.39,1.4,1,1.62c0.22,0.44,0.63,0.75,1.21,0.69c6.66-0.73,13.45-0.18,20.04-0.96
			c0.26-0.03,0.48-0.13,0.67-0.28c0.63,0.07,1.33-0.31,1.26-1.08c-0.82-8.51,6.05-14.15,14.06-14.72c4.49-0.32,8.72,0.82,11.12,4.88
			c1.95,3.3,1.9,7.02,2.62,10.66c0.07,0.35,0.25,0.59,0.47,0.74c0.09,0.51,0.47,0.97,1.18,1.03c3.15,0.29,6.31,0.24,9.47,0.25
			c0.88,0,1.48-0.71,1.54-1.54C500.38,353.84,499.35,345.38,493.97,339.42z M437.87,335.24c-4.3-0.02-8.6-0.06-12.9-0.06
			c-4.28-0.01-9.34-0.66-13.6,0.36c0.78-1.6,1.64-3.09,2.64-4.49c1.51-1.14,2.8-2.54,3.84-4.18c0.84-0.71,1.75-1.39,2.75-2.01
			c5.16-3.21,11.29-4.57,17.32-4.94C437.62,324.9,437.42,330.23,437.87,335.24z M440.96,335.26c0.21-5.06-0.29-10.43-0.87-15.43
			c0.05,0,0.11,0,0.16-0.01c13.37-0.29,23.37,5.28,30.92,15.62C461.11,335.19,451.02,335.3,440.96,335.26z M841.41,699.05
			c-82.54-5.53-282.45-4.07-365.17-2.66c-10.62,0.18-21.23,0.42-31.84,0.71c-3.75,0.1-8.05-0.35-11.88,0.1
			c-0.06-0.52-0.1-0.93-0.11-1.06c-0.63-10.24-1.33-20.49-1.79-30.75c-0.07-1.46,0.21-3.23,0.01-4.68c0.01-0.12,0.02-0.26,0.04-0.44
			c0.04-0.07,0.08-0.14,0.12-0.21c0.27-0.16,0.54-0.31,0.81-0.45c-1.07,0.61,2.23-0.59,2.94-0.74c0.44-0.1,2.04-0.33,2.27-0.38
			c1.34-0.14,2.68-0.25,4.02-0.35c4.16-0.33,8.29-0.69,12.42-1.27c7.68-1.09,14.69-3.63,20.77-8.56c12.34-10,14.98-26.6,15.93-41.53
			c1.02-16.02,1.5-31.16,7.97-46.22c6.91-16.09,18.6-28.91,30.87-41.09c12.06-11.98,24.24-23.67,34.73-37.09
			c10.56-13.52,19.91-27.84,27.56-43.22c30.39-61.14,35-132.88,4.68-194.96c-30.67-62.8-92.4-106.73-160.91-118.46
			c-70-11.98-143.68,7.24-196.83,54.98c-52.07,46.78-77.75,120.32-62.94,189.08c8.53,39.61,20.5,60.6,44.56,94.28
			c10.6,14.83,22.09,29.03,34,42.82c5.67,6.56,11.43,13.03,17.24,19.46c5.61,6.21,11.38,12.28,15.57,19.58
			c8.84,15.39,5.02,34.41,5.47,51.32c0.42,15.98,4.64,31.84,14.89,44.37c5.05,6.17,11.98,10.81,19.61,13.15
			c7.14,2.19,14.77,1.76,22.14,1.87c1.63,0.02,3.28,0.05,4.91,0.21c0.74,0.16,1.46,0.38,2.2,0.54c0.08,0.48,0.22,1.45,0.23,1.32
			c-0.23,2.78,0.54,8.44,0.64,12.17c0.13,5.07,0.09,10.14-0.12,15.2c-0.05,1.11,0.04,7.1-0.47,10.12c-1.55-0.11-2.62,0.69-4.22,0.82
			c-10.1,0.83-20.23,1.35-30.35,1.94c-20.81,1.21-80.4-2.15-101.23-1.41c-20.47,0.73-40.94,1.23-61.42,1.5
			c-5.12,0.07-10.24,0.12-15.36,0.16c-1.13,0.01-2.34-0.07-3.53-0.09c-0.25-4.1-0.99-9.98-1.04-10.91c-0.31-5.5-0.62-11-0.93-16.5
			c-0.84-14.95-1.85-29.87-2.99-44.78c12.81-3.68,22.48-14.36,26.12-27.82c12.08-7.42,21.35-18.79,25.19-33.19
			c2.87-10.73,3.36-22.68,2.76-33.74c-0.84-15.31-12.51-21.31-26.21-20.55c0.19-5.17-0.08-10.39-0.16-15.14
			c-0.16-10.43,0.97-21.2,0.13-31.58c-0.52-6.43-4.54-11.96-11.27-12.76c-5.81-0.69-13.23,2.84-14.26,9.31
			c-1.77,11.12-1.2,22.72-0.74,33.95c0.22,5.38,0.34,11.91,1.3,18.13c-5.86-0.08-11.71-0.48-17.56-0.86
			c-3.8-0.25-7.6-0.43-11.39-0.51c0.05-6.63-0.53-13.39-0.42-19.44c0.1-5.71,0.28-11.43,0.55-17.14c0.14-2.84,0.5-5.72,0.51-8.56
			c0-4.78-1.69-7.93-4.71-11.51c-4.28-5.08-12.16-3.89-16.61,0c-5.88,5.14-5.34,12.88-5.69,20.07c-0.29,6.07-0.42,12.14-0.36,18.21
			c0.06,6.43-0.1,13.55,0.64,20.44c-1.37,0.29-2.74,0.6-4.1,0.95c-3.56,0.93-6,2.85-7.47,5.24c-6.03,4.79-5.98,13.1-6.36,20.16
			c-0.32,6.17-0.21,12.28,0.55,18.41c1.49,11.83,5.42,22.84,13.04,32.14c3.56,4.34,7.78,7.8,12.43,10.48
			c0.21,3.77,1.46,7.6,3.59,10.87c3.59,5.52,8.88,9.75,14.85,12.44c0.58,16.33,1.33,32.65,2.25,48.98
			c0.58,10.29,0.71,20.72,1.89,30.95c1.44,12.47,9.99,19.86,22.34,20.78c10.11,0.75,20.56-0.06,30.69-0.22
			c10.6-0.17,21.21-0.41,31.81-0.7c20.84-0.58,42.67-1.39,63.49-2.44c10.23-0.51,58.22,3.25,68.44,2.62
			c10.08-0.62,20.76-0.44,30.66-2.59c9.93-2.15,17.84-8.96,20.39-18.96c2.52-9.87,2.04-21.29,1.84-31.39
			c-0.2-9.57,0.15-20.79-5.25-29.12c-5.05-7.8-13.32-11.19-22.21-12.24c-3.31-0.39-6.6-0.45-9.93-0.45c-1.72,0-3.44,0.02-5.15-0.02
			c-1.32-0.03-4.6-0.24-4.65-0.25c-3.6-0.62-7.61-3.28-9.91-6.57c-3.98-5.69-5.56-10.62-6.9-17.92c-0.35-1.89-0.6-5.63-0.67-9.13
			c-0.09-4.6,0.05-9.2,0.15-13.79c0.46-20.08-1.2-39.44-13.34-56.23c-10.7-14.79-24.01-27.73-35.86-41.6
			c-11.18-13.09-21.91-26.55-31.62-40.77c-19.17-28.09-35.05-59.58-39.36-93.71c-4.03-31.85,1.88-65.12,15.78-94
			c28.76-59.73,89.62-99.4,155.08-106.47c68.85-7.44,139.23,18.61,182.5,73.53c19.52,24.78,32.64,54.72,37.11,85.96
			c4.47,31.22-0.05,63.55-10.58,93.38c-10.8,30.6-28.66,58.57-51.31,81.74c-12.84,13.14-26.51,25.36-37.73,39.98
			c-11.42,14.88-19.6,32.36-22.89,50.9c-2.67,15.03-0.94,31.63-4.59,44.82c-0.25,0.89-0.52,1.78-0.82,2.65c0,0-0.21,0.53-0.36,0.9
			c-0.18,0.35-0.45,0.89-0.45,0.89c-0.35,0.62-0.71,1.26-1.1,1.86c0.1-0.27-1.58,1.77-2.01,2.14c-1.15,0.98-0.19,0.12,0.02-0.03
			c-0.19,0.13-1.7,0.93-2.19,1.22c-0.69,0.19-2.7,0.82-3.21,0.94c-1.15,0.27-2.31,0.49-3.48,0.66c0.09-0.05-2.64,0.24-3.15,0.28
			c-1.83,0.16-3.65,0.29-5.48,0.45c-7.46,0.67-14.97,1.54-21.61,5.29c-7.96,4.49-12.39,12.72-13.25,21.62
			c-0.96,10,0.81,20.62,1.42,30.63c0.61,10.12-0.05,21.2,8.1,28.59c7.86,7.12,19.47,5.37,29.19,5.13
			c10.61-0.27,21.23-0.48,31.84-0.63c20.87-0.31,41.73-0.4,62.6-0.29c41.64,0.23,200.68-4.27,242.26-1.8
			c20.47,1.22,40.95,2.31,61.41,3.58c6.76,0.42,12.53-6.06,12.53-12.53C853.94,704.42,848.19,699.5,841.41,699.05z M136.02,699.11
			c0,0.05,0.07,0.15,0.2,0.3C131.7,700.02,136.02,699.1,136.02,699.11z"/>
	</g>
</g>
</svg>
