<?xml version="1.0" encoding="utf-8"?>
<!-- Generator: Adobe Illustrator 27.9.0, SVG Export Plug-In . SVG Version: 6.00 Build 0)  -->
<svg version="1.1" id="Layer_1" xmlns="http://www.w3.org/2000/svg" xmlns:xlink="http://www.w3.org/1999/xlink" x="0px" y="0px"
	 viewBox="0 0 500 500" style="enable-background:new 0 0 500 500;" xml:space="preserve">
<style type="text/css">
	.st0{fill:#FFFFFF;}
	.st1{fill:#9B8770;}
	.st2{fill:#737E8D;}
	.st3{fill:url(#SVGID_1_);}
	.st4{fill:#596876;}
	.st5{fill:#DFE3E7;}
	.st6{fill:#FF9640;}
	.st7{fill:#BC3A00;}
	.st8{fill:#A3ACB2;}
	.st9{fill:#A5B3BF;}
	.st10{fill:#46535E;}
	.st11{fill:#9DAF35;}
	.st12{fill:#C8D1DD;}
	.st13{fill:#C0D369;}
	.st14{fill:#E06C00;}
	.st15{fill:#717F90;}
	.st16{fill:url(#SVGID_00000144308387618288821840000014888196628522547879_);}
	.st17{fill:url(#SVGID_00000098191914517136552410000002859096744537413253_);}
	.st18{fill:#F4F5F6;}
	.st19{fill:#283C48;}
	.st20{fill:url(#SVGID_00000067226111724831832140000007073356980699972482_);}
	.st21{fill:url(#SVGID_00000042726072412197570010000000691601933617435034_);}
	.st22{fill:#6B9A55;}
	.st23{fill:#424C56;}
	.st24{fill:#5B626B;}
	.st25{fill:#EBFF91;}
	.st26{fill:#090000;}
	.st27{fill:url(#SVGID_00000057122061616818407480000014569486922251712409_);}
	.st28{fill:url(#SVGID_00000090985067525399410570000014022086319511247039_);}
	.st29{fill:url(#SVGID_00000028322625213378881570000001616169809518247093_);}
	.st30{fill:url(#SVGID_00000079447032052423278270000009883089632451603598_);}
	.st31{fill:#566370;}
	.st32{fill:#FAF1D2;}
	.st33{opacity:0.4;fill:#9B8770;}
	.st34{fill:#121E25;}
	.st35{fill:#9EAD56;}
	.st36{fill:#557A4C;}
	.st37{fill:#353232;}
	.st38{fill:#F9D67A;}
	.st39{fill:#F6BA28;}
	.st40{fill:#D5381D;}
	.st41{fill:#BE5A54;}
	.st42{fill:#8E3F3D;}
	.st43{filter:url(#Adobe_OpacityMaskFilter);}
	.st44{filter:url(#Adobe_OpacityMaskFilter_00000006695253859097190630000003341350429002161338_);}
	
		.st45{mask:url(#SVGID_00000147193462185120673170000007411547707983324600_);fill:url(#SVGID_00000008135763741234202740000006129264568170016436_);}
	.st46{fill:url(#SVGID_00000155147369415811831020000013670712227727382667_);}
	.st47{filter:url(#Adobe_OpacityMaskFilter_00000029025435040281128490000003319212033045924531_);}
	.st48{filter:url(#Adobe_OpacityMaskFilter_00000004510259715894283000000006177588537034559382_);}
	
		.st49{mask:url(#SVGID_00000082361325097786671420000009646239638722474430_);fill:url(#SVGID_00000060715208805891107550000010089020413787645354_);}
	.st50{fill:url(#SVGID_00000080167221759674954570000003967283041822388895_);}
</style>
<rect class="st0" width="500" height="500"/>
<g>
	<path class="st1" d="M41.36,301.91l11.85,4.63l31.55,5.66l99.92,57.58l8.51,19.79c17.9,12.93,63.42-8.26,77.52-16.4l76.88-45.53
		c11.35-6.55-1.98-24.8-13.33-31.35L175.31,194.77c-14.1-8.14-76.1,44.25-90.2,52.39l-43.76,25.26
		C30.01,278.98,30.01,295.36,41.36,301.91z"/>
	<path class="st2" d="M176.49,272.28c-8.09-4.34-19.66-11.12-32.32-18.8c-1.78-1.09-3.6-2.21-5.43-3.33
		c-3.54-2.15-7.12-4.36-10.71-6.59c-0.9-0.56-1.82-1.12-2.72-1.69c-1.55-0.96-3.09-1.93-4.63-2.88c-1.84-1.16-3.67-2.3-5.49-3.45
		c-6.16-3.86-12.15-7.66-17.72-11.24c-0.94-0.58-1.85-1.16-2.75-1.74c-8.91-5.73-16.56-10.73-21.76-14.25l0.04-0.17
		c1.09-4.7,2.88-11.61,4.64-16.56c3.24,1.95,6.95,4.16,10.94,6.48c0.88,0.52,1.78,1.05,2.7,1.59c5.52,3.22,11.5,6.67,17.44,10.06
		c1.8,1.03,3.61,2.06,5.41,3.07c1.52,0.86,3.03,1.7,4.51,2.53c0.9,0.52,1.82,1.03,2.7,1.54c3.69,2.06,7.23,4.01,10.49,5.79
		c1.87,1.01,3.65,1.97,5.32,2.85c1.25,0.67,2.45,1.29,3.58,1.87c1.72,0.88,3.28,2.1,4.61,3.48c2.64,2.72,2.14,3.18,17.55,23.67
		C167.43,260.54,172.18,266.75,176.49,272.28z"/>
	<linearGradient id="SVGID_1_" gradientUnits="userSpaceOnUse" x1="156.8196" y1="233.5739" x2="273.055" y2="233.5739">
		<stop  offset="0" style="stop-color:#424C56"/>
		<stop  offset="1" style="stop-color:#121E25"/>
	</linearGradient>
	<path class="st3" d="M272.84,243.53c0.52,2.29,0.16,3.46-1.59,5.38c-1.44,1.57-3.76,3.48-7.12,5.83
		c-10.02,7.02-40.27,25.03-52.58,28.45c-5.15,1.42-6.86,0.62-13.55-0.85l-0.14,0.1c-9.11-12.66-21.51-29.97-29.16-40.84
		c-7.66-10.89-10.29-14.95-11.89-17.77c15.98-8.84,58.35-33.16,70.37-40.62c2.98,2.01,6.27,5.11,15.02,16.49
		c8.19,10.67,20.78,28.11,29.37,40.67L272.84,243.53z"/>
	<path class="st4" d="M186.55,340.5c-1.16-0.22-2.25-0.27-3.27-0.18l4.6-2.65c0.67,0.2,1.37,0.46,2.08,0.76
		c12.83,5.42,24.69,23.75,24.69,39.19c0.01,9.15-4.38,15.21-11.39,15.55c-2.25,0.12-4.77-0.36-7.5-1.52
		c-4.02-1.69-7.44-4.34-10.46-7.4c-5.88-5.97-10.59-13.89-12.85-22.2c-1.27-4.67-1.93-10.22-0.82-15.01l4.66-2.69
		c-0.56,0.78-1.03,1.67-1.42,2.64c-1.85,4.66-1.28,10.59,0.03,15.42c1.98,7.3,6.13,14.28,11.3,19.52c2.66,2.69,5.67,5.02,9.21,6.52
		c7.37,3.11,13.01,0.63,15.38-5.26c0.05-0.13,0.1-0.26,0.15-0.39c0.71-1.91,1.09-4.16,1.08-6.69c0-3.8-0.82-7.81-2.25-11.71
		c0-0.01-0.01-0.03-0.01-0.04c-0.36-0.98-0.76-1.95-1.19-2.91c-0.46-1.01-0.96-2.03-1.5-3.01c-0.05-0.1-0.11-0.21-0.17-0.31
		c-0.54-0.99-1.12-1.95-1.73-2.9v-0.01h-0.01c-0.14-0.22-0.29-0.45-0.44-0.67c-0.63-0.94-1.3-1.86-1.99-2.74
		c-0.33-0.43-0.67-0.84-1.01-1.26c-0.01-0.01-0.01-0.01-0.02-0.02c-3.39-4-7.34-7.18-11.4-8.89c-1.31-0.55-2.56-0.93-3.74-1.14
		C186.55,340.5,186.55,340.5,186.55,340.5z"/>
	<path class="st5" d="M33.96,227.97c1.08-3.25,2.25-5.76,4.14-8.51c-1.02,1.73-1.81,3.69-1.91,5.65c-0.01,0.3-0.01,0.59,0.01,0.89
		c0.03,0.45,0.09,0.9,0.2,1.34c0.24,0.98,0.68,1.82,1.2,2.66c0.36,0.59,0.76,1.14,1.2,1.67c-2.14,2.39-3.26,5.99-3.95,9.12
		c-2.15,0.29-3.12,2.16-3.12,4.24c-0.16-4.27,0.21-8.92,1.1-13.21c0.04-0.16,0.07-0.32,0.11-0.49
		C33.26,230.08,33.81,228.42,33.96,227.97z"/>
	<path class="st6" d="M48.29,284.67c-0.32,0.67-0.63,1.36-0.96,2.03c-0.01,0.02-0.02,0.03-0.03,0.05c-0.41,0.88-2.12,1.02-3.08,0.07
		c-0.47-0.46-0.59-1-0.46-1.45c0.31-1.03,0.63-2.07,0.95-3.1c0.99,0.99,2.1,1.77,3.25,2.26C48.08,284.58,48.18,284.62,48.29,284.67z
		"/>
	<path class="st6" d="M203.59,355.31c0.38-0.26,0.76-0.5,1.14-0.76c0.15,0.22,0.3,0.45,0.44,0.67h0.01v0.01
		c0.61,0.95,1.18,1.91,1.73,2.9c0.06,0.1,0.12,0.21,0.17,0.31c-0.22,0.22-0.46,0.43-0.69,0.65c-0.01,0.01-0.02,0.01-0.03,0.03
		c-0.38,0.35-0.9,0.52-1.49,0.37c-0.63-0.16-1.18-0.65-1.55-1.2c-0.82-1.22-0.63-2.35,0.12-2.88
		C203.49,355.37,203.54,355.34,203.59,355.31z"/>
	<path class="st7" d="M196.15,354.03c-1.54-0.65-2.85-0.63-3.86-0.12c0.51-0.3,1.01-0.59,1.53-0.89h0.01v0.01c0,0,0,0,0.01,0
		c0.05,0.01,0.35-0.13,0.4-0.16c0.06-0.03,0.12-0.06,0.19-0.1c0.82-0.27,2.22-0.67,3.03-1.19c0.19-0.12,0.52-0.35,0.59-0.56
		c0.01-0.04,0.01-0.08-0.01-0.11c-0.03-0.05-0.05-0.09-0.07-0.14c0.07-0.08,0.16-0.16,0.24-0.22c-0.05,0.73-0.09,1.46-0.14,2.19
		c-0.04,0.73,1.34,1.3,2.27,1.43c0.5,0.07,1.06,0.05,1.53-0.14c0.64-0.26,0.95-0.77,0.92-1.27c-0.02-0.31-0.03-0.63-0.05-0.95
		c0.69,0.88,1.36,1.8,1.99,2.74c-0.38,0.26-0.76,0.5-1.14,0.76c-0.05,0.03-0.1,0.07-0.16,0.1c-0.75,0.52-0.95,1.66-0.12,2.88
		c0.37,0.55,0.93,1.03,1.55,1.2c0.58,0.15,1.11-0.01,1.49-0.37c0.01-0.01,0.02-0.02,0.03-0.03c0.23-0.22,0.46-0.44,0.69-0.65
		c0.54,0.99,1.03,2,1.5,3.01c-0.13-0.06-0.27-0.12-0.39-0.18c-0.04-0.02-0.07-0.04-0.12-0.05c-0.35-0.16-0.77-0.16-1.16,0.03
		c-1.46,0.7-1.71,3.56-0.79,4.25c0.08,0.05,0.16,0.1,0.24,0.12c0.01,0.01,0.03,0.01,0.05,0.01c1.05,0.32,2.12,0.63,3.17,0.95
		c-0.29,0.35-0.61,0.63-0.97,0.83l-0.03,0.02c-0.14-0.2-0.29-0.4-0.43-0.6c-0.12-0.14-0.41-0.16-0.78-0.01
		c-0.76,0.31-1.52,1.1-2.05,1.71c-0.1,0.12-0.97,1.15-0.87,1.22h-0.01l0.01,0.01c0.01,0.01,0.02,0.02,0.03,0.03
		c-0.77,0.44-1.54,0.88-2.31,1.33c1.21-0.78,1.93-2.37,1.92-4.46C204.1,361.7,200.3,355.78,196.15,354.03z"/>
	<path class="st8" d="M275.38,280.05c2.52-1.46,5.74-0.57,7.16,1.96l3.96,7.04c0.37,0.66,0.58,1.36,0.65,2.06
		c-0.44,0.92-1.15,1.72-2.1,2.27l-25.28,14.6c-2.51,1.46-5.73,0.57-7.15-1.96l-3.96-7.04c-0.37-0.66-0.58-1.36-0.65-2.06
		c0.44-0.92,1.15-1.72,2.1-2.27L275.38,280.05z"/>
	<path class="st5" d="M81.97,260.2c30.61,19.18,77.45,47.79,108.72,65.57c1.86,1.05,3.72,2.11,5.55,3.14
		c2.67,1.5,5.28,2.95,7.71,4.26l-0.78,1.39c-0.34-0.18-0.67-0.37-1.01-0.54c-1.47-0.76-2.97-1.42-4.52-1.99c0,0,0,0-0.01,0
		c-2.8-1.01-5.72-1.67-8.76-1.92c-0.66-0.05-1.33-0.09-2-0.1c-13.45-0.26-20.37,7.74-20.09,15.63c0.04,1.28,0.29,2.58,0.84,3.72
		c-8.55-4.57-18.6-10.18-29.13-16.23l0.94-1.64l1.59-0.39c0.1-1.4,0.35-2.94,0.63-4.33c-17.96-12.06-37.82-26.09-55.13-39.06
		c-2.11-5.78-4.47-13.54-5-19.66C81.29,265.42,81.35,262.77,81.97,260.2z"/>
	<path class="st9" d="M287.6,242.81c7.8,5.89,11.44,10.01,15.28,17.36c-3.2-5.99-5.79-7.74-9.66-9.51
		c-1.54-1.82-3.35-3.67-6.98-6.53C286.68,243.67,287.14,243.23,287.6,242.81z"/>
	<path class="st7" d="M185.64,351.1c-0.02,0.26,0.05,0.46,0.19,0.59c1.59,1.39,3.16,2.77,4.74,4.16c-0.03,0.05-0.05,0.1-0.07,0.16
		c-0.4,1.01-0.52,2.2-0.39,3.46c-0.59,0.1-1.18,0.2-1.77,0.31c-0.62,0.11-1.18,0.71-1.27,1.61c-0.14,1.22,0.7,2.18,1.61,2.16
		c0.83-0.01,1.66-0.01,2.49-0.03h0.01c0.84,2,2.1,3.93,3.6,5.4c-0.32,1.03-0.63,2.06-0.95,3.1c-0.14,0.44-0.01,0.99,0.46,1.45
		c0.96,0.94,2.67,0.81,3.08-0.08c0.01-0.02,0.02-0.03,0.03-0.05c0.33-0.67,0.64-1.35,0.96-2.03c0.46,0.17,0.91,0.28,1.33,0.33
		c0.05,0.01,0.11,0.01,0.16,0.01c0.45,0.41,0.9,0.79,1.33,1.14c0.63,1.93,1.25,3.86,1.88,5.79c0.05,0.18,0.29,0.31,0.67,0.33
		c1.14,0.07,3.09-0.8,2.99-1.29c-0.14-0.63-0.27-1.27-0.4-1.9c0.99,0.34,2.03,0.57,3.06,0.61c-0.53,1.01-1.25,1.91-2.16,2.55
		c-1.28,0.9-2.93,1.29-4.5,1.23c-3.03-0.12-6.16-1.93-8.47-3.84c-7.91-6.52-12.11-18.08-10.29-25.15c0.06-0.25,0.14-0.49,0.21-0.73
		l1.54,0.39C185.66,350.89,185.64,350.99,185.64,351.1z"/>
	<path class="st4" d="M36.53,253.86c-5.68-1.03-9.81,1.69-11.72,6.5c-1.85,4.67-1.28,10.6,0.03,15.43
		c1.99,7.3,6.13,14.28,11.3,19.52c2.66,2.69,5.67,5.02,9.21,6.51c7.38,3.12,13.02,0.63,15.39-5.27c0.05-0.13,0.1-0.26,0.15-0.39
		c0.71-1.91,1.08-4.16,1.08-6.68c0-3.8-0.82-7.8-2.24-11.69c0-0.01,0-0.01,0-0.01c-0.37-0.99-0.77-1.98-1.21-2.96
		c-0.46-1.02-0.96-2.03-1.5-3.01c-0.05-0.11-0.11-0.21-0.16-0.31c-0.54-0.99-1.12-1.95-1.74-2.9h-0.01
		c-0.14-0.22-0.29-0.45-0.44-0.67c-0.63-0.95-1.3-1.86-1.99-2.75c-0.32-0.41-0.65-0.81-0.98-1.2c-3.4-4.03-7.37-7.24-11.45-8.96
		C38.95,254.45,37.71,254.07,36.53,253.86z M23.59,255.45c3.1-4.87,8.83-6.81,16.31-3.65c12.85,5.42,24.69,23.78,24.69,39.19
		c0.01,9.14-4.37,15.2-11.39,15.55c-2.25,0.12-4.77-0.36-7.51-1.52c-4.02-1.69-7.44-4.34-10.46-7.4
		c-5.88-5.97-10.59-13.89-12.85-22.2c-1.49-5.48-2.14-12.23-0.03-17.53C22.7,257.01,23.12,256.2,23.59,255.45z"/>
	<path class="st10" d="M203.26,393.17c7.02-0.34,11.4-6.4,11.39-15.55c0-15.44-11.87-33.78-24.69-39.19
		c-0.71-0.3-1.41-0.56-2.08-0.76l9.76-5.64c0.01,0,0.01,0,0.01,0c1.54,0.56,3.05,1.22,4.52,1.99c0.33,0.17,0.67,0.35,1.01,0.54
		c4.7,2.59,9.51,6.34,13.45,9.89c0.44,0.4,0.88,0.8,1.32,1.21c3.22,3.01,6.38,6.38,9.15,9.92c1.55,4.24,2.59,8.88,2.59,13.37
		c0,4.65-1.12,8.08-2.6,10.42c-1.56,3.76-4.03,6.46-6.88,8.1c-2.19,1.27-4.37,2.52-6.56,3.79h-0.01
		C210.45,393.1,206.86,393.64,203.26,393.17z"/>
	<path class="st7" d="M43.79,266.4c0.05,0.01,0.35-0.13,0.4-0.16c0.06-0.03,0.12-0.06,0.18-0.1c0.22-0.07,0.43-0.14,0.51-0.17
		c0.79-0.25,1.82-0.57,2.53-1.02c0.19-0.12,0.52-0.36,0.59-0.56c0.01-0.05,0.01-0.09-0.01-0.12c-0.03-0.05-0.05-0.09-0.07-0.14
		c0.07-0.07,0.16-0.15,0.24-0.22c-0.04,0.72-0.09,1.44-0.13,2.16c-0.08,0.74,1.32,1.33,2.27,1.46c0.5,0.06,1.05,0.05,1.52-0.15
		c0.65-0.26,0.95-0.76,0.92-1.26c-0.01-0.32-0.03-0.65-0.05-0.97c0.69,0.88,1.36,1.8,1.99,2.75c-0.39,0.26-0.77,0.51-1.15,0.77
		c-0.86,0.48-1.14,1.67-0.27,2.97c0.36,0.54,0.92,1.03,1.55,1.2c0.58,0.15,1.11-0.01,1.49-0.37c0.03-0.03,0.05-0.05,0.08-0.08
		c0.22-0.2,0.43-0.4,0.64-0.61c0.54,0.99,1.03,1.99,1.5,3.01c-0.14-0.06-0.29-0.12-0.43-0.19c-0.03-0.01-0.05-0.03-0.08-0.04
		c-0.35-0.16-0.77-0.16-1.16,0.03c-1.46,0.71-1.71,3.57-0.78,4.25c0.07,0.05,0.15,0.1,0.24,0.12c0.02,0.01,0.04,0.01,0.06,0.02
		c1.05,0.32,2.1,0.63,3.16,0.95c-0.28,0.35-0.61,0.63-0.97,0.83l-0.02,0.02c-0.14-0.2-0.29-0.39-0.42-0.59
		c-0.1-0.16-0.4-0.18-0.79-0.03c-0.76,0.3-1.52,1.1-2.05,1.71c-0.1,0.12-0.97,1.15-0.87,1.22H54.4l0.01,0.01
		c0.01,0.01,0.02,0.02,0.03,0.03c-0.77,0.44-1.54,0.88-2.31,1.33c1.22-0.79,1.93-2.38,1.92-4.46c0-4.95-3.8-10.87-7.95-12.62
		c-1.42-0.6-2.74-0.65-3.8-0.15c0.49-0.29,0.97-0.57,1.47-0.86L43.79,266.4L43.79,266.4L43.79,266.4z"/>
	<path class="st6" d="M190.27,345.12c1.46-0.14,3.08,0.13,4.76,0.81c0.07,0.03,0.13,0.05,0.2,0.08c0.89,1.55,1.78,3.1,2.68,4.65
		c0.01,0.03,0.03,0.08,0.06,0.11c0.02,0.05,0.05,0.09,0.07,0.14c0.02,0.03,0.02,0.07,0.01,0.11c-0.07,0.21-0.39,0.44-0.59,0.56
		c-0.81,0.52-2.22,0.92-3.03,1.19c-0.27,0.09-0.46,0.16-0.56,0.22c-0.01,0-0.01,0.01-0.01,0.01c-0.01,0.01-0.01,0.01-0.01,0.01
		h-0.01h-0.01c-0.08-0.18-0.16-0.37-0.24-0.55c-0.92-2.05-1.84-4.1-2.77-6.14C190.63,345.92,190.45,345.52,190.27,345.12z"/>
	<path class="st11" d="M271.09,235.92c0.01,0.01,0.02,0.03,0.03,0.03C271.11,235.94,271.1,235.93,271.09,235.92z"/>
	<path class="st12" d="M203.17,334.55l0.78-1.39c1.99,1.07,3.85,2.03,5.53,2.85c1.38,0.67,2.64,1.25,3.74,1.69
		c0.82,0.33,1.65,0.63,2.48,0.91c0.75,0.26,1.52,0.5,2.29,0.72c10.04,2.94,15.17,2.84,38.78-9.4c14.21-7.37,36.91-20.38,48.8-28.84
		c2.56-1.82,6.53-4.74,8.19-7.33c0.55-0.85,0.86-1.69,0.99-2.54c0.02-0.12,0.03-0.23,0.04-0.35c0.01-0.07,0.02-0.16,0.03-0.23
		c0.02-0.27,0.03-0.55,0.01-0.84c-0.01-0.22-0.03-0.46-0.06-0.69c-0.01-0.12-0.03-0.23-0.05-0.35c-0.05-0.34-0.12-0.69-0.22-1.06
		c-0.42-1.6-1.21-3.35-1.98-4.84c0.17,0.24,0.33,0.48,0.48,0.73c0.34,0.54,0.66,1.11,0.96,1.71c0.06,0.12,0.12,0.24,0.18,0.37
		c0.29,0.63,0.56,1.29,0.81,2c0.26,0.63,0.5,1.25,0.73,1.89c1.56,4.2,2.59,8.65,3.14,13.09c0.05,0.47,0.11,0.93,0.16,1.39
		c0.07,0.7,0.13,1.42,0.18,2.15c0.08,1.14,0.13,2.27,0.15,3.4c0.06,3.59,0.05,7.08-0.97,10.7c0,0.02-0.01,0.04-0.01,0.06
		c-0.01,0.02-0.01,0.04-0.01,0.06l-0.01,0.03c0,0.01-0.01,0.03-0.01,0.04l-0.03,0.11c-0.01,0.03-0.01,0.05-0.02,0.07
		c-0.39-0.9-0.96-1.55-1.67-1.92v-0.01l-1.42-1.39l-0.03-0.03c-0.17-0.22-0.36-0.41-0.57-0.56c-1.58-1.23-4.03-0.86-6.55,1.24
		c-11.35,9.48-34.05,22.71-51.21,29.35c-6.44,2.5-12.52,10.12-13.18,16.83c-0.16,1.71-0.52,3.79-1.35,5.31
		c-1.93,0.42-3.82,0.75-5.7,0.97c-1.59-1.62-2.63-4.8-5.8-9.74c-1.12-1.74-2.35-3.46-3.67-5.14c-2.78-3.54-5.93-6.91-9.15-9.92
		c-0.44-0.41-0.88-0.81-1.32-1.21C212.68,340.9,207.87,337.15,203.17,334.55z"/>
	<path class="st5" d="M38.11,218.98c0.05-5.23,0.95-11.98,2.55-16.57c0.86-2.48,1.95-4.4,3.67-6.37c-0.29,0.37-0.48,0.79-0.38,1.24
		c0.08,0.37,0.35,0.76,0.58,1.07h-0.01c0.56,0.76,1.42,1.66,2.16,2.34c0.7,0.65,1.47,1.27,2.21,1.86c-3.51,0.25-5.71,0.99-7.31,5.66
		c-1.34,3.89-2.25,10.49-2.21,15.57c-0.01-0.01-0.01-0.02-0.02-0.03c-0.59-0.91-0.99-1.75-1.16-2.67c-0.02-0.12-0.03-0.24-0.05-0.36
		c-0.01-0.03-0.01-0.07-0.01-0.11c0-0.01,0-0.03,0-0.05c-0.01-0.01-0.01-0.03-0.01-0.05c-0.01-0.11-0.01-0.22-0.01-0.33
		c0-0.02,0-0.03,0-0.05c0-0.1,0.01-0.2,0.01-0.31c0.01-0.14,0.02-0.27,0.04-0.41h-0.01l-0.01,0.01c0,0.03-0.01,0.05-0.01,0.07
		c0,0.01,0,0.01,0,0.02c-0.02,0.15-0.03,0.3-0.03,0.44c-0.01-0.12-0.01-0.24-0.01-0.35c0-0.02,0-0.05,0-0.07c0-0.01,0-0.02,0-0.03
		c0-0.01,0-0.01,0-0.02v-0.01C38.1,219.3,38.1,219.15,38.11,218.98L38.11,218.98z"/>
	<polygon class="st13" points="54.4,283.11 54.4,283.12 54.4,283.11 	"/>
	<path class="st7" d="M184.15,350.39c1.06-3.25,3.3-5.01,6.12-5.27c0.18,0.4,0.36,0.8,0.54,1.2c-0.42,1.18-0.64,2.45-0.71,3.72
		c-0.65-0.45-1.29-0.89-1.93-1.34c-0.18-0.13-0.52-0.07-0.92,0.17c-0.64,0.39-1.35,1.18-1.56,1.91L184.15,350.39z"/>
	<path class="st14" d="M40.05,272.83c-0.12-1.27-0.01-2.46,0.39-3.46c0.02-0.05,0.05-0.11,0.07-0.16c0.37-0.84,0.9-1.46,1.56-1.82
		c0.07-0.05,0.16-0.09,0.23-0.13c1.05-0.5,2.38-0.45,3.8,0.15c4.14,1.76,7.95,7.67,7.95,12.62c0.01,2.08-0.7,3.67-1.92,4.46
		c-0.05,0.03-0.09,0.05-0.14,0.08c-0.37,0.22-0.8,0.37-1.26,0.43c-0.3,0.04-0.62,0.05-0.96,0.02c-0.47-0.04-0.97-0.16-1.49-0.35
		c-0.1-0.04-0.21-0.08-0.32-0.13c-1.16-0.49-2.26-1.27-3.25-2.26c-1.5-1.48-2.76-3.4-3.6-5.4
		C40.55,275.52,40.18,274.13,40.05,272.83z"/>
	<path class="st6" d="M198.07,352.74c0.05-0.73,0.09-1.46,0.14-2.19c0-0.02,0-0.04,0-0.06c0.06-0.91,0.12-1.82,0.17-2.74
		c1.19,0.82,2.31,1.77,3.32,2.78c0.01,0.01,0.01,0.01,0.02,0.02c0.34,0.42,0.69,0.83,1.01,1.26c0.02,0.32,0.03,0.64,0.05,0.95
		c0.03,0.5-0.28,1.01-0.92,1.27c-0.47,0.19-1.03,0.21-1.53,0.14C199.41,354.04,198.03,353.47,198.07,352.74z"/>
	<path class="st12" d="M293.22,250.67c-0.43,2.31-2.18,4.59-14.76,12.49c-0.97,0.61-2.01,1.26-3.11,1.93
		c0.89-2.86,1.93-5.7,3.1-8.42v-0.01c0.52-0.49,1.01-0.99,1.46-1.48c1.74-1.93,3.29-10.91,3.09-13.48c0,0,0,0,3.24,2.46
		C289.87,247,291.69,248.84,293.22,250.67z"/>
	<path class="st14" d="M194.77,368.92c-1.5-1.48-2.76-3.4-3.6-5.4c-0.56-1.35-0.94-2.75-1.06-4.06c-0.12-1.27-0.01-2.46,0.39-3.46
		c0.02-0.05,0.04-0.11,0.07-0.16c0.35-0.8,0.88-1.44,1.56-1.83c0.05-0.03,0.12-0.07,0.17-0.1c1.01-0.51,2.32-0.53,3.86,0.12
		c4.14,1.75,7.95,7.66,7.95,12.62c0.01,2.09-0.71,3.68-1.92,4.46c-0.05,0.03-0.09,0.05-0.14,0.08c-0.37,0.22-0.8,0.37-1.26,0.43
		c-0.31,0.05-0.63,0.05-0.96,0.02c-0.05,0-0.1-0.01-0.16-0.01c-0.42-0.05-0.87-0.16-1.33-0.33c-0.11-0.03-0.21-0.07-0.32-0.12
		C196.86,370.68,195.76,369.9,194.77,368.92z"/>
	<path class="st5" d="M313.47,294.12c-1.63,2.29-5.19,5.01-8.19,7.12c0.72-0.62,2.65-2.3,3.27-3.01c1.65-1.88,2.19-4.82,2.32-7.31
		c0.09-1.83-0.04-3.37-0.05-4.13c0.31-0.56,0.52-1.14,0.63-1.76c0.02-0.07,0.03-0.15,0.05-0.23c0.01-0.05,0.01-0.11,0.02-0.17
		c0-0.01,0.01-0.01,0-0.02c0.02-0.12,0.03-0.24,0.03-0.36c0-0.01,0.01-0.03,0.01-0.05c0.05-0.84-0.05-1.77-0.35-2.84
		c-0.01-0.07-0.03-0.14-0.06-0.22c-0.03-0.11-0.07-0.2-0.09-0.29c-0.01-0.05-0.03-0.1-0.05-0.16c-0.08-0.28-0.16-0.56-0.24-0.84
		c0.37,0.58,1.04,1.69,1.73,2.99c0.77,1.48,1.57,3.24,1.98,4.84c0.1,0.37,0.17,0.72,0.22,1.06c0.02,0.12,0.03,0.24,0.05,0.35
		c0.03,0.23,0.05,0.46,0.06,0.69c0.01,0.29,0.01,0.56-0.01,0.84c-0.01,0.08-0.01,0.16-0.03,0.23c-0.01,0.12-0.02,0.24-0.04,0.35
		C314.57,292.28,314.13,293.21,313.47,294.12z"/>
	<path class="st15" d="M204.46,369.75C204.46,369.75,204.46,369.75,204.46,369.75L204.46,369.75L204.46,369.75z"/>
	
		<linearGradient id="SVGID_00000029746744879869228340000018174568083260102322_" gradientUnits="userSpaceOnUse" x1="206.606" y1="320.6914" x2="248.6015" y2="320.6914">
		<stop  offset="0" style="stop-color:#C0D369"/>
		<stop  offset="1" style="stop-color:#9DAF35"/>
	</linearGradient>
	<path style="fill:url(#SVGID_00000029746744879869228340000018174568083260102322_);" d="M207.55,304.9
		c4.15,0.59,7.1,0.65,11.33-0.42c1.75-0.44,3.67-0.37,5.45-0.08c7.65,1.23,14.91,6.29,17.88,13.55c1.22,2.97,2.48,6.43,3.35,9.49
		c0.01,0,0.01-0.01,0.01-0.01c0.33,1.12,2.44,5.63,3.03,6.55h-0.01c-2.61,1.02-5.23,1.97-7.95,2.78
		c-4.67,1.37-10.28-0.64-14.33-3.25c-3.71-2.37-7.57-6.23-9.17-10.32c-1.39-3.55-3.26-7.83-5.14-11.16
		c-1.16-2.03-2.37-3.82-3.81-5.52c-0.5-0.59-1.03-1.17-1.59-1.75C206.93,304.81,207.25,304.86,207.55,304.9z"/>
	
		<linearGradient id="SVGID_00000060002947892592217140000014692468143485809300_" gradientUnits="userSpaceOnUse" x1="211.085" y1="320.6914" x2="245.9642" y2="320.6914">
		<stop  offset="0" style="stop-color:#F9EFCF"/>
		<stop  offset="1" style="stop-color:#EFC882"/>
	</linearGradient>
	<path style="fill:url(#SVGID_00000060002947892592217140000014692468143485809300_);" d="M237.4,335.34
		c-3.06,0-6.73-1.24-10.07-3.4c-3.07-1.97-6.89-5.47-8.44-9.42c-1.01-2.56-3.02-7.45-5.26-11.4c-0.84-1.47-1.67-2.76-2.56-3.97
		c0.53,0.03,1.03,0.04,1.53,0.04l0,0c2.18,0,4.32-0.28,6.73-0.89c0.67-0.17,1.44-0.26,2.27-0.26c0.75,0,1.56,0.07,2.43,0.21
		c7.4,1.19,13.85,6.06,16.45,12.41c1.34,3.29,2.51,6.59,3.28,9.29l0.39,1.36h0.14c0.45,1.08,1.1,2.5,1.68,3.67
		c-2.15,0.8-4.04,1.44-5.85,1.98C239.29,335.21,238.37,335.34,237.4,335.34z"/>
	<polygon class="st13" points="204.46,369.75 204.46,369.75 204.45,369.75 	"/>
	<path class="st18" d="M45.39,229.27c-0.17-0.12-0.33-0.23-0.5-0.34C45.05,229.04,45.22,229.16,45.39,229.27z M47.41,230.61
		c-0.34-0.22-0.7-0.47-1.07-0.71C46.71,230.15,47.07,230.39,47.41,230.61c0.1,0.07,0.18,0.12,0.26,0.17
		C47.59,230.73,47.5,230.67,47.41,230.61z M36.19,225.12c0.11-1.93,0.88-3.85,1.87-5.55c-0.03,0.1-0.07,0.18-0.08,0.24
		c-0.01,0.02-0.03,0.04-0.03,0.05c0.01-0.01,0.01-0.03,0.03-0.05c0.03-0.05,0.06-0.12,0.12-0.22c0,0.12,0,0.24,0.01,0.35
		c0,0.02,0,0.03,0,0.05c0,0.03,0,0.05,0,0.07c0,0.02,0,0.04,0,0.05c0,0.02,0,0.03,0,0.05c0,0.01,0,0.01,0,0.02c0,0.01,0,0.02,0,0.03
		c0,0.1,0.01,0.2,0.01,0.29c0,0.02,0,0.03,0.01,0.05c0,0.02,0,0.03,0,0.05c0.01,0.04,0.01,0.07,0.01,0.11
		c0.01,0.12,0.02,0.23,0.04,0.35c0,0.01,0,0.01,0.01,0.01c0.11,0.67,0.34,1.28,0.66,1.87c0.03,0.05,0.05,0.1,0.08,0.15
		c0.09,0.16,0.18,0.32,0.28,0.48c0.05,0.08,0.1,0.16,0.16,0.24c0-0.01,0-0.02,0-0.03c1.95,2.99,4.21,4.32,14.84,11.21
		c1.34,0.88,2.68,1.74,4.02,2.61c0.01,0.02,0.01,0.03,0.02,0.05c0.16,0.44,0.33,0.87,0.49,1.29l0.01,0.02
		c0.61,1.22,1.64,5.53,1.99,7.75c-1.71-1.1-3.42-2.19-5.14-3.3c-0.35-0.22-0.69-0.44-1.04-0.67c-11.44-7.36-13.99-8.89-15.97-11.39
		c-0.88-1.1-1.8-2.59-2.16-3.95c-0.12-0.46-0.2-0.93-0.23-1.4C36.18,225.71,36.18,225.42,36.19,225.12z"/>
	<path class="st12" d="M242.21,317.96c-2.97-7.27-10.23-12.32-17.88-13.55c-1.78-0.29-3.7-0.36-5.45,0.08
		c-4.23,1.07-7.18,1-11.33,0.42c-0.56-1.38-1.1-2.67-1.6-3.84c4.55-0.57,8.85-1.79,22.71-9.15c11.19-5.94,28.6-15.89,41.5-23.67
		c-1.4,5.14-2.39,10.07-3.06,14.13l-16.51,9.53c-1.82,1.05-2.78,3.04-2.59,5.01c0.06,0.7,0.28,1.4,0.65,2.06l3.96,7.04
		c1.42,2.53,4.64,3.42,7.15,1.96l25.28-14.6c0.95-0.55,1.67-1.35,2.1-2.27c0.7-1.48,0.7-3.27-0.16-4.8l-3.96-7.04
		c-1.42-2.53-4.64-3.42-7.16-1.96l-9.31,5.54c0.84-4.42,2-9.53,3.6-14.61c1.1-0.67,7.33-4.48,8.31-5.09
		c12.57-7.89,14.33-10.18,14.76-12.49c3.86,1.77,6.45,3.51,9.66,9.51c0.22,0.43,0.45,0.88,0.68,1.33c0.22,0.44,0.44,0.88,0.65,1.35
		c2.35,4.91,4.57,10.65,6.08,15.45c0.17,0.53,0.33,1.05,0.48,1.55c0,0.01,0.01,0.01,0.01,0.01c0.08,0.29,0.16,0.56,0.24,0.84
		c0,0.01,0.01,0.03,0.01,0.04c0.01,0.01,0.01,0.04,0.02,0.07c0.05,0.16,0.1,0.33,0.14,0.48c0.27,0.95,0.43,1.94,0.38,2.91
		c0,0.02-0.01,0.03-0.01,0.05c-0.01,0.12-0.02,0.24-0.03,0.36c0.01,0.01,0,0.01,0,0.02c-0.02,0.14-0.04,0.27-0.07,0.4
		c-0.13,0.61-0.35,1.18-0.64,1.72c-0.01-4.19-1.25-8.97-2.74-12.74c-1.95-4.97-4.8-11.6-8.03-15.83c-0.61-0.79-1.29-1.59-1.96-2.28
		c0.01,1.74-1.02,3.27-2.18,4.56c-0.96,1.08-1.3,1.2-1.77,2.12c-0.53,1.05-0.73,2.4-0.82,3.58c-0.28,3.77,0.3,10.71,1.88,16.38
		c0.98,3.51,1.54,4.27,3.07,8.46c0.62,1.7,1.24,3.52,1.72,5.25c0.01,0.01,0.01,0.02,0.01,0.03c-13.1,8.99-37.66,23.24-54.43,31.15
		c0-0.01-0.01-0.01-0.01-0.02l-0.01,0.03C244.69,324.39,243.43,320.93,242.21,317.96z"/>
	<path class="st6" d="M190.11,359.46c0.12,1.31,0.5,2.7,1.06,4.06h-0.01c-0.83,0.01-1.66,0.02-2.49,0.03
		c-0.9,0.02-1.74-0.94-1.61-2.16c0.1-0.9,0.65-1.5,1.27-1.61C188.93,359.66,189.52,359.56,190.11,359.46z"/>
	<path class="st12" d="M268.13,231.43c6.63,4.4,11.38,7.68,14.87,10.25c0.96,1.88,0.46,5.97-0.15,6.75
		c-0.33-0.53-2.44-5.53-2.84-6.03c-2.5-3.08-7.17-6.63-10.6-9.14c0,0-0.01,0-0.01-0.01C268.99,232.67,268.57,232.06,268.13,231.43z"
		/>
	<path class="st12" d="M217.74,331.84c-2.19-6.1-6.18-16.94-9.54-25.33c1.44,1.7,2.65,3.49,3.81,5.52
		c1.88,3.33,3.75,7.61,5.14,11.16c1.59,4.08,5.46,7.94,9.17,10.32c0.03,0.02,0.05,0.04,0.07,0.05c-2.08-0.05-4.13-0.46-6.7-1.16
		C219.03,332.23,218.38,332.04,217.74,331.84z"/>
	<path class="st19" d="M310.77,279.86c-0.15-0.5-0.31-1.02-0.48-1.55c9.98,8.38,16.95,22.65,16.95,34.31c0,4.64-1.11,8.07-2.6,10.42
		c-1.55,3.75-4.01,6.45-6.88,8.1c-0.66,0.38-1.32,0.76-1.98,1.14c0.56-0.64,1.08-1.29,1.56-1.93c0.83-1.52,1.18-3.58,1.36-5.3
		c0.18-1.82-0.01-3.28-0.48-4.37c0.01-0.03,0.01-0.05,0.02-0.07l0.03-0.11c0-0.01,0.01-0.03,0.01-0.04l0.01-0.03
		c0.01-0.01,0.01-0.01,0.01-0.02c0-0.01,0-0.02,0.01-0.04c0.01-0.02,0.01-0.04,0.01-0.06c1.02-3.63,1.03-7.11,0.97-10.7
		c-0.02-1.12-0.07-2.26-0.15-3.4c-0.05-0.73-0.11-1.45-0.18-2.15c-0.04-0.48-0.1-0.94-0.16-1.39c-0.59-4.99-1.61-9.17-2.91-12.74
		c-0.54-1.52-1.14-2.93-1.78-4.24c-0.05-0.13-0.12-0.25-0.18-0.37c-0.3-0.61-0.62-1.18-0.96-1.71c-0.16-0.25-0.31-0.49-0.48-0.73
		c-0.69-1.31-1.35-2.41-1.73-2.99C310.78,279.86,310.77,279.86,310.77,279.86z"/>
	<path class="st6" d="M205.33,368.53c0.52-0.61,1.29-1.41,2.05-1.71c0.37-0.15,0.66-0.13,0.78,0.01c0.14,0.2,0.29,0.4,0.43,0.6
		c0.69,0.95,1.38,1.9,2.07,2.85c0.01,0,0.01,0.01,0.01,0.01c0,0.05,0,0.1,0,0.15c0,1.56-0.18,3.14-0.73,4.64
		c-0.07,0.19-0.14,0.38-0.22,0.57c-1.49-1.67-2.98-3.35-4.47-5.02c-0.24-0.28-0.5-0.56-0.74-0.84c-0.01-0.01-0.03-0.02-0.03-0.03
		h0.01c0,0,0,0-0.01-0.01C204.35,369.68,205.22,368.65,205.33,368.53z"/>
	<path class="st18" d="M196.3,283.92c1.8,0.57,3.39,0.99,5.13,1.38v-0.01c3.95,0.88,6.27,1.17,10.69-0.05
		c12.52-3.47,42.85-21.48,53.24-28.75c2.38-1.67,5.5-3.99,7.46-6.14c2.16-2.37,2.8-4.28,2.05-7.45c-0.31-1.29-0.78-2.36-1.41-3.52
		c-0.33-0.61-0.68-1.18-1.06-1.73c-0.01-0.01-0.01-0.03-0.02-0.04c0-0.01-0.01-0.01-0.01-0.01c-0.1-0.14-0.2-0.29-0.29-0.42
		c-0.01-0.02-0.03-0.04-0.04-0.06c-0.76-1.11-1.64-2.4-2.63-3.83c3.43,2.51,8.1,6.06,10.6,9.14c0.4,0.5,0.77,1,1.1,1.53
		c-3.84,4.98-6.76,11.32-8.95,17.76c-0.26,0.18-0.5,0.35-0.75,0.52c-11.37,7.97-35.57,21.91-48.38,27.24
		c-10.78,4.48-16.81,4.55-23.96,3.07c-3.31-0.69-6.33-1.59-10.46-3.38c-9.37-4.05-24.13-12.83-33-18.13
		c-23.23-13.91-60.61-37.26-83.36-52.24l0.01-0.02c0.2-0.57-0.44-7.89-0.86-8.67c21.59,14.4,60.22,38.59,83.04,52.26
		c9.43,5.65,23.84,14.21,33.63,18.47C190.68,281.96,193.31,282.96,196.3,283.92z"/>
	<path class="st15" d="M54.4,283.11C54.41,283.12,54.41,283.12,54.4,283.11L54.4,283.11L54.4,283.11z"/>
	<path class="st6" d="M40.22,258.48c1.49-0.14,3.16,0.15,4.91,0.87c0.02,0.01,0.03,0.01,0.05,0.02v0.01c0.9,1.56,1.79,3.1,2.68,4.65
		c0.02,0.03,0.04,0.07,0.06,0.1c0.02,0.05,0.05,0.09,0.07,0.14c0.02,0.03,0.02,0.07,0.01,0.12c-0.07,0.2-0.39,0.44-0.59,0.56
		c-0.71,0.45-1.74,0.77-2.53,1.02c-0.08,0.03-0.29,0.1-0.51,0.17c-0.22,0.08-0.46,0.17-0.56,0.22c-0.01,0-0.01,0.01-0.01,0.01
		c-0.01,0.01-0.01,0.01-0.01,0.01c0,0.01-0.01,0.01-0.01,0.01h-0.01c-0.08-0.18-0.16-0.37-0.24-0.56h-0.01
		c-0.91-2.05-1.84-4.1-2.76-6.14v-0.01C40.58,259.29,40.4,258.89,40.22,258.48L40.22,258.48z"/>
	<path class="st6" d="M54.41,283.12C54.41,283.12,54.41,283.12,54.41,283.12c-0.11-0.07,0.76-1.1,0.86-1.22
		c0.53-0.62,1.29-1.42,2.05-1.71c0.39-0.16,0.69-0.14,0.79,0.03c0.14,0.2,0.28,0.39,0.42,0.59c0.69,0.95,1.37,1.9,2.06,2.84
		c0.01,0.05,0.01,0.11,0.01,0.16c0,1.57-0.18,3.15-0.73,4.65c-0.07,0.18-0.14,0.37-0.22,0.56c-1.49-1.67-2.98-3.34-4.47-5.01
		c-0.24-0.28-0.5-0.56-0.74-0.84C54.42,283.14,54.41,283.13,54.41,283.12L54.41,283.12z"/>
	<path class="st9" d="M286.24,244.14c-3.5-2.57-11.65-8.32-18.28-12.72c-0.84-1.2-1.92-2.71-2.86-4.06
		c4.89,3.2,10.67,7.04,15.43,10.36c1.34,0.93,5.91,4.25,7.08,5.1C287.17,243.23,286.66,243.68,286.24,244.14z"/>
	<path class="st6" d="M38.28,273.13L38.28,273.13c0.59-0.11,1.18-0.2,1.77-0.31c0.12,1.31,0.5,2.69,1.06,4.05l-0.01,0.01
		c-0.84,0.01-1.67,0.01-2.51,0.03v-0.01c-0.84,0.01-1.65-0.84-1.6-2.01C37.05,273.92,37.63,273.25,38.28,273.13z"/>
	<path class="st6" d="M195.03,345.93c-1.69-0.68-3.31-0.95-4.76-0.81c-2.82,0.26-5.06,2.03-6.12,5.27
		c-0.07,0.24-0.15,0.48-0.21,0.73c-1.82,7.07,2.38,18.63,10.29,25.15c2.31,1.91,5.44,3.72,8.47,3.84c1.58,0.05,3.23-0.33,4.5-1.23
		c0.9-0.64,1.63-1.54,2.16-2.55c0.12-0.22,0.23-0.45,0.33-0.68c0.08-0.19,0.16-0.38,0.22-0.57c0.54-1.5,0.73-3.08,0.73-4.64
		c0-0.05,0-0.1,0-0.15c0,0,0-0.01-0.01-0.01c-0.01-1.16-0.12-2.33-0.33-3.48c-0.14-0.81-0.33-1.61-0.54-2.4
		c1.43,3.9,2.25,7.91,2.25,11.71c0.01,2.52-0.37,4.78-1.08,6.69c-0.38,0.52-0.86,0.97-1.44,1.31c-2.3,1.33-5.04,1.44-7.77,0.73
		c-7.01-1.8-13.42-8.76-17.06-15.07c-3.64-6.31-6.47-15.34-4.52-22.32c0.78-2.81,2.33-5.21,4.77-6.5l0.01-0.01
		c0.5-0.24,1.05-0.38,1.62-0.45c0.01,0,0.01,0,0.01,0c1.18,0.2,2.44,0.59,3.74,1.14c4.06,1.71,8.01,4.89,11.4,8.89
		c-1.01-1.01-2.13-1.96-3.32-2.78c-1-0.69-2.05-1.29-3.15-1.74C195.16,345.99,195.1,345.96,195.03,345.93z"/>
	<path class="st5" d="M208.55,327.94c-0.9-0.45-1.78-0.9-2.65-1.35c-3.76-1.95-8.14-4.33-12.98-7.04c0,0-0.01-0.01-0.03-0.01
		c-0.05-0.02-0.1-0.05-0.15-0.08c-0.17-0.09-0.34-0.18-0.51-0.28c-0.09-0.05-0.18-0.1-0.27-0.15
		c-32.97-18.47-86.17-51.29-110.45-66.59c-3.12-5.91-7.61-15.24-9.65-21.58c-0.71-2.21-1.42-4.89-1.31-7.21
		c0.09-1.86,0.66-3.21,1.62-4.75c22.92,14.88,72.55,46.06,97.44,61.38c24.11,14.83,30.41,18.14,36.34,20.78
		c0.5,1.17,1.03,2.46,1.6,3.84c-0.31-0.04-0.63-0.09-0.95-0.14c0.56,0.58,1.1,1.16,1.59,1.75c3.36,8.39,7.35,19.22,9.54,25.33
		c-0.81-0.25-1.59-0.52-2.39-0.82c-1.44-0.54-3.29-1.37-5.46-2.42c-0.37-0.18-0.74-0.36-1.11-0.54
		C208.7,328.02,208.62,327.98,208.55,327.94z"/>
	<path class="st6" d="M206.11,365.49c-0.93-0.69-0.67-3.54,0.79-4.25c0.39-0.19,0.81-0.19,1.16-0.03c0.04,0.01,0.07,0.03,0.12,0.05
		c0.13,0.05,0.27,0.12,0.39,0.18c0.43,0.97,0.83,1.93,1.19,2.91c0.01,0.01,0.01,0.03,0.01,0.04c0.22,0.78,0.4,1.59,0.54,2.4
		c-0.25-0.07-0.5-0.15-0.75-0.22c-1.05-0.31-2.12-0.63-3.17-0.95c-0.01-0.01-0.03-0.01-0.05-0.01
		C206.27,365.59,206.19,365.55,206.11,365.49z"/>
	<path class="st18" d="M84.16,254.14c0.35,0.22,0.71,0.46,1.08,0.68c0.24,0.16,0.48,0.31,0.73,0.46c0.19,0.12,0.38,0.24,0.57,0.35
		c0.25,0.16,0.5,0.32,0.76,0.48c0.11,0.07,0.21,0.14,0.33,0.2c0.39,0.25,0.8,0.51,1.22,0.77c2.88,1.8,5.88,3.67,8.79,5.48
		c2.17,1.35,4.18,2.6,6.23,3.86c8.44,5.23,17.25,10.63,25.82,15.85c2.61,1.59,5.1,3.1,7.74,4.69c1.35,0.82,2.6,1.58,3.84,2.32
		c5.03,3.04,10.31,6.21,15.38,9.23c0.48,0.29,0.97,0.59,1.46,0.87c0.39,0.24,0.79,0.48,1.18,0.71c0.39,0.24,0.78,0.47,1.16,0.69
		c1.07,0.64,2.44,1.45,4.05,2.4c0.34,0.21,0.7,0.42,1.06,0.63c10.95,6.48,30.94,18.15,42.99,24.13c0.07,0.04,0.16,0.08,0.24,0.12
		c0.38,0.19,0.75,0.37,1.11,0.54c2.16,1.05,4.02,1.88,5.46,2.42c0.8,0.3,1.58,0.56,2.39,0.82c0.65,0.2,1.29,0.39,1.96,0.56
		c2.57,0.7,4.62,1.12,6.7,1.16c-0.03-0.01-0.05-0.03-0.07-0.05c4.05,2.61,9.66,4.63,14.33,3.25c2.71-0.8,5.34-1.76,7.95-2.78
		c-16.53,7.97-21.62,7.99-30.61,5.31c-2.78-0.82-4.81-1.56-7.69-2.92c-0.29-0.14-0.59-0.28-0.9-0.44
		c-3.13-1.53-7.69-3.99-13.08-7.02c-21.65-12.15-56.82-33.37-67.63-39.95c-15.27-9.28-31.36-19.19-46.72-28.83
		c0.25-1.05,0.05-6.39-0.41-7.64c0.78,0.49,1.56,0.98,2.36,1.48C83.98,254.03,84.07,254.09,84.16,254.14z"/>
	<path class="st13" d="M193.85,353.01c-0.01,0.01-0.01,0.01-0.01,0.01C193.85,353.01,193.85,353.01,193.85,353.01z"/>
	<path class="st6" d="M58.52,274.81c0.44,0.98,0.84,1.97,1.21,2.96c0,0,0,0.01,0,0.01c0.22,0.78,0.39,1.58,0.53,2.38
		c-0.24-0.07-0.5-0.15-0.74-0.22c-1.05-0.31-2.11-0.63-3.16-0.95c-0.02-0.01-0.04-0.01-0.06-0.02c-0.09-0.02-0.17-0.06-0.24-0.12
		c-0.93-0.69-0.68-3.54,0.78-4.25c0.39-0.18,0.81-0.18,1.16-0.03c0.03,0.01,0.05,0.03,0.08,0.04
		C58.23,274.69,58.38,274.75,58.52,274.81z"/>
	<path class="st11" d="M318.23,320.68c0.47,1.09,0.66,2.54,0.48,4.37c-0.18,1.72-0.53,3.78-1.36,5.3c-0.48,0.65-0.99,1.29-1.56,1.93
		c-2.92,3.32-6.89,6.46-10.26,8.93c-14.38,10.53-42.7,26.6-60.78,30.58c0.82-1.51,1.18-3.59,1.35-5.31
		c0.65-6.7,6.74-14.32,13.18-16.82c17.15-6.65,39.86-19.88,51.2-29.36c2.27-1.9,4.5-2.38,6.08-1.54
		C317.27,319.13,317.84,319.78,318.23,320.68z"/>
	<path class="st13" d="M316.55,318.75L316.55,318.75c-1.57-0.84-3.8-0.35-6.08,1.54c-11.34,9.48-34.06,22.71-51.2,29.36
		c-6.44,2.5-12.53,10.12-13.18,16.82c-0.17,1.72-0.52,3.8-1.35,5.31l-2.5-2.29c0.82-1.52,1.18-3.59,1.35-5.31
		c0.66-6.7,6.74-14.33,13.18-16.83c17.15-6.65,39.86-19.88,51.21-29.35c2.51-2.1,4.97-2.47,6.55-1.24l0.57,0.56l0.03,0.03
		L316.55,318.75z"/>
	
		<linearGradient id="SVGID_00000065764263717822588330000005496422424011747754_" gradientUnits="userSpaceOnUse" x1="293.258" y1="279.3515" x2="310.911" y2="279.3515">
		<stop  offset="0" style="stop-color:#C0D369"/>
		<stop  offset="1" style="stop-color:#9DAF35"/>
	</linearGradient>
	<path style="fill:url(#SVGID_00000065764263717822588330000005496422424011747754_);" d="M310.82,286.76c0,0.02,0,0.05,0,0.07
		c0.01-0.01,0.01-0.02,0.01-0.03c0.01,0.76,0.14,2.3,0.05,4.13c-0.13,2.49-0.67,5.44-2.32,7.31c-0.62,0.71-2.55,2.39-3.27,3.01
		l-0.03,0.02l-1.18,0.82l-1.02,0.7c-0.65-1-2.74-5.49-3.03-6.51c0-0.01,0.01-0.01,0.01-0.01l-0.01-0.02c-0.01,0-0.01,0.01-0.01,0.01
		c-0.48-1.73-1.1-3.55-1.72-5.25c-1.52-4.2-2.09-4.95-3.07-8.46c-1.59-5.67-2.16-12.61-1.88-16.38c0.09-1.18,0.29-2.53,0.82-3.58
		c0.47-0.92,0.81-1.04,1.77-2.12c1.16-1.29,2.19-2.82,2.18-4.56c0.67,0.69,1.35,1.49,1.96,2.28c3.23,4.23,6.08,10.86,8.03,15.83
		C309.57,277.79,310.81,282.57,310.82,286.76z"/>
	
		<linearGradient id="SVGID_00000057150659729511861950000015118126938937271991_" gradientUnits="userSpaceOnUse" x1="295.1307" y1="279.8784" x2="309.1415" y2="279.8784">
		<stop  offset="0" style="stop-color:#F9EFCF"/>
		<stop  offset="1" style="stop-color:#EFC882"/>
	</linearGradient>
	<path style="fill:url(#SVGID_00000057150659729511861950000015118126938937271991_);" d="M303.73,300.06
		c-2.56-5.27-1.93-5.48-5.11-13.38c-0.62-1.54-1.03-2.56-1.61-4.64c-1.53-5.48-2.08-12.2-1.82-15.74c0.1-1.27,0.31-2.24,0.63-2.87
		c0.18-0.35,0.27-0.44,0.65-0.83c0.87-0.88,1.73-1.84,2.37-2.91c2.32,3.16,4.77,8.07,7.5,15.01c1.64,4.16,2.59,8.56,2.61,12.07
		c0.23,0.05,0.28,0.04,0.01,0.04c0.01,0.81,0.14,2.17,0.05,4.02c-0.15,2.82-0.79,4.96-1.85,6.17
		C306.62,297.61,304.31,299.66,303.73,300.06z"/>
	<path class="st5" d="M303.06,302.79c-0.09,0.05-0.17,0.12-0.25,0.17c-12.62,8.56-35.05,21.49-50.58,29.24
		c-1.27,0.63-2.48,1.22-3.63,1.78c-0.59-0.92-2.7-5.44-3.03-6.55c16.77-7.91,41.34-22.16,54.43-31.15c0.01,0.01,0.01,0.01,0.01,0.01
		v-0.02h0.01C300.32,297.3,302.41,301.79,303.06,302.79z"/>
	<path class="st2" d="M286.98,286.31c0.86,1.54,0.86,3.32,0.16,4.8c-0.07-0.7-0.28-1.4-0.65-2.06l-3.96-7.04
		c-1.42-2.53-4.64-3.42-7.16-1.96l-8.71,5.03c0.15-0.88,0.31-1.8,0.5-2.75l8.7-5.02c2.52-1.46,5.74-0.57,7.16,1.96L286.98,286.31z"
		/>
	<path class="st18" d="M282.85,248.43c0.2,2.57-1.2,4.8-2.94,6.73c-0.44,0.5-0.93,0.99-1.46,1.48c0.35-0.8-10.77,9.37-10.33,6.74
		c0.49-2.91,12.04-18.87,12.98-19.45C281.11,243.94,281.11,243.94,282.85,248.43z"/>
	<path class="st11" d="M269.1,233.04c0.68,0.98,1.35,1.94,1.99,2.88c0.01,0.01,0.02,0.02,0.03,0.03c0.81,1.17,1.59,2.31,2.35,3.42
		l1.41,3.52c0.75,3.17,0.12,5.08-2.05,7.45c-1.97,2.15-5.08,4.46-7.46,6.14c-10.39,7.27-40.72,25.28-53.24,28.75
		c-4.42,1.22-6.74,0.94-10.69,0.05v0.01c-1.74-0.39-3.33-0.81-5.13-1.38c-9.01-12.51-21.66-30.18-29.34-41.09
		c-9.13-12.99-11.21-16.4-13.03-19.83c15.15-8.29,63.08-35.82,73.27-42.3c3.74,2.32,6.97,5.07,16.69,17.73
		c5.79,7.55,13.89,18.61,21.2,28.94c0.93,1.31,1.84,2.59,2.72,3.86c0,0,0.01,0,0.01,0.01C268.25,231.84,268.68,232.44,269.1,233.04z
		 M197.86,282.44l0.14-0.1c6.69,1.47,8.4,2.27,13.55,0.85c12.32-3.42,42.57-21.43,52.58-28.45c3.35-2.35,5.68-4.26,7.12-5.83
		c1.74-1.91,2.1-3.09,1.59-5.38l-1.26-3.16c-8.59-12.56-21.19-30-29.37-40.67c-8.74-11.38-12.04-14.48-15.02-16.49
		c-12.02,7.46-54.39,31.78-70.37,40.62c1.6,2.82,4.23,6.88,11.89,17.77C176.35,252.48,188.75,269.78,197.86,282.44z"/>
	<path class="st12" d="M271.41,262.22c0.25-0.17,6.79-5.39,7.05-5.57c-0.74,2.18-2.51,6.26-3.1,8.42
		c-12.9,7.77-35.51,20.89-46.7,26.83c-13.85,7.36-18.16,8.58-22.71,9.15c-5.93-2.64-12.23-5.95-36.34-20.78
		c-24.89-15.32-74.53-46.5-97.44-61.38l0.07-0.11c22.75,14.98,60.13,38.33,83.36,52.24c8.87,5.3,23.63,14.08,33,18.13
		c4.13,1.79,7.16,2.69,10.46,3.38c7.15,1.48,13.18,1.42,23.96-3.07C235.84,284.13,260.04,270.19,271.41,262.22z"/>
	<path class="st2" d="M250.59,291.91l16.51-9.53c-0.16,0.95-0.3,1.86-0.42,2.71l-16.57,9.57c-0.95,0.55-1.66,1.35-2.1,2.27
		C247.81,294.95,248.76,292.96,250.59,291.91z"/>
	<path class="st22" d="M160.84,137.88c13.68,7.74,45.93,26.46,58.97,35.24c5.29,3.55,8.84,6.29,12.81,10.63
		c7.25,7.9,22.75,29.43,32.83,43.84c-0.12-0.07-0.24-0.16-0.35-0.23c-7.31-10.33-15.41-21.39-21.2-28.94
		c-9.72-12.66-12.96-15.4-16.69-17.73c-2.42-3.16-5.41-5.95-20.19-15.1c-12.17-7.53-32.31-19.36-47.5-27.95
		c0.52-0.03,0.95,0.02,1.29,0.21C160.81,137.86,160.83,137.87,160.84,137.88z"/>
	<path class="st23" d="M207.01,165.59c14.78,9.14,17.77,11.94,20.19,15.1c-10.19,6.48-58.11,34.01-73.27,42.3
		c-4.33-2.05-8.49-4.18-23.84-12.99c-12.64-7.25-32.88-19.04-47.75-27.81c-0.05-0.03-0.09-0.05-0.14-0.07
		c-4.77-2.81-10.78-6.37-15.49-9.22c-8.56-5.17-10.51-6.61-11.87-7.85c0.59-2.47,2.02-4.7,12.75-11.6
		c10.73-6.89,30.75-18.45,42.38-24.47c11.63-6.01,14.87-6.48,18.13-6.23c2.93,0.34,5.94,1.16,15.15,5.97
		c0.48,0.25,0.98,0.51,1.48,0.78c4.44,2.35,9.52,5.18,13.82,7.61c0.32,0.19,0.64,0.37,0.95,0.54
		C174.7,146.23,194.85,158.06,207.01,165.59z"/>
	<path class="st19" d="M184.92,340.96c-2.44,1.29-3.99,3.69-4.77,6.5c-1.95,6.98,0.88,16.01,4.52,22.32
		c3.65,6.31,10.06,13.27,17.06,15.07c2.73,0.7,5.47,0.6,7.77-0.73c0.44-0.26,0.88-0.56,1.29-0.91c-2.37,5.89-8.02,8.37-15.38,5.26
		c-3.54-1.5-6.55-3.82-9.21-6.52c-5.17-5.25-9.32-12.22-11.3-19.52c-1.31-4.82-1.88-10.76-0.03-15.42c0.39-0.97,0.86-1.86,1.42-2.64
		l6.99-4.03c1.02-0.09,2.12-0.04,3.27,0.18C185.98,340.57,185.43,340.71,184.92,340.96L184.92,340.96z"/>
	<path class="st6" d="M206.71,377.61c0.1,0.49-1.86,1.36-2.99,1.29c-0.39-0.03-0.62-0.16-0.67-0.33c-0.63-1.93-1.25-3.86-1.88-5.79
		c-0.12-0.39-0.25-0.77-0.37-1.16c0.46-0.06,0.88-0.21,1.26-0.43c0.05-0.03,0.09-0.05,0.14-0.08c0.77-0.44,1.54-0.88,2.31-1.33
		c0.24,0.28,0.5,0.56,0.74,0.84c0.35,1.69,0.71,3.39,1.07,5.09C206.44,376.35,206.57,376.98,206.71,377.61z"/>
	<path class="st6" d="M198.34,371.3c-0.32,0.68-0.63,1.36-0.96,2.03c-0.01,0.02-0.02,0.03-0.03,0.05c-0.41,0.89-2.12,1.02-3.08,0.08
		c-0.47-0.46-0.6-1.01-0.46-1.45c0.31-1.04,0.63-2.07,0.95-3.1c0.99,0.99,2.1,1.77,3.25,2.26
		C198.13,371.22,198.23,371.26,198.34,371.3z"/>
	<path class="st10" d="M197.64,332.03l-9.76,5.64c-7.06-2.18-12.32,0.41-14.96,5.69c1.74-4.28,6.63-8.92,15.96-13.25
		C191.92,330.36,194.83,331.02,197.64,332.03z"/>
	<path class="st6" d="M193.58,352.47c0.08,0.18,0.16,0.37,0.24,0.55c-0.52,0.3-1.02,0.59-1.53,0.89c-0.05,0.03-0.12,0.06-0.17,0.1
		c-0.68,0.39-1.2,1.03-1.56,1.83c-1.58-1.39-3.16-2.77-4.74-4.16c-0.14-0.12-0.21-0.33-0.19-0.59c0.01-0.1,0.03-0.2,0.05-0.31
		c0.21-0.73,0.93-1.52,1.56-1.91c0.4-0.24,0.73-0.3,0.92-0.17c0.65,0.45,1.29,0.89,1.93,1.34
		C191.26,350.86,192.43,351.66,193.58,352.47z"/>
	<path class="st13" d="M196.3,283.92c-2.99-0.95-5.63-1.95-8.25-3.09c-9.8-4.26-24.2-12.81-33.63-18.47
		c-22.81-13.68-61.45-37.86-83.04-52.26l0.24-1.05c21.45,14.49,84.07,54.07,106.79,65.69c-0.63-0.8-1.27-1.62-1.92-2.46
		c-4.3-5.53-9.06-11.74-13.61-17.78c-15.42-20.49-14.91-20.96-17.55-23.67c-1.34-1.38-2.89-2.6-4.61-3.48
		c-15.55-8.03-45.81-25.41-63.08-35.77c-0.29-0.18-0.59-0.35-0.87-0.53c0.02-0.05,0.04-0.11,0.06-0.16c1.77-4.55,3.33-6.57,5.5-8.7
		c14.87,8.77,35.11,20.56,47.75,27.81c15.35,8.81,19.51,10.94,23.84,12.99c1.82,3.43,3.9,6.85,13.03,19.83
		C174.64,253.74,187.3,271.4,196.3,283.92z"/>
	<path class="st24" d="M186.88,330.01c0.67,0.01,1.34,0.05,2,0.1c-9.34,4.33-14.22,8.97-15.96,13.25c-0.18,0.37-0.36,0.76-0.52,1.16
		c-0.32,0.81-0.58,1.65-0.78,2.52l-4,2.31c-0.54-1.14-0.8-2.44-0.84-3.72C166.52,337.75,173.43,329.75,186.88,330.01z"/>
	<path class="st4" d="M172.92,343.37c2.63-5.29,7.9-7.88,14.96-5.69l-4.6,2.65c-2.97,0.27-5.34,1.72-6.99,4.03l-4.66,2.69
		c0.2-0.87,0.46-1.71,0.78-2.52C172.56,344.13,172.73,343.74,172.92,343.37z"/>
	<path class="st19" d="M183.27,340.32l-6.99,4.03C177.93,342.05,180.31,340.59,183.27,340.32z"/>
	<path class="st11" d="M176.49,272.28c0.65,0.84,1.29,1.65,1.92,2.46c-22.72-11.62-85.34-51.19-106.79-65.69l0.03-0.16
		c1.18-5.12,3.2-12.86,5.12-17.83c0.29,0.18,0.58,0.35,0.87,0.53c-1.77,4.95-3.56,11.85-4.64,16.55l-0.04,0.16
		C93.46,222.15,151.54,258.9,176.49,272.28z"/>
	<path class="st11" d="M76.78,191.05c-1.92,4.97-3.94,12.71-5.12,17.83l-0.03,0.16l-0.24,1.05c0.42,0.78,1.07,8.1,0.86,8.67
		l-0.01,0.02l-0.07,0.11c-0.96,1.54-1.53,2.88-1.62,4.75c-0.1,2.32,0.6,5,1.31,7.21c2.04,6.34,6.53,15.68,9.65,21.58
		c0.01,0.01,0.02,0.03,0.03,0.05v0.01c0.46,1.25,0.65,6.59,0.41,7.64l0.02,0.06c-0.61,2.57-0.67,5.22-0.44,7.85
		c0.53,6.12,2.89,13.88,5,19.66c17.31,12.97,37.16,26.99,55.13,39.06l-1.59,0.35c-18.16-12.2-38.23-26.38-55.73-39.48
		c-2.13-5.84-4.51-13.69-5.05-19.88c-0.24-2.66-0.18-5.33,0.45-7.93l-0.03-0.07c0.25-1.05,0.05-6.48-0.41-7.73
		c-3.16-5.97-7.71-15.44-9.78-21.87c-0.72-2.24-1.44-4.95-1.33-7.29c0.09-1.88,0.66-3.25,1.64-4.8l0.07-0.14
		c0.21-0.58-0.44-7.97-0.87-8.76l0.28-1.22c1.2-5.23,3.27-13.17,5.23-18.19c1.79-4.6,3.36-6.64,5.57-8.78
		c-4.1-2.35-9.19-5.31-13.51-7.97c0.04-0.03,0.07-0.07,0.12-0.1c4.61,2.93,10.7,6.48,15.49,9.22c0.05,0.03,0.09,0.05,0.14,0.07
		c-2.18,2.12-3.74,4.14-5.5,8.7C76.82,190.94,76.8,191,76.78,191.05z"/>
	<path class="st11" d="M140.07,327.12l1.59-0.35c-0.28,1.39-0.53,2.93-0.63,4.33l-1.59,0.39
		C139.53,330.06,139.79,328.51,140.07,327.12z"/>
	<path class="st13" d="M140.06,327.11c-0.15,0.75-0.3,1.54-0.41,2.32c-0.09,0.69-0.19,1.39-0.22,2.04
		c-19.72-11.84-43.6-26.84-62.74-39.68c-5.86-9.66-16.87-32.42-15.81-43.88l-0.04-0.07c0.02-0.22-0.02-0.6-0.09-1.07
		c-0.02-0.02-0.02-0.04-0.02-0.06c-0.34-2.21-1.37-6.54-1.99-7.75l-0.02-0.02c-0.15-0.41-0.32-0.84-0.49-1.29
		c0-0.02,0-0.04-0.02-0.06c-2.04-5.47-4.38-12.62-5.56-17.92c-0.47-2.17-0.94-4.85-0.73-7.06c0.19-2.1,0.9-3.39,2.15-5.06l0.15-0.21
		c0.02-0.07,0-0.26-0.07-0.58c-0.02-0.11-0.06-0.24-0.07-0.37c-0.43-1.89-1.57-5.92-1.74-6.54c-0.17-0.6-0.75-2.68-1.01-3.11
		c0.09-0.24,0.17-0.49,0.26-0.75c0.75-2.13,1.67-4.53,2.58-6.93c1.07-2.68,2.17-5.34,3.18-7.53c2.72-5.88,4.48-7.77,6.95-9.96
		c0.73,0.45,1.5,0.94,2.28,1.42c4.33,2.66,9.42,5.62,13.52,7.96c-0.24,0.24-0.49,0.49-0.71,0.73c-0.04,0.04-0.09,0.09-0.15,0.13
		c-1.78,1.89-3.17,3.95-4.72,7.94c-1.95,5.02-4.03,12.96-5.23,18.18l-0.28,1.22c0.43,0.81,1.09,8.18,0.88,8.76l-0.07,0.13
		c-0.99,1.55-1.55,2.92-1.65,4.81c-0.11,2.34,0.6,5.04,1.33,7.29c2.08,6.42,6.61,15.9,9.78,21.87c0.47,1.24,0.67,6.67,0.41,7.72
		l0.04,0.07c-0.64,2.6-0.69,5.28-0.45,7.94c0.52,6.18,2.92,14.03,5.04,19.87C101.84,300.75,121.9,314.92,140.06,327.11z"/>
	<path class="st25" d="M80.3,291.91c-0.35-0.2-0.68-0.43-0.98-0.7c-0.67-0.61-1.85-1.74-2.34-2.6
		c-6.05-10.55-15.03-30.03-14.19-41.02c-0.12-0.32-0.05-0.24-0.19-1.01c-0.21-1.64-1.36-6.79-2.17-8.43
		c-1.81-5.18-7.21-19.36-6.63-25.38c0.26-2.86,1.82-3.76,2.21-4.85c0.37-1.1-0.53-3.52-1.87-8.56c-0.09-0.32-0.17-0.6-0.25-0.87
		c-0.36-1.23-0.32-2.53,0.12-3.73c1.25-3.4,3.48-9.08,5.05-12.45c1.69-3.67,2.96-5.65,4.25-7.14c0.67-0.77,1.81-0.9,2.68-0.36
		c0.38,0.24,0.77,0.47,1.16,0.71c0.93,0.57,1.15,1.82,0.46,2.66c-2.79,3.36-5.38,9.83-7.13,14.28c-0.55,1.39-1.08,2.78-1.52,3.96
		c-0.7,1.87-0.78,3.9-0.23,5.82c0.7,2.46,1.57,5.7,1.81,6.87c0.11,0.56,0.19,1.01,0.02,1.54c-0.46,1.19-1.96,2.04-2.21,4.85
		c-0.52,5.45,4.29,19.1,6.2,24.22c0.15,0.39,0.3,0.79,0.43,1.16c0.93,1.86,2.42,8.68,2.32,9.93c-0.94,10,8.5,31.03,15.32,42.38
		L80.3,291.91z"/>
	<path class="st5" d="M40.39,242.25c-0.06-0.03-0.12-0.06-0.18-0.1H40.2c-1.82-0.93-3.75-1.56-5.33-1.34
		c0.69-3.13,1.81-6.74,3.95-9.12c0.31,0.38,0.65,0.74,1.01,1.08c1.99,1.9,5.82,4.29,14.75,10.04c0.26,0.16,0.51,0.33,0.76,0.5
		c1.85,1.18,3.66,2.35,5.4,3.46c0.07,0.48,0.12,0.85,0.11,1.07l0.03,0.07c-1.07,11.45,9.93,34.21,15.79,43.88
		c19.14,12.85,43.03,27.84,62.76,39.69l-0.94,1.64c-21.84-12.56-45.75-27.03-62.7-37.93c-1.35-0.88-2.67-1.73-3.93-2.55
		c-0.55-0.57-1.03-1.33-1.45-2.17c-0.63-1.25-1.14-2.66-1.54-3.8c-2.14-6.04-5.86-18.36-13.53-29.8c-0.95-1.42-1.97-2.82-3.05-4.18
		c0,0,0,0-0.01-0.01c-2.27-2.86-4.82-5.52-7.67-7.7C43.51,244.12,41.99,243.08,40.39,242.25z"/>
	<path class="st4" d="M47.67,190.07c-0.01,0.02-0.03,0.06-0.05,0.12c0.12-5.25,0.67-11.6,1.44-16.51
		c1.33-8.59,2.75-11.07,8.66-15.53c9.91-7.48,38.82-23.88,50.44-29.71c3.35-1.67,7.58-3.69,11.14-4.81c3.52-1.1,5.67-1.2,8.74-0.89
		c0.03,0,0.05,0.01,0.07,0.01v0.01c-3.26-0.25-6.5,0.22-18.13,6.23c-11.64,6.01-31.65,17.58-42.38,24.47
		c-10.73,6.9-12.17,9.13-12.75,11.6c-2.26,0.94-3.7,2.16-4.82,8.49c-0.86,4.85-1.54,12.7-1.59,19.07c-0.08-0.12-0.16-0.24-0.22-0.35
		c-0.37-0.63-0.61-1.2-0.6-1.79C47.62,190.28,47.66,190.12,47.67,190.07z"/>
	<path class="st10" d="M37.21,243.43c0.96-0.54,2.02-0.94,3.18-1.18c1.61,0.83,3.12,1.87,4.24,2.73c2.84,2.18,5.4,4.84,7.67,7.7
		c0.01,0.01,0.01,0.01,0.01,0.01c1.08,1.36,2.1,2.76,3.05,4.18c7.67,11.44,11.39,23.75,13.53,29.8c0.4,1.14,0.91,2.55,1.54,3.8
		c0.42,0.84,0.9,1.6,1.45,2.17c1.26,0.82,2.57,1.67,3.93,2.55c-1.37,2.3-3.26,4.27-5.65,5.65c-2.18,1.27-4.38,2.52-6.57,3.78
		l0.01,0.01c-3.16,1.82-6.75,2.37-10.38,1.91c7.02-0.35,11.4-6.41,11.39-15.55c0-15.41-11.84-33.77-24.69-39.19
		c-7.48-3.16-13.21-1.22-16.31,3.65c1.38-3.37,3.67-6.27,6.89-8.14c0.06-0.03,0.12-0.07,0.18-0.11c0.4-0.22,0.82-0.42,1.24-0.59
		c-0.01-0.04-0.01-0.07-0.02-0.12c1.14-0.67,2.28-1.32,3.42-1.98c0.58-0.33,1.15-0.67,1.73-1C37.1,243.49,37.15,243.46,37.21,243.43
		z"/>
	<path class="st4" d="M66.72,172.9c-0.04,0.03-0.07,0.07-0.12,0.1c-0.79-0.48-1.56-0.97-2.29-1.43c-2.48,2.2-4.24,4.1-6.95,9.96
		c-1.02,2.2-2.12,4.85-3.18,7.53c-0.93,2.39-1.84,4.8-2.59,6.93c-0.52-0.44-1.01-0.87-1.44-1.29c-0.67-0.66-1.23-1.32-1.73-2.1
		c0.05-6.38,0.73-14.22,1.59-19.07c1.12-6.33,2.56-7.55,4.82-8.49C56.21,166.29,58.16,167.73,66.72,172.9z"/>
	<path class="st6" d="M37.58,259.27c-0.05,0.03-0.09,0.05-0.14,0.08c-1.48,0.84-2.62,2.29-3.31,4.31c-0.07,0.23-0.14,0.46-0.21,0.71
		c-2.35,8.78,4.6,23.11,14.17,27.82c1.41,0.69,2.93,1.21,4.52,1.27c1.59,0.06,3.24-0.32,4.52-1.22c0.92-0.64,1.64-1.55,2.18-2.57
		c0.12-0.22,0.23-0.45,0.33-0.67v-0.01c0.07-0.18,0.15-0.37,0.22-0.56c0.55-1.5,0.73-3.08,0.73-4.65c0-0.05,0-0.11-0.01-0.16
		c-0.01-1.15-0.12-2.31-0.33-3.47c-0.14-0.8-0.31-1.6-0.53-2.38c1.42,3.89,2.24,7.89,2.24,11.69c0.01,2.52-0.37,4.77-1.08,6.68
		c-0.34,0.46-0.73,0.85-1.2,1.17c-0.08,0.05-0.16,0.1-0.24,0.15c-2.3,1.33-5.04,1.43-7.77,0.73c-7.01-1.8-13.42-8.75-17.06-15.07
		c-3.64-6.3-6.47-15.34-4.52-22.31c0.78-2.79,2.29-5.16,4.71-6.46c0.03-0.01,0.05-0.03,0.08-0.04c0.52-0.25,1.08-0.39,1.65-0.46
		c1.18,0.21,2.42,0.59,3.72,1.14c4.08,1.72,8.05,4.93,11.45,8.96c-1.03-1.03-2.16-2.01-3.37-2.84c-1-0.69-2.05-1.29-3.15-1.74v-0.01
		c-0.02-0.01-0.03-0.01-0.05-0.02c-1.75-0.72-3.42-1.01-4.91-0.87C39.26,258.57,38.37,258.84,37.58,259.27z"/>
	<path class="st19" d="M34.89,254.32c-0.03,0.01-0.05,0.03-0.08,0.04c-2.42,1.3-3.93,3.67-4.71,6.46
		c-1.95,6.97,0.88,16.01,4.52,22.31c3.65,6.32,10.06,13.28,17.06,15.07c2.73,0.7,5.47,0.6,7.77-0.73c0.08-0.05,0.16-0.1,0.24-0.15
		c0.36-0.22,0.71-0.48,1.05-0.78c-2.37,5.9-8.02,8.38-15.39,5.27c-3.54-1.49-6.55-3.82-9.21-6.51c-5.17-5.25-9.31-12.22-11.3-19.52
		c-1.31-4.82-1.88-10.76-0.03-15.43c1.91-4.81,6.04-7.53,11.72-6.5C35.96,253.92,35.41,254.07,34.89,254.32z"/>
	<path class="st7" d="M59.32,289.69c-0.54,1.01-1.26,1.93-2.18,2.57c-1.28,0.9-2.93,1.28-4.52,1.22c-1.59-0.06-3.12-0.58-4.52-1.27
		c-9.57-4.72-16.52-19.04-14.17-27.82c0.07-0.24,0.14-0.48,0.21-0.71l1.54,0.37c-0.05,0.14-0.07,0.29-0.09,0.42
		c-0.02,0.25,0.04,0.47,0.19,0.59c1.58,1.39,3.16,2.77,4.74,4.15c-0.02,0.05-0.05,0.11-0.07,0.16c-0.4,1.01-0.52,2.2-0.39,3.46
		c-0.59,0.1-1.18,0.2-1.77,0.3v0.01c-0.65,0.12-1.24,0.79-1.29,1.76c-0.05,1.17,0.76,2.03,1.6,2.01v0.01
		c0.84-0.01,1.67-0.02,2.51-0.03l0.01-0.01c0.84,2,2.1,3.93,3.6,5.4c-0.32,1.03-0.63,2.07-0.95,3.1c-0.14,0.45-0.01,0.99,0.46,1.45
		c0.96,0.95,2.67,0.81,3.08-0.07c0.01-0.02,0.02-0.03,0.03-0.05c0.33-0.67,0.64-1.36,0.96-2.03c0.52,0.19,1.02,0.31,1.49,0.35
		c0.46,0.42,0.9,0.79,1.33,1.13c0.63,1.93,1.25,3.86,1.88,5.8c0.05,0.18,0.28,0.31,0.67,0.33c1.1,0.07,3.1-0.8,2.99-1.3
		c-0.14-0.63-0.27-1.27-0.4-1.9C57.23,289.42,58.27,289.65,59.32,289.69z"/>
	<path class="st6" d="M51.11,286.14c-0.13-0.38-0.25-0.77-0.37-1.15c0.46-0.06,0.88-0.21,1.26-0.43c0.05-0.03,0.09-0.05,0.14-0.08
		c0.77-0.44,1.54-0.88,2.31-1.33c0.24,0.28,0.5,0.56,0.74,0.84c0.35,1.69,0.71,3.39,1.07,5.08c0.14,0.63,0.27,1.27,0.4,1.9
		c0.1,0.5-1.89,1.37-2.99,1.3c-0.39-0.03-0.62-0.16-0.67-0.33C52.36,290.01,51.74,288.07,51.11,286.14z"/>
	<path class="st6" d="M53.53,268.68c0.38-0.26,0.76-0.51,1.15-0.77c0.16,0.22,0.3,0.45,0.44,0.67h0.01c0.61,0.95,1.19,1.91,1.74,2.9
		c-0.09,0.36-0.25,0.68-0.48,0.92c-0.03,0.03-0.05,0.05-0.08,0.08c-0.38,0.36-0.91,0.52-1.49,0.37c-0.63-0.17-1.19-0.66-1.55-1.2
		C52.38,270.36,52.67,269.16,53.53,268.68z"/>
	<path class="st5" d="M58.23,237.6c-1.34-0.87-2.68-1.74-4.02-2.61c-10.63-6.89-12.89-8.22-14.84-11.21
		c-0.03-5.08,0.87-11.68,2.21-15.57c1.6-4.67,3.8-5.41,7.31-5.66c0.2,0.15,0.39,0.31,0.6,0.46c0.18,0.17,0.37,0.34,0.57,0.51
		c1.02,0.89,2.28,1.91,4.11,3.25c0.06,0.31,0.09,0.52,0.07,0.58l-0.15,0.22c-1.25,1.67-1.96,2.95-2.15,5.05
		c-0.2,2.2,0.26,4.89,0.73,7.06C53.84,224.97,56.17,232.12,58.23,237.6z"/>
	<path class="st6" d="M52.74,266.13c0.03,0.5-0.27,1-0.92,1.26c-0.47,0.2-1.03,0.21-1.52,0.15c-0.95-0.13-2.35-0.72-2.27-1.46
		c0.04-0.72,0.09-1.44,0.13-2.16c0-0.02,0-0.04,0.01-0.06c0.05-0.91,0.11-1.82,0.16-2.74c1.22,0.83,2.35,1.8,3.37,2.84
		c0.33,0.39,0.66,0.8,0.98,1.2C52.7,265.48,52.72,265.81,52.74,266.13z"/>
	<path class="st18" d="M44.39,195.96c0.01-0.01,0.03-0.03,0.04-0.05c0.01-0.02,0.03-0.05,0.05-0.08c0.82-1.24,2.41-4.06,3.05-5.46
		c0.03-0.07,0.06-0.14,0.08-0.18c0.03-0.05,0.04-0.1,0.05-0.12c-0.01,0.05-0.05,0.21-0.05,0.4c-0.01,0.59,0.22,1.16,0.6,1.79
		c0.06,0.11,0.14,0.23,0.22,0.35c0.5,0.78,1.06,1.44,1.73,2.1c0.42,0.41,0.92,0.85,1.44,1.29c-0.1,0.26-0.18,0.51-0.27,0.76
		c0.26,0.41,0.83,2.5,1,3.11c0.17,0.62,1.32,4.64,1.75,6.53c-1.99-1.43-3.54-2.58-3.97-2.91c-0.21-0.16-0.42-0.32-0.63-0.48
		c-0.2-0.15-0.4-0.31-0.6-0.46c-0.74-0.59-1.51-1.21-2.21-1.86c-0.74-0.68-1.6-1.58-2.16-2.34h0.01c-0.22-0.31-0.5-0.69-0.58-1.07
		c-0.1-0.45,0.09-0.86,0.38-1.24C44.35,196.01,44.37,195.99,44.39,195.96z"/>
	<path class="st6" d="M43.53,265.83c0.08,0.18,0.16,0.37,0.24,0.56c-0.5,0.29-0.98,0.56-1.47,0.86c-0.08,0.04-0.16,0.08-0.23,0.13
		c-0.65,0.37-1.19,0.98-1.56,1.82c-1.58-1.38-3.16-2.76-4.74-4.15c-0.15-0.12-0.21-0.34-0.19-0.59c0.01-0.14,0.04-0.28,0.09-0.42
		c0.38-1.08,1.78-2.21,2.37-2c0.03,0.01,0.06,0.03,0.08,0.04l0.01,0.01c0.64,0.44,1.28,0.88,1.92,1.33
		C41.21,264.22,42.37,265.02,43.53,265.83L43.53,265.83z"/>
	<path class="st7" d="M40.76,259.69L40.76,259.69c-0.43,1.2-0.64,2.48-0.71,3.73c-0.64-0.44-1.28-0.88-1.92-1.33l-0.01-0.01
		c-0.02-0.01-0.05-0.03-0.08-0.04c-0.59-0.21-1.99,0.93-2.37,2l-1.54-0.37c0.69-2.02,1.83-3.47,3.31-4.31
		c0.05-0.03,0.09-0.05,0.14-0.08c0.8-0.44,1.68-0.7,2.64-0.79v0.01C40.4,258.89,40.58,259.29,40.76,259.69z"/>
	<path class="st26" d="M35.32,244.52c-1.14,0.66-2.28,1.31-3.42,1.98c-0.07-0.36-0.12-0.72-0.14-1.08
		c-0.01-0.12-0.01-0.24-0.01-0.37c0.01-2.08,0.97-3.95,3.12-4.24c1.58-0.22,3.5,0.42,5.33,1.34c-1.06,0.33-2.1,0.78-2.99,1.28
		c-0.05,0.03-0.11,0.06-0.16,0.09C36.47,243.85,35.9,244.19,35.32,244.52z"/>
	
		<linearGradient id="SVGID_00000103966934801579002590000005405428031770530193_" gradientUnits="userSpaceOnUse" x1="122.5029" y1="200.7288" x2="111.4599" y2="234.1374">
		<stop  offset="0" style="stop-color:#9EAABA"/>
		<stop  offset="1" style="stop-color:#737E8D"/>
	</linearGradient>
	<path style="fill:url(#SVGID_00000103966934801579002590000005405428031770530193_);" d="M120.68,238.98
		c-1.84-1.16-3.67-2.3-5.49-3.45l-6.48-25.83c1.8,1.03,3.61,2.06,5.41,3.07L120.68,238.98z"/>
	
		<linearGradient id="SVGID_00000065765277548613622660000005910634434259185804_" gradientUnits="userSpaceOnUse" x1="147.0381" y1="210.6939" x2="134.3978" y2="248.9347">
		<stop  offset="0" style="stop-color:#9EAABA"/>
		<stop  offset="1" style="stop-color:#737E8D"/>
	</linearGradient>
	<path style="fill:url(#SVGID_00000065765277548613622660000005910634434259185804_);" d="M144.17,253.48
		c-1.78-1.09-3.6-2.21-5.43-3.33l-6.91-27.51c1.87,1.01,3.65,1.97,5.32,2.85L144.17,253.48z"/>
	
		<linearGradient id="SVGID_00000078747418342625419240000009566367902117113747_" gradientUnits="userSpaceOnUse" x1="131.2261" y1="205.5425" x2="120.2881" y2="238.6334">
		<stop  offset="0" style="stop-color:#9EAABA"/>
		<stop  offset="1" style="stop-color:#737E8D"/>
	</linearGradient>
	<path style="fill:url(#SVGID_00000078747418342625419240000009566367902117113747_);" d="M128.02,243.55
		c-0.9-0.56-1.82-1.12-2.72-1.69l-6.67-26.56c0.9,0.52,1.82,1.03,2.7,1.54L128.02,243.55z"/>
	
		<linearGradient id="SVGID_00000064341822984839862100000005484251961276462988_" gradientUnits="userSpaceOnUse" x1="100.3453" y1="189.0429" x2="90.2091" y2="219.7081">
		<stop  offset="0" style="stop-color:#9EAABA"/>
		<stop  offset="1" style="stop-color:#737E8D"/>
	</linearGradient>
	<path style="fill:url(#SVGID_00000064341822984839862100000005484251961276462988_);" d="M97.48,224.3
		c-0.94-0.58-1.85-1.16-2.75-1.74l-6.14-24.5c0.88,0.52,1.78,1.05,2.7,1.59L97.48,224.3z"/>
	<path class="st7" d="M184.27,274.13c2.25,2.23,2.56,6.41,1.57,9.46c-0.98,3.05-7.39,5.14-7.39,5.14
		c-4.33,1.25-11.16,2.52-15.62,1.91c-0.88-0.8-1.41-1.93-1.67-3.33c-0.54-2.81-0.06-6.35,1.67-8.99
		C168.53,275.9,179.35,273.91,184.27,274.13z"/>
	<path class="st7" d="M185.42,271.38c-5.47-0.58-9.46,0.24-14.53,2.12c-3.18,1.18-5.67,2.23-8.07,4.81
		c-0.52-0.26-2.96-1.57-2.62-2.06c0.02-0.02,0.04-0.04,0.04-0.04C165.85,271.9,178.81,268.89,185.42,271.38z"/>
	<path class="st7" d="M184.26,274.13c-4.91-0.22-15.73,1.76-21.44,4.18c2.4-2.58,4.89-3.63,8.07-4.81c5.08-1.87,9.06-2.7,14.53-2.12
		c0.07,0.04,0.13,0.06,0.19,0.09l-0.02,0.04C186.12,272.07,184.79,273.57,184.26,274.13z"/>
	<path class="st7" d="M188.69,280.87c-0.15,0.44-0.27,0.71-0.27,0.71c-0.88,5.28-10.11,8.77-15.23,9.92
		c-3.9,0.76-8.98,1.23-12.71-0.18c0.59,0.2,1.82-0.41,2.34-0.68c4.46,0.61,11.29-0.66,15.62-1.91c0,0,6.41-2.09,7.39-5.14
		c0.98-3.05,0.68-7.22-1.57-9.46c0.52-0.56,1.84-2.07,1.33-2.62l0.01-0.03c1.69,0.66,3.1,1.74,3.95,3.36
		C190.34,276,189.17,279.55,188.69,280.87z"/>
	<path class="st7" d="M162.59,278.68c-2.72,3.63-2.02,12.64-2.02,12.64c0.02,0,0.04,0.02,0.06,0.02c-0.06,0-0.11,0-0.15-0.02
		l-0.02-0.02c-6.87-2.6-6.12-10.53-0.26-15.06c-0.02,0.04-0.04,0.07-0.04,0.11c0,0.54,2.17,1.7,2.66,1.95
		C162.74,278.44,162.67,278.55,162.59,278.68z"/>
	<path class="st7" d="M162.82,290.63c-0.47,0.26-1.55,0.79-2.19,0.71c-0.02,0-0.04-0.02-0.06-0.02c0,0-0.69-9.01,2.02-12.64
		c-1.54,2.58-1.97,5.94-1.44,8.62C161.41,288.7,161.94,289.85,162.82,290.63z"/>
	<path class="st7" d="M277.81,210.6c3.79,0,2.55,10.03,1.63,13.73c0.28-1.18,0.45-2.37,0.57-3.57c0.16-1.87,0.29-6.08-0.9-7.5
		C279.1,212.14,278.91,210.62,277.81,210.6z"/>
	<path class="st7" d="M279.1,213.25c1.19,1.42,1.06,5.63,0.9,7.5c-0.11,1.21-0.29,2.39-0.57,3.57c-0.88,3.62-2.72,7.63-4.67,10.76
		c-0.59,0.99-1.95,1.63-3.1,1.88c-0.3-2.65-0.13-8.07,0.19-11.34C273.33,222.64,277.41,215.28,279.1,213.25z"/>
	<path class="st7" d="M277.79,210.6c1.11,0,1.32,1.53,1.31,2.65c-1.69,2.03-5.77,9.4-7.25,12.38c-0.63-0.06-1.19-0.13-1.72-0.21
		c-0.19-0.03-1.86-0.3-1.86-0.49C269.27,221.35,274.03,210.63,277.79,210.6z"/>
	<path class="st7" d="M267.29,229.64c0.24-1.77,0.68-3.71,0.99-4.71c0,0.19,1.67,0.46,1.86,0.49c0.52,0.08,1.09,0.15,1.72,0.21
		c-0.32,3.27-0.49,8.69-0.19,11.34c-1.03,0.11-1.97-0.35-2.29-0.67c-0.01-0.03-0.03-0.07-0.06-0.1c0.24-0.56,0.5-1.3,0.38-1.89
		c-0.08-0.43-0.35-0.8-0.63-1.18C268.52,232.34,267.29,230.58,267.29,229.64z"/>
	<path class="st31" d="M138.21,149.54l-10.45-6.04l-7.65,4.42l10.45,6.04l-10.04,5.8l-10.45-6.04l-7.65,4.42l10.45,6.04l-6.18,3.57
		l26,15.01c8.85,5.11,23.2,5.11,32.05,0l5.1-2.94c8.85-5.11,8.85-13.39,0-18.5l-26-15.01L138.21,149.54z M164.21,164.55
		c5.74,3.31,5.74,8.7,0,12.02l-5.1,2.94c-5.74,3.31-15.07,3.31-20.81,0l-20.38-11.77c3.17-1.83,22.96-13.26,25.91-14.96
		L164.21,164.55z"/>
	<path class="st32" d="M227.58,312.86c2.51,4.76,2.85,9.5,0.76,10.6c-2.09,1.1-5.81-1.86-8.32-6.62c-2.51-4.76-2.85-9.5-0.76-10.6
		C221.35,305.14,225.08,308.1,227.58,312.86z"/>
	<path class="st33" d="M143.36,327.45l-2.34,3.63l-1.37-1.65c0.11-0.79,0.26-1.57,0.41-2.32c-18.17-12.19-38.22-26.37-55.73-39.48
		c-2.12-5.84-4.51-13.69-5.04-19.87c-0.24-2.66-0.19-5.34,0.45-7.94l-0.04-0.07c0.26-1.05,0.06-6.48-0.41-7.72
		c-3.16-5.97-7.7-15.45-9.78-21.87c-0.73-2.25-1.44-4.94-1.33-7.29c0.09-1.89,0.66-3.26,1.65-4.81l0.07-0.13
		c0.21-0.58-0.45-7.96-0.88-8.76l0.28-1.22c1.2-5.23,3.28-13.17,5.23-18.18c1.55-3.99,2.94-6.05,4.72-7.94
		c0.06-0.04,0.11-0.09,0.15-0.13c0.28-0.24,0.51-0.51,0.71-0.73l3.9,2.25c-2.06,2.02-3.8,4.16-5.43,8.35
		c-1.87,4.89-3.86,12.34-5.09,17.75l-0.17,0.77c0.54,2.42,1.05,8.35,0.69,9.31l-0.06,0.21l-0.11,0.17
		c-0.99,1.59-1.37,2.62-1.42,3.97c-0.07,1.63,0.34,3.78,1.24,6.55c1.95,6.11,6.26,15.09,9.4,21.05l0.06,0.06l0.3,0.71v0.11
		c0.45,1.78,0.6,5.92,0.45,7.73l0.04,0.11l-0.11,0.56c-0.51,2.14-0.64,4.51-0.39,7.25c0.54,6.35,3.09,14.21,4.7,18.67
		c16.76,12.55,36.15,26.26,54.61,38.65L143.36,327.45z"/>
	<path class="st25" d="M116.11,205.16c18.03,10.41,32.02,19.22,31.24,19.67c-0.78,0.45-16.03-7.62-34.07-18.04
		c-18.03-10.41-32.02-19.22-31.24-19.67C82.82,186.67,98.08,194.75,116.11,205.16z"/>
	<path class="st13" d="M89.07,241.74l-6.15-4.08c-3.17-2.1-5.57-6.47-5.36-9.75l0.09-1.49l17.62,11.69l-0.09,1.49
		C94.97,242.88,92.23,243.84,89.07,241.74z"/>
	<path class="st34" d="M268.85,291.17c0,1.88-1.52,3.4-3.4,3.4c-1.88,0-3.4-1.52-3.4-3.4c0-1.88,1.52-3.4,3.4-3.4
		C267.33,287.77,268.85,289.29,268.85,291.17z"/>
	<path class="st35" d="M89.92,242.34l-6.15-4.08c-3.17-2.1-5.57-6.47-5.36-9.75l0.09-1.49l17.62,11.69l-0.09,1.49
		C95.82,243.48,93.08,244.44,89.92,242.34z"/>
	<path class="st25" d="M87.52,236.27l-6.82-4.47c-0.48-0.31-0.84-0.96-0.81-1.45l0,0c0.03-0.49,0.44-0.64,0.91-0.33l6.82,4.47
		c0.48,0.31,0.84,0.96,0.81,1.45l0,0C88.4,236.44,87.99,236.58,87.52,236.27z"/>
	<path class="st23" d="M381.36,183C381.35,183,381.35,183,381.36,183c-2.59-1.47-3.83-5.23-0.95-9.83c2.12-3.37,5.73-6.11,8.07-6.88
		c0.83-0.27,1.72-0.39,2.44,0.01c0,0,4.8,2.77,4.9,2.83c3.3,1.9,4.88,6.01,3.44,10.4c-0.33-0.31-1.64-1.43-1.88-1.67
		c-0.23-0.23-0.63-0.29-0.96-0.22c-1.4,0.24-3.08,2.72-2.55,4.39c0.22,0.7,0.85,0.82,2.27,2.34c-3.09,2.81-7,3.12-9.94,1.42
		C384.58,184.87,382.97,183.93,381.36,183z"/>
	<path class="st18" d="M395.29,239v3.9c0.04,1.78-0.39,3.37-1.16,4.91c0,0.02,0,0.02,0,0.02c-0.77,1.5-1.54,2.38-2.53,3.46
		c-12.51,12.53-42.61,11.03-52.31-1.11c-1.65-2.06-2.72-4.48-2.72-7.12v-4.1c0,2.66,1.07,5.08,2.72,7.12
		c9.7,12.15,39.8,13.63,52.31,1.12c0.99-1.09,1.76-1.99,2.53-3.46c0-0.02,0-0.02,0-0.02C394.86,242.22,395.29,240.7,395.29,239z"/>
	<path class="st11" d="M395.29,206.9V239c0,1.7-0.43,3.22-1.16,4.72c0,0,0,0,0,0.02c-0.77,1.48-1.54,2.38-2.53,3.46
		c-12.51,12.51-42.61,11.03-52.31-1.12c-1.65-2.04-2.72-4.46-2.72-7.12v-32.31c0,4.81,3.52,8.8,7.75,11.46
		c11.33,7.1,30.6,7.3,42.36,0.51C391.17,216.04,395.18,211.96,395.29,206.9z"/>
	<path class="st5" d="M336.57,206.65c0-20.66,0-41.32,0-61.99h0.01c0,8.92,4.83,15.35,12.45,17.7
		c19.53,6.02,46.24-15.76,46.27-37.29h0c0,14.58,0,29.16,0,43.75c-1.43-0.82-2.85-1.65-4.28-2.47c-0.74-0.48-1.7-0.34-2.54-0.07
		c-2.34,0.77-5.95,3.51-8.07,6.88c-2.88,4.6-1.64,8.36,0.94,9.83c0,0,0.01,0,0.01,0.01c1.61,0.93,3.23,1.86,4.84,2.79
		c2.68,1.55,6.17,1.42,9.1-0.74c0,7.14,0,14.27,0,21.41c0,5.35-3.95,9.46-8.6,12.15c-11.76,6.79-31.04,6.6-42.36-0.5
		C340.1,215.46,336.57,211.47,336.57,206.65z M353.37,194.38c0-3,0-5.99,0-8.99c-0.8-0.22-1.61-0.47-2.38-0.73c0-2.16,0-4.32,0-6.47
		c-1.05-0.36-2.11-0.78-3.08-1.21c0,2.16,0,4.32,0,6.48c-1.8-0.81-3.56-1.79-5.16-2.98c0-2.16,0-4.32,0-6.48
		c-0.78-0.58-1.45-1.15-2.09-1.78c0,2.16,0,4.32,0,6.48c-0.46-0.45-0.87-0.9-1.26-1.37c0,2.99,0,5.97,0,8.95
		c0,4.06,1.47,9.3,4.52,12.01c0,1.95,0,3.89,0,5.83c0.87,0.57,1.73,1.05,2.59,1.49c0-1.95,0-3.89,0-5.84
		C349.84,200.8,353.37,198.56,353.37,194.38z"/>
	<path class="st36" d="M395.45,183.68L395.45,183.68c-0.41-0.36-0.83-0.73-1.24-1.1c-1.29-1.29,0.57-4.84,2.33-4.96
		c0.24-0.02,0.64,0.03,0.85,0.24c0.19,0.19,1.04,0.92,1.23,1.09C396.97,177.66,393.86,182.12,395.45,183.68z"/>
	<path class="st18" d="M384.31,107.89c10.38,4.13,13.13,15.36,9.36,26.5c-6.26,18.51-28.38,32.99-44.65,27.98
		c-7.61-2.35-12.45-8.78-12.45-17.7C336.58,122.19,365.2,100.3,384.31,107.89z M390.07,135.1c5.93-15.77-3.17-28.02-19.31-25.14
		c-12.44,2.22-24.48,12.75-28.96,24.68c-5.33,14.14,1.42,25.99,15.54,25.54C370.4,159.77,384.93,148.77,390.07,135.1z"/>
	<path class="st7" d="M353.37,185.39c0,8.76,0.14,9.72-0.31,11.04c-0.9,2.67-3.68,4.23-6.55,3.35c0,1.94,0,3.89,0,5.84
		c-0.86-0.44-1.72-0.93-2.59-1.49c0-1.95,0-3.89,0-5.83c-3.05-2.7-4.52-7.95-4.52-12.01c0-2.98,0-5.97,0-8.95
		c0.39,0.47,0.8,0.92,1.26,1.37c0-2.16,0-4.32,0-6.48c0.64,0.63,1.32,1.2,2.09,1.78c0,2.16,0,4.32,0,6.48
		c1.6,1.19,3.36,2.17,5.16,2.98c0-2.16,0-4.32,0-6.48c0.96,0.43,2.03,0.85,3.08,1.21c0,2.16,0,4.31,0,6.47
		C351.75,184.92,352.57,185.17,353.37,185.39z M350.04,193.41c0-2.03,0-4.06,0-6.1c-3.14-1.17-6.29-2.83-8.8-5.08
		c0,5.74,0,6.11,0.01,6.32c0.09,3.13,2,7.35,4.99,8.11C348.24,197.17,350.04,195.82,350.04,193.41z"/>
	<path class="st5" d="M350.04,187.31c0,2.03,0,4.06,0,6.1c0,2.41-1.81,3.76-3.8,3.25c-2.99-0.76-4.9-4.98-4.99-8.11
		c-0.01-0.21-0.01-0.58-0.01-6.32C343.75,184.48,346.9,186.15,350.04,187.31z"/>
	<path class="st37" d="M285.51,255.84L285.51,255.84c4.58-2.65,9.17-5.3,13.76-7.95c4.82-3.22,10.64-2.23,12.81,3.18
		c17.74,43.12,16.52,39.99,16.52,40.18c1.05,2.37,3.84,1.46,4.88,1.12c86.16-37.84,49.34-21.76,58.79-25.82
		c4.3-1.65,8.12-6.89,8.35-11.31c0-22.37,0-40.1,0-60.16c0.14-3.14-1.43-7.65-5.18-11.4v0c-1.6-1.58,1.53-6.02,3.16-4.73
		c0.01,0,0.01,0.01,0.02,0.01c0.01,0.01,0.01,0.01,0.02,0.02c4.19,3.53,7.44,9.62,7.6,15.16c0,110.3,0,5.7,0,60.13
		c0,7.5-5.19,14.32-10.94,17.07c-0.19,0.09-58.61,25.74-58.8,25.82c-5.43,2.59-11.14,1.35-13.23-3.88
		c-17.84-43.38-16.54-40.47-17.04-41c-1.13-1.23-3.17-0.13-3.41-0.01c-4.57,2.64-9.15,5.28-13.72,7.92c0.45-0.27,0.72-0.78,0.65-1.5
		C289.59,256.88,287.03,254.96,285.51,255.84z"/>
	<path class="st37" d="M265.45,293.98c-1.14,0-2.21-0.7-2.63-1.83c-0.31-0.82-7.17-20.43,24.7-37.46c1.37-0.73,3.07-0.22,3.8,1.15
		c0.36,0.68,4.27,0.6,3.66,0.96c-1.75,1.01-4.12,2.47-4.81,2.84c-27.59,14.74-22.15,30.39-22.09,30.54c0.54,1.45-0.2,3.07-1.65,3.61
		C266.11,293.92,265.77,293.98,265.45,293.98z"/>
	<path class="st18" d="M395.29,206.3v3.9c0.04,1.78-0.39,3.37-1.16,4.91c0,0.02,0,0.02,0,0.02c-0.77,1.5-1.54,2.38-2.53,3.46
		c-12.51,12.53-42.61,11.03-52.31-1.1c-1.65-2.06-2.72-4.48-2.72-7.12v-4.1c0,2.66,1.07,5.08,2.72,7.12
		c9.7,12.15,39.8,13.63,52.31,1.12c0.99-1.09,1.76-1.99,2.53-3.46c0-0.02,0-0.02,0-0.02C394.86,209.52,395.29,208.01,395.29,206.3z"
		/>
	<path class="st18" d="M356.57,161.34c-6.36,0-11.58-2.47-14.69-6.97c-3.59-5.19-4.01-12.53-1.15-20.13
		c4.69-12.47,17.23-23.15,29.83-25.4c1.64-0.29,3.25-0.44,4.79-0.44c6.33,0,11.53,2.49,14.65,7c3.58,5.18,4,12.5,1.14,20.11
		c-5.28,14.04-20.12,25.39-33.77,25.82C357.1,161.33,356.83,161.34,356.57,161.34z"/>
	<path class="st5" d="M390.07,135.1c-5.14,13.67-19.68,24.67-32.73,25.08c-14.18,0.45-20.84-11.47-15.54-25.54
		c4.49-11.93,16.52-22.45,28.96-24.68C386.95,107.07,395.99,119.37,390.07,135.1z M381.67,130.67c0.92-1.21,0.7-2.42-0.06-3
		c-0.13-0.1,0.33,0.17-7.35-4.26c-6.26-3.61-6.02-3.54-6.51-3.64c-0.91-0.19-1.93,0.17-2.62,0.8c-0.46,0.42-6.04,7.49-6.38,7.87
		c-0.48,0.59-0.91,1.06-1.02,1.85c-0.1,0.75,0.18,1.42,0.86,1.83c0.17,0.1,13.13,7.59,13.32,7.67c0.9,0.36,2.3,0.1,3.3-1.08
		C375.31,138.59,381.66,130.69,381.67,130.67z"/>
	<path class="st7" d="M372.75,141.07c-0.45,0-0.87-0.08-1.26-0.23c-0.33-0.13-13.37-7.68-13.49-7.75c-1.03-0.62-1.56-1.73-1.39-2.95
		c0.14-1.05,0.2-1.12,3.11-4.73c0.91-1.13,2.12-2.63,3.74-4.65l0.09-0.11c0.23-0.3,0.49-0.63,0.81-0.92
		c0.81-0.73,1.86-1.15,2.88-1.15c0.25,0,0.5,0.03,0.74,0.08c0.54,0.11,0.54,0.11,3.17,1.64l4.62,2.68c6.38,3.68,6.38,3.68,6.53,3.8
		c1.17,0.91,1.64,2.78,0.27,4.59c-0.05,0.07-6.38,7.95-6.5,8.09C375.21,140.47,373.99,141.07,372.75,141.07z"/>
	<path class="st38" d="M369.81,120.81c-0.59,0.19-1.15,0.51-1.63,0.95c-0.32,0.29-0.58,0.63-0.81,0.92l-0.09,0.11
		c-1.61,2.02-2.82,3.52-3.74,4.64c-2.92,3.61-2.97,3.68-3.11,4.73c-0.05,0.35-0.04,0.68,0.02,1.01c-1.09-0.63-1.81-1.05-1.85-1.07
		c-0.67-0.4-0.95-1.08-0.86-1.83c0.13-0.98,0.02-0.58,6.61-8.81c0.24-0.31,0.49-0.65,0.78-0.91c0.69-0.63,1.7-0.99,2.62-0.8
		C368.07,119.82,368.08,119.82,369.81,120.81z"/>
	<path class="st39" d="M373.2,122.78c-0.88,0.1-1.76,0.5-2.45,1.13c-0.32,0.29-0.58,0.63-0.81,0.92l-0.09,0.11
		c-1.61,2.02-2.83,3.52-3.74,4.65c-2.92,3.61-2.98,3.68-3.11,4.73c-0.01,0.11-0.02,0.21-0.02,0.32c-0.94-0.54-1.81-1.04-2.52-1.46
		c-0.06-0.32-0.07-0.66-0.02-1.01c0.14-1.05,0.19-1.12,3.11-4.73c0.91-1.13,2.12-2.63,3.74-4.64l0.09-0.11
		c0.23-0.29,0.5-0.63,0.81-0.92c0.48-0.43,1.04-0.75,1.63-0.95C370.56,121.25,371.63,121.87,373.2,122.78z"/>
	<path class="st14" d="M377.04,125c-0.03,0-0.06-0.01-0.09-0.02c-0.24-0.05-0.49-0.08-0.74-0.08c-1.03,0-2.08,0.42-2.88,1.15
		c-0.32,0.29-0.58,0.63-0.81,0.92l-0.09,0.11c-1.61,2.02-2.83,3.52-3.74,4.64c-2.6,3.22-2.93,3.62-3.07,4.42
		c-0.9-0.51-1.8-1.03-2.64-1.52c0-0.1,0.01-0.21,0.02-0.32c0.14-1.06,0.2-1.12,3.11-4.73c0.91-1.13,2.12-2.63,3.74-4.65l0.09-0.11
		c0.23-0.3,0.49-0.63,0.81-0.92c0.7-0.63,1.57-1.03,2.45-1.13c0.33,0.19,0.69,0.4,1.07,0.62C375.34,124.02,376.26,124.55,377.04,125
		z"/>
	<path class="st40" d="M378.63,125.92c-0.73,0.17-1.42,0.53-1.99,1.05c-0.32,0.3-0.58,0.63-0.81,0.92l-0.09,0.11
		c-1.62,2.02-2.83,3.52-3.74,4.65c-2.91,3.61-2.97,3.68-3.11,4.73c-0.03,0.22-0.04,0.44-0.02,0.65c-0.98-0.56-2.11-1.21-3.25-1.87
		c0.14-0.8,0.46-1.2,3.07-4.42c0.91-1.13,2.12-2.63,3.74-4.64l0.09-0.11c0.23-0.3,0.49-0.63,0.81-0.92
		c0.81-0.73,1.86-1.15,2.88-1.15c0.25,0,0.5,0.03,0.74,0.08c0.03,0.01,0.06,0.01,0.09,0.02c0,0,0,0,0.01,0
		C377.65,125.35,378.18,125.66,378.63,125.92z"/>
	<path class="st4" d="M381.67,130.67c-0.02,0.02-6.36,7.92-6.46,8.03c-1,1.18-2.39,1.44-3.3,1.08c-0.06-0.02-1.33-0.75-3.06-1.74h0
		c-0.01-0.21-0.01-0.43,0.02-0.65c0.14-1.05,0.2-1.12,3.11-4.73c0.91-1.13,2.12-2.63,3.74-4.65l0.09-0.11
		c0.23-0.29,0.49-0.63,0.81-0.92c0.57-0.52,1.27-0.88,1.99-1.05c3.13,1.81,2.89,1.67,2.99,1.75
		C382.37,128.25,382.59,129.46,381.67,130.67z"/>
	<path class="st41" d="M355.97,146.43c-0.08-0.05-0.14-0.1-0.2-0.17c0-0.01-0.01-0.01-0.01-0.02c-0.33-0.47,0.06-1.17,0.68-1.38
		c0.56-0.19,0.99,0.08,1.06,0.49C356.82,144.98,355.85,145.72,355.97,146.43z"/>
	<path class="st39" d="M358.81,141.86c-0.39-0.37-0.92-0.64-1.48-0.77c-3.09-0.69-6.61,2.79-5.36,5.56c1.5,1.46,4.2,0.92,5.79-0.71
		C359,144.7,359.35,143.07,358.81,141.86z M354.95,144.72c-0.3,0.39-0.9,0.6-1.31,0.36c0,0-0.02,0-0.02-0.02
		c-0.58-0.34-0.3-1.27,0.49-1.54c0.11-0.04,0.22-0.06,0.34-0.06c0.11,0,0.22,0,0.32,0.06c0.06,0,0.09,0.04,0.13,0.07
		c0.06,0.04,0.09,0.09,0.15,0.15c0.06,0.07,0.09,0.15,0.09,0.24C355.21,144.2,355.16,144.48,354.95,144.72z M355.83,146.29
		c-0.02,0-0.04-0.02-0.06-0.04c-0.07-0.11-0.15-0.24-0.13-0.47c0.02-0.36,0.32-0.77,0.79-0.94c0.34-0.11,0.62-0.06,0.81,0.09
		c0.02,0.02,0.04,0.06,0.04,0.06c0.11,0.07,0.21,0.21,0.22,0.36C357.65,146.18,356.37,146.91,355.83,146.29z"/>
	<path class="st42" d="M355.97,146.43c-0.13-0.75,0.9-1.42,1.53-1.07C357.62,146.08,356.63,146.8,355.97,146.43z"/>
	<path class="st41" d="M354.11,143.52c0.56-0.19,0.99,0.08,1.06,0.49c-0.62-0.35-1.65,0.32-1.52,1.07
		C353.02,144.73,353.33,143.78,354.11,143.52z"/>
	<path class="st42" d="M353.64,145.08L353.64,145.08c-0.12-0.71,0.86-1.45,1.52-1.07C355.3,144.73,354.3,145.46,353.64,145.08z"/>
	<path class="st41" d="M352.69,142.93c-0.85,1.06-1.27,2.5-0.71,3.72c-1.24-1.2-0.96-3.14,0.15-4.51c2.03-2.52,5.69-2.5,6.68-0.27
		C357.23,140.32,354.26,140.98,352.69,142.93z"/>
	<path class="st41" d="M350.89,146.83c1.42,2.02,5.02,2.08,7.47-0.41c1.64-1.68,2.01-3.91,1.05-5.41c0.89,1.26,1.03,1.48,1.1,1.57
		c1.38,2,0.23,4.79-1.72,6.18c-1.5,1.17-3.77,1.67-5.51,0.8c-0.72-0.39-1.14-0.91-1.21-1.05
		C352.05,148.47,350.91,146.85,350.89,146.83L350.89,146.83z"/>
	<path class="st39" d="M359.41,141c1.86,2.91-1.4,7.33-5.38,7.32c-1.44-0.01-2.53-0.62-3.14-1.49c0-0.01-0.01-0.01-0.01-0.02
		c-1.06-1.53-0.61-3.57,0.58-5.05C353.71,138.96,357.86,138.58,359.41,141z M354.23,147.5c3.04,0.01,5.67-3.2,4.58-5.64
		c-1-2.27-4.68-2.2-6.68,0.27C350.19,144.54,351.33,147.49,354.23,147.5z"/>
	<defs>
		<filter id="Adobe_OpacityMaskFilter" filterUnits="userSpaceOnUse" x="300.69" y="185.63" width="178.3" height="115.13">
			<feFlood  style="flood-color:white;flood-opacity:1" result="back"/>
			<feBlend  in="SourceGraphic" in2="back" mode="normal"/>
		</filter>
	</defs>
	
		<mask maskUnits="userSpaceOnUse" x="300.69" y="185.63" width="178.3" height="115.13" id="SVGID_00000047032767136079139370000004819721359177081756_">
		<g class="st43">
			<defs>
				
					<filter id="Adobe_OpacityMaskFilter_00000101101472303776759340000007212435922290057615_" filterUnits="userSpaceOnUse" x="300.69" y="185.63" width="178.3" height="115.13">
					<feFlood  style="flood-color:white;flood-opacity:1" result="back"/>
					<feBlend  in="SourceGraphic" in2="back" mode="normal"/>
				</filter>
			</defs>
			
				<mask maskUnits="userSpaceOnUse" x="300.69" y="185.63" width="178.3" height="115.13" id="SVGID_00000047032767136079139370000004819721359177081756_">
				<g style="filter:url(#Adobe_OpacityMaskFilter_00000101101472303776759340000007212435922290057615_);">
				</g>
			</mask>
			
				<linearGradient id="SVGID_00000098212383670944657230000018396299140270671747_" gradientUnits="userSpaceOnUse" x1="352.8168" y1="242.8987" x2="381.8996" y2="243.4089">
				<stop  offset="0" style="stop-color:#000000"/>
				<stop  offset="0.0333" style="stop-color:#090909"/>
				<stop  offset="0.7087" style="stop-color:#B8B8B8"/>
				<stop  offset="1" style="stop-color:#FFFFFF"/>
			</linearGradient>
			
				<path style="mask:url(#SVGID_00000047032767136079139370000004819721359177081756_);fill:url(#SVGID_00000098212383670944657230000018396299140270671747_);" d="
				M330.02,299.28c0.36-0.34,0.78-0.62,1.33-1.05c-0.86-0.11-1.53-0.19-2.21-0.28c-1.47-0.2-2.72-0.84-3.87-1.77
				c-1.08-0.88-1.63-2.01-2.12-3.27c-1.33-3.42-2.77-6.8-4.16-10.19c-2.27-5.52-4.28-10.34-6.55-15.87
				c-1.53-3.72-3.31-8.15-4.87-11.86c-0.36-0.86-0.84-1.91-1.33-2.7c0,0-0.56-0.79-1.84-0.59c-0.88,0.06-6.25,0.44-2.23-1.89
				c1.75-1.01,3.64-1.61,5.65-1.75c0.58-0.04,1.17,0.02,1.74,0.13c0.6,0.11,1.05,0.5,1.33,1.06c1.11,1.08,1.83,3.39,2.35,4.64
				c3.43,8.29,6.26,15.64,9.68,23.95c1.71,4.15,3.41,8.3,5.11,12.46c0.28,0.69,0.65,1.33,1.16,1.89c0.39,0.43,0.73,0.91,1.11,1.35
				c0.52,0.61,1.11,1.1,1.98,1.09c0.23,0,0.49,0.01,0.68,0.12c0.71,0.41,1.43,0.31,2.15,0.09c0.63-0.2,1.26-0.41,1.87-0.67
				c7.94-3.47,16.53-7.38,24.47-10.87c6.01-2.64,12.01-5.28,18.01-7.92c5.36-2.36,10.73-4.68,16.08-7.08
				c3.54-1.58,5.87-4.31,7.15-7.95c0.39-1.1,0.45-3.18,0.22-4.37c-0.07-0.34-0.08-0.7-0.08-1.05c0-19.37,0-38.75-0.01-58.12
				c0-1.23,0.35-2.39,0.68-3.55c0.4-1.44,0.57-2.91,0.67-4.39c0.05-0.72-0.17-1.47-0.28-2.2c-0.05-0.33-0.12-0.66-0.03-1.04
				c0.15,0.26,0.32,0.51,0.44,0.78c0.94,2.03,1.55,4.16,1.82,6.39c0.07,0.62,0.1,1.25,0.1,1.87c0.01,10.86,0,21.72,0,32.58
				c0,0.5,0.01,1,0.02,1.56c0.34,0.05,0.59,0.12,0.85,0.13c0.35,0.02,0.7,0.01,1.05,0.01c14.41,0,28.83-0.04,43.24,0.02
				c5.41,0.02,10.73,0.86,15.89,2.56c2.38,0.79,4.67,1.79,6.73,3.24c1.65,1.16,3.09,2.5,4.04,4.32c1.13,2.18,1.25,4.37,0.31,6.66
				c-0.92,2.22-2.41,3.99-4.19,5.56c-2.91,2.55-6.28,4.35-9.8,5.88c-1.11,0.48-2.25,0.89-3.37,1.34c-0.25,0.1-0.5,0.21-0.77,0.33
				c-0.13,0.74-0.2,1.49-0.73,2.08c-0.47,0.52-0.94,1.04-1.52,1.68c0.03,0.25,0.46,0.37,0.71,0.64c0.54,0.61,1.16,1.16,1.65,1.81
				c0.74,0.99,0.54,2.03-0.49,2.73c-0.75,0.5-1.56,0.91-2.47,1.02c-1.08,0.13-2.17,0.26-3.26,0.26
				c-13.24,0.02-26.48,0.04-39.73-0.01c-2.84-0.01-5.59,0.41-8.32,1.12c-3.37,0.87-6.62,2.1-9.8,3.51
				c-5.6,2.48-11.22,4.94-16.83,7.4c-5.22,2.29-10.43,4.58-15.65,6.87c-6.22,2.73-13.09,5.88-19.31,8.62
				c-2.39,1.05-8.14,3.81-8.6,4.09C335.91,301.17,329.68,299.59,330.02,299.28z M399.13,268.15c0.03,0.06,0.07,0.12,0.1,0.18
				c0.18-0.04,0.36-0.08,0.54-0.13c1.43-0.4,2.85-0.83,4.29-1.19c3.34-0.83,6.72-1.3,10.19-1.28c12.73,0.05,25.46,0.02,38.19,0.02
				c0.41,0,0.82-0.03,1.35-0.05c-0.56-0.79-1.09-1.08-1.97-0.84c-1.39,0.37-2.84,0.56-4.29,0.51c-2.57-0.08-5.04-0.56-7.22-2.05
				c-0.68-0.46-1.4-0.61-2.21-0.59c-1.6,0.04-3.2,0.01-4.8,0.01c-6.79,0-13.59,0-20.38,0c-2.73,0-5.47,0.02-8.2-0.01
				c-0.74-0.01-1.23,0.2-1.64,0.85c-0.96,1.52-2.12,2.89-3.48,4.08C399.43,267.8,399.29,267.98,399.13,268.15z"/>
		</g>
	</mask>
	
		<linearGradient id="SVGID_00000011750222574636598410000001985037170972000944_" gradientUnits="userSpaceOnUse" x1="352.8168" y1="242.8987" x2="381.8996" y2="243.4089">
		<stop  offset="0" style="stop-color:#F4F5F6"/>
		<stop  offset="0.4661" style="stop-color:#C9C0B6"/>
		<stop  offset="1" style="stop-color:#9B8770"/>
	</linearGradient>
	<path style="fill:url(#SVGID_00000011750222574636598410000001985037170972000944_);" d="M330.02,299.28
		c0.36-0.34,0.78-0.62,1.33-1.05c-0.86-0.11-1.53-0.19-2.21-0.28c-1.47-0.2-2.72-0.84-3.87-1.77c-1.08-0.88-1.63-2.01-2.12-3.27
		c-1.33-3.42-2.77-6.8-4.16-10.19c-2.27-5.52-4.28-10.34-6.55-15.87c-1.53-3.72-3.31-8.15-4.87-11.86c-0.36-0.86-0.84-1.91-1.33-2.7
		c0,0-0.56-0.79-1.84-0.59c-0.88,0.06-6.25,0.44-2.23-1.89c1.75-1.01,3.64-1.61,5.65-1.75c0.58-0.04,1.17,0.02,1.74,0.13
		c0.6,0.11,1.05,0.5,1.33,1.06c1.11,1.08,1.83,3.39,2.35,4.64c3.43,8.29,6.26,15.64,9.68,23.95c1.71,4.15,3.41,8.3,5.11,12.46
		c0.28,0.69,0.65,1.33,1.16,1.89c0.39,0.43,0.73,0.91,1.11,1.35c0.52,0.61,1.11,1.1,1.98,1.09c0.23,0,0.49,0.01,0.68,0.12
		c0.71,0.41,1.43,0.31,2.15,0.09c0.63-0.2,1.26-0.41,1.87-0.67c7.94-3.47,16.53-7.38,24.47-10.87c6.01-2.64,12.01-5.28,18.01-7.92
		c5.36-2.36,10.73-4.68,16.08-7.08c3.54-1.58,5.87-4.31,7.15-7.95c0.39-1.1,0.45-3.18,0.22-4.37c-0.07-0.34-0.08-0.7-0.08-1.05
		c0-19.37,0-38.75-0.01-58.12c0-1.23,0.35-2.39,0.68-3.55c0.4-1.44,0.57-2.91,0.67-4.39c0.05-0.72-0.17-1.47-0.28-2.2
		c-0.05-0.33-0.12-0.66-0.03-1.04c0.15,0.26,0.32,0.51,0.44,0.78c0.94,2.03,1.55,4.16,1.82,6.39c0.07,0.62,0.1,1.25,0.1,1.87
		c0.01,10.86,0,21.72,0,32.58c0,0.5,0.01,1,0.02,1.56c0.34,0.05,0.59,0.12,0.85,0.13c0.35,0.02,0.7,0.01,1.05,0.01
		c14.41,0,28.83-0.04,43.24,0.02c5.41,0.02,10.73,0.86,15.89,2.56c2.38,0.79,4.67,1.79,6.73,3.24c1.65,1.16,3.09,2.5,4.04,4.32
		c1.13,2.18,1.25,4.37,0.31,6.66c-0.92,2.22-2.41,3.99-4.19,5.56c-2.91,2.55-6.28,4.35-9.8,5.88c-1.11,0.48-2.25,0.89-3.37,1.34
		c-0.25,0.1-0.5,0.21-0.77,0.33c-0.13,0.74-0.2,1.49-0.73,2.08c-0.47,0.52-0.94,1.04-1.52,1.68c0.03,0.25,0.46,0.37,0.71,0.64
		c0.54,0.61,1.16,1.16,1.65,1.81c0.74,0.99,0.54,2.03-0.49,2.73c-0.75,0.5-1.56,0.91-2.47,1.02c-1.08,0.13-2.17,0.26-3.26,0.26
		c-13.24,0.02-26.48,0.04-39.73-0.01c-2.84-0.01-5.59,0.41-8.32,1.12c-3.37,0.87-6.62,2.1-9.8,3.51c-5.6,2.48-11.22,4.94-16.83,7.4
		c-5.22,2.29-10.43,4.58-15.65,6.87c-6.22,2.73-13.09,5.88-19.31,8.62c-2.39,1.05-8.14,3.81-8.6,4.09
		C335.91,301.17,329.68,299.59,330.02,299.28z M399.13,268.15c0.03,0.06,0.07,0.12,0.1,0.18c0.18-0.04,0.36-0.08,0.54-0.13
		c1.43-0.4,2.85-0.83,4.29-1.19c3.34-0.83,6.72-1.3,10.19-1.28c12.73,0.05,25.46,0.02,38.19,0.02c0.41,0,0.82-0.03,1.35-0.05
		c-0.56-0.79-1.09-1.08-1.97-0.84c-1.39,0.37-2.84,0.56-4.29,0.51c-2.57-0.08-5.04-0.56-7.22-2.05c-0.68-0.46-1.4-0.61-2.21-0.59
		c-1.6,0.04-3.2,0.01-4.8,0.01c-6.79,0-13.59,0-20.38,0c-2.73,0-5.47,0.02-8.2-0.01c-0.74-0.01-1.23,0.2-1.64,0.85
		c-0.96,1.52-2.12,2.89-3.48,4.08C399.43,267.8,399.29,267.98,399.13,268.15z"/>
	<defs>
		
			<filter id="Adobe_OpacityMaskFilter_00000005247937456822113030000010968006591167029948_" filterUnits="userSpaceOnUse" x="361.91" y="128.33" width="38.69" height="131.67">
			<feFlood  style="flood-color:white;flood-opacity:1" result="back"/>
			<feBlend  in="SourceGraphic" in2="back" mode="normal"/>
		</filter>
	</defs>
	
		<mask maskUnits="userSpaceOnUse" x="361.91" y="128.33" width="38.69" height="131.67" id="SVGID_00000002347521929919956000000018201261571525448078_">
		<g style="filter:url(#Adobe_OpacityMaskFilter_00000005247937456822113030000010968006591167029948_);">
			<defs>
				
					<filter id="Adobe_OpacityMaskFilter_00000167382835005548266430000002440738669865929120_" filterUnits="userSpaceOnUse" x="361.91" y="128.33" width="38.69" height="131.67">
					<feFlood  style="flood-color:white;flood-opacity:1" result="back"/>
					<feBlend  in="SourceGraphic" in2="back" mode="normal"/>
				</filter>
			</defs>
			
				<mask maskUnits="userSpaceOnUse" x="361.91" y="128.33" width="38.69" height="131.67" id="SVGID_00000002347521929919956000000018201261571525448078_">
				<g style="filter:url(#Adobe_OpacityMaskFilter_00000167382835005548266430000002440738669865929120_);">
				</g>
			</mask>
			
				<linearGradient id="SVGID_00000106840269071233148540000014328409936700131991_" gradientUnits="userSpaceOnUse" x1="353.6793" y1="193.7345" x2="382.762" y2="194.2448">
				<stop  offset="0" style="stop-color:#000000"/>
				<stop  offset="0.0333" style="stop-color:#090909"/>
				<stop  offset="0.7087" style="stop-color:#B8B8B8"/>
				<stop  offset="1" style="stop-color:#FFFFFF"/>
			</linearGradient>
			
				<path style="mask:url(#SVGID_00000002347521929919956000000018201261571525448078_);fill:url(#SVGID_00000106840269071233148540000014328409936700131991_);" d="
				M361.91,162.71c0.52-0.13,1.08-0.28,1.65-0.42c4.63-1.17,8.85-3.23,12.81-5.88c2.47-1.66,4.78-3.53,6.87-5.63
				c2.98-3,5.56-6.32,7.61-10.05c1.32-2.41,2.42-4.9,3.15-7.54c0.36-1.31,1.01-4.39,1.15-4.85c0.13,0.39,0.16,40.49,0.16,40.49
				l-4.38-2.53c0,0-6.54,2.95-8.57,6.63c-0.87,1.57-1.05,3.25-0.52,4.99c0.18,0.6,0.5,1.05,1.07,1.32c0.28,0.13,0.57,0.28,0.82,0.46
				c0.77,0.56,1.61,0.53,2.46,0.27c1.14-0.35,1.84,1.75,2.69,0.93c0.9-0.86,1.78-1.76,2.58-2.71c1.31-1.55,2.64-3.08,4.21-4.38
				c0.94-0.78,1.79-1.62,2.16-2.9c0.44,0.15,0.57,0.48,0.72,0.78c0.58,1.13,1.26,2.66,1.26,4.5c0.04,1.17-0.53,3.36-0.53,3.36
				s-1.13-1.04-1.35-1.24c-1.37-0.94-2.02-0.65-3.21,0.45c-0.81,1.28-0.68,2.78,0.35,3.96c0.23,0.26,0.95,1.51,1.15,1.77l-0.9,0.59
				c0,13.55,0.07,25.43,0.08,38.98c0,0.53,0.05,1.07,0.08,1.64c1.71,0.28,5.16,0.27,5.16,0.27s-0.05,21.1,0,24.93
				c0.02,1.73-0.38,3.33-1.11,4.86c-0.54,1.13-1.21,2.18-2,3.16c-0.41,0.52-0.87,0.7-1.51,0.7c-1.56,0-3.12,0.06-4.68,0.06
				c-8.05,0.01-29.39,0.34-29.39,0.34S361.97,163.47,361.91,162.71z"/>
		</g>
	</mask>
	
		<linearGradient id="SVGID_00000178195504205446275570000003242742794498199449_" gradientUnits="userSpaceOnUse" x1="353.6793" y1="193.7345" x2="382.762" y2="194.2448">
		<stop  offset="0" style="stop-color:#F4F5F6"/>
		<stop  offset="0.4661" style="stop-color:#C9C0B6"/>
		<stop  offset="1" style="stop-color:#9B8770"/>
	</linearGradient>
	<path style="fill:url(#SVGID_00000178195504205446275570000003242742794498199449_);" d="M361.91,162.71
		c0.52-0.13,1.08-0.28,1.65-0.42c4.63-1.17,8.85-3.23,12.81-5.88c2.47-1.66,4.78-3.53,6.87-5.63c2.98-3,5.56-6.32,7.61-10.05
		c1.32-2.41,2.42-4.9,3.15-7.54c0.36-1.31,1.01-4.39,1.15-4.85c0.13,0.39,0.16,40.49,0.16,40.49l-4.38-2.53c0,0-6.54,2.95-8.57,6.63
		c-0.87,1.57-1.05,3.25-0.52,4.99c0.18,0.6,0.5,1.05,1.07,1.32c0.28,0.13,0.57,0.28,0.82,0.46c0.77,0.56,1.61,0.53,2.46,0.27
		c1.14-0.35,1.84,1.75,2.69,0.93c0.9-0.86,1.78-1.76,2.58-2.71c1.31-1.55,2.64-3.08,4.21-4.38c0.94-0.78,1.79-1.62,2.16-2.9
		c0.44,0.15,0.57,0.48,0.72,0.78c0.58,1.13,1.26,2.66,1.26,4.5c0.04,1.17-0.53,3.36-0.53,3.36s-1.13-1.04-1.35-1.24
		c-1.37-0.94-2.02-0.65-3.21,0.45c-0.81,1.28-0.68,2.78,0.35,3.96c0.23,0.26,0.95,1.51,1.15,1.77l-0.9,0.59
		c0,13.55,0.07,25.43,0.08,38.98c0,0.53,0.05,1.07,0.08,1.64c1.71,0.28,5.16,0.27,5.16,0.27s-0.05,21.1,0,24.93
		c0.02,1.73-0.38,3.33-1.11,4.86c-0.54,1.13-1.21,2.18-2,3.16c-0.41,0.52-0.87,0.7-1.51,0.7c-1.56,0-3.12,0.06-4.68,0.06
		c-8.05,0.01-29.39,0.34-29.39,0.34S361.97,163.47,361.91,162.71z"/>
	<path class="st1" d="M350.89,146.83c2.07,2.6,5.52,1.27,7,0.02c1.37-1.15,2.85-3.39,1.52-5.85c0.19,0.1,0.95,1.28,1.05,1.4
		c1.23,1.43,1.4,3.01,0.54,4.68c-0.47,0.91-1.12,2-1.95,2.39c-4.79,2.24-5.9,0.3-6.91-0.86
		C352.14,148.61,350.88,146.86,350.89,146.83z"/>
	<path class="st1" d="M352.09,146.66c-0.87-0.79-1.04-1.57-0.87-2.43c0.43-2.23,2.54-3.89,4.72-3.98c1.16-0.05,2.14,0.4,2.87,1.57
		c-0.28-0.02-0.45,0.01-0.6-0.04c-1.78-0.58-4.13,0.02-5.51,2.24c-0.29,0.47-0.38,1.07-0.52,1.61
		C352.12,145.88,352.14,146.15,352.09,146.66z"/>
	<path class="st1" d="M355.14,143.99c-0.54,0.37-1.03,0.73-1.52,1.07c-0.58-0.34-0.3-1.27,0.49-1.54c0.24-0.09,0.47-0.07,0.66,0
		c0.06,0,0.09,0.04,0.13,0.07c0.06,0.04,0.09,0.09,0.15,0.15C355.08,143.82,355.12,143.9,355.14,143.99z"/>
	<path class="st1" d="M354.44,143.46c-0.11,0-0.22,0.02-0.34,0.06c0.09-0.04,0.17-0.06,0.26-0.07
		C354.39,143.44,354.42,143.46,354.44,143.46z"/>
	<path class="st1" d="M354.76,143.52c-0.09-0.06-0.21-0.06-0.32-0.06C354.56,143.46,354.67,143.48,354.76,143.52z"/>
	<path class="st1" d="M357.38,145.28c-0.58,0.37-1.05,0.69-1.55,1.01c-0.02,0-0.04-0.02-0.06-0.04c-0.07-0.11-0.15-0.24-0.13-0.47
		c0.02-0.36,0.32-0.77,0.79-0.94c0.34-0.11,0.62-0.06,0.81,0.09c0.02,0.02,0.04,0.06,0.04,0.06
		C357.33,145.08,357.37,145.17,357.38,145.28z"/>
	<path class="st1" d="M201.43,285.02c0,0,48.07,28.6,58.33,22.69c0,0,13.28,4.64,7.34,8.09c0,0,9.66,3.27,4.24,6.11
		c-5.42,2.84-34.9,19.11-41.67,18.73c0,0,14.18-0.61,15.08,8.16c0.9,8.76-1.15,15.13-1.15,15.13s-0.46-10.77,13.18-16.83
		c13.64-6.06,2.5,2.3,2.5,2.3s-10.77,4.02-13.18,16.82l-1.35,5.31c0,0,20.7-4.99,45.93-20.81c5.75-3.61,20.9-13.77,20.9-13.77
		l5.77-6.86c0,0,3.98-6.35,0.88-9.67c0,0,7.41-21.41-7.45-40.81c0,0-2.96-14.09-12.45-26.98c0,0-6.86-7.91-19.87-16.6l-13.01-8.43
		l-32.83-44.11l-5.42-3.06l-73.27,42.3l27.41,40.08l14.96,20.85L201.43,285.02z"/>
	<path class="st1" d="M194.41,281.27c-0.64,5.92-5.97,1.59-17.44,16.89c-1.01,1.35-2.19,2.6-3.41,3.76
		c-0.39,0.39-1.4,0.67-1.74,0.43c-0.45-0.3-0.81-1.24-0.67-1.78c0.69-2.92,1.55-5.79,2.4-8.78c-2.9,0-10.15,0.75-12.92-0.45
		c-0.02,0-0.04-0.02-0.06-0.02c0,0-0.69-9.01,2.02-12.64c0.11-0.13,0.21-0.26,0.32-0.37c2.4-2.58,4.89-3.63,8.07-4.81
		c5.08-1.87,9.06-2.7,14.53-2.12c0.86,0.09,4.31,3.26,4.74,3.88C191.27,276.74,194.41,281.27,194.41,281.27z"/>
</g>
</svg>
