<?xml version="1.0" encoding="utf-8"?>
<!-- Generator: Adobe Illustrator 27.9.0, SVG Export Plug-In . SVG Version: 6.00 Build 0)  -->
<svg version="1.1" xmlns="http://www.w3.org/2000/svg" xmlns:xlink="http://www.w3.org/1999/xlink" x="0px" y="0px"
	 viewBox="0 0 500 500" style="enable-background:new 0 0 500 500;" xml:space="preserve">
<style type="text/css">
	.st0{fill:#FFFFFF;}
	.st1{fill:#A0E1F2;}
	.st2{opacity:0.1;fill:#003343;}
	.st3{fill:#56284C;}
	.st4{fill:#33CCFF;}
	.st5{fill:#FF8C6D;}
	.st6{fill:#F79E40;}
	.st7{fill:#F2E0D7;}
	.st8{fill:#F7986A;}
	.st9{fill:#33B6FF;}
	.st10{fill:#562A35;}
	.st11{fill:#FF7694;}
	.st12{fill:#2D0C0A;}
	.st13{opacity:0.5;fill:#F26D4C;}
	.st14{fill:#D8CBC5;}
	.st15{fill:#E5852E;}
	.st16{fill:#47242E;}
	.st17{fill:#002347;}
	.st18{fill:#181028;}
	.st19{fill:#F04150;}
	.st20{fill:#082B63;}
	.st21{fill:#0B397C;}
	.st22{fill:#F44E63;}
	.st23{fill:#D1735D;}
	.st24{fill:#4EF49D;}
	.st25{fill:#BA6349;}
	.st26{fill:#000B31;}
	.st27{fill:#4BE08E;}
	.st28{fill:#01123F;}
	.st29{fill:#6A93DB;}
	.st30{display:none;}
	.st31{display:inline;}
</style>
<g id="BACKGROUND">
	<g>
		<rect class="st0" width="500" height="500"/>
		<g>
			<g>
				<path class="st1" d="M77.77,408.47C41.86,426.8,16.37,422.35,0,406.52V500h200.68C187.13,433.98,153.23,369.95,77.77,408.47z"/>
				<path class="st1" d="M0,267.15c9.23-10.31,21.06-16.25,35.18-14.99c81,7.24,56,181.75,207.95,156.3s64.04-225.04,38.93-296.61
					c-18.97-54.09,6.2-75.5,7.48-111.86H0V267.15z"/>
			</g>
		</g>
		<path class="st1" d="M500,102.81C423.75,129.65,182.45,236.94,258.5,500H500V102.81z"/>
	</g>
</g>
<g id="OBJECTS_1_">
	<g>
		<g>
			<g>
				<path class="st2" d="M149.54,385.44c0.07,3.18,9.24,5.56,20.49,5.32s20.32-3.01,20.25-6.19c-0.07-3.18-9.24-5.56-20.49-5.32
					C158.54,379.49,149.48,382.26,149.54,385.44z"/>
				<path class="st2" d="M255.34,376c0.07,3.18,9.24,5.56,20.49,5.32c11.25-0.24,20.32-3.01,20.25-6.19
					c-0.07-3.18-9.24-5.56-20.49-5.32C264.34,370.05,255.27,372.82,255.34,376z"/>
			</g>
			<g>
				<path class="st2" d="M44.35,379.67c0.07,3.18,9.24,5.56,20.49,5.32s20.32-3.01,20.25-6.19c-0.07-3.18-9.24-5.56-20.49-5.32
					C53.35,373.72,44.29,376.49,44.35,379.67z"/>
				<path class="st2" d="M135.66,360.28c0.07,3.18,6.78,5.61,14.99,5.44c8.21-0.18,14.81-2.89,14.75-6.07
					c-0.07-3.18-6.78-5.61-14.99-5.44C142.19,354.38,135.59,357.1,135.66,360.28z"/>
			</g>
		</g>
		<g>
			<path class="st3" d="M118.89,146.5c-4.09,12.38,25.6,10.53,16.58,30.73c-10.95,24.53,14.91,23.85,3,33.77
				c-19.25,16.04-58.52,21.28-89.88,8.03c-26.35-11.13,24.27-32.79,9.61-47.12c-14.66-14.33,18.26-21.71,10.57-30.62
				c-7.69-8.9-2.34-32.87,23.79-29.04c0,0,15.62-4.07,25.72,6.68C127.7,128.94,123.45,137.6,118.89,146.5z"/>
			<path class="st4" d="M130.14,190.78c0,0-3.88-3.96-7.93-12.07c-4.05-8.1-13.78-16.44-19.52-13.4c-3.42,1.82-5.94,8.98,3.35,21.66
				c6.75,9.22,11.59,9.6,10.87,13.07C127.71,198.88,130.14,190.78,130.14,190.78z"/>
			<path class="st5" d="M167.67,260.31c-1.59-1.11-6.34-2.06-6.87-2.85c-0.53-0.79-12.68-27.22-15.59-33.83
				c-2.91-6.61-11.63-18.76-13.48-21.67c-1.2-1.88-2.61-5.62-3.46-8.05c-1.64,2.15-4.42,4.71-8.6,5.22
				c-0.03,0.14-0.07,0.28-0.1,0.42c5.39,6.45,10.17,19.68,12.17,25.67c2.38,7.14,6.34,9.51,12.16,17.18
				c5.81,7.66,11.89,15.86,11.63,21.14c-0.26,5.29,12.68,11.1,15.33,9.78C173.48,272,169.25,261.43,167.67,260.31z"/>
			<g>
				<path class="st5" d="M163.41,251.1c-0.3,1.98-0.8,4.16-1.57,4.3c-1.42,0.26-5.82,2.72-6.85,6.34c-1.03,3.62,0.52,8.53,2.33,9.83
					c1.81,1.29,4.14,4.53,7.5,4.14c3.36-0.39,2.07-5.43,4.53-6.72c2.46-1.29-2.07,2.33-0.91,3.36c1.16,1.03,3.88-0.65,3.36-6.98
					c-0.52-6.34-1.55-8.4-1.55-8.4l0.75-2.89C167.36,254.09,164.96,252.66,163.41,251.1z"/>
				<path class="st6" d="M219.9,149.24c-2.84-2.59-5.95-4.14-5.95-4.14l-4.09,3.36c-7.28,6.72-11.68,22.24-13.75,26.38
					c-2.07,4.14-7.24,24.57-10.6,28.19c-3.36,3.62-19.14,28.02-24.57,44.14c0,0,0.62,2.06,2.48,3.94c1.55,1.56,3.95,2.98,7.58,2.96
					c0.5,0,1.03-0.03,1.58-0.09c0,0,23.79-32.59,26.64-41.64c2.61-8.29,16.71-22.66,21.05-28.19c0.4-0.51,0.72-0.94,0.93-1.29
					C223.78,178.72,234.25,162.29,219.9,149.24z"/>
			</g>
			<g>
				<path class="st5" d="M58.46,195.74L58.46,195.74c0,0-2.83,6.82-3.65,9.58c-0.83,2.75-9.08,7.29-14.04,24.36
					c-4.96,17.07-11.42,29.04-13.08,29.18c-1.65,0.14-17.07,0.41-17.21,2.06c-0.14,1.65,5.51,0.69,5.51,0.69s-9.36,1.79-9.22,2.62
					c0.14,0.83,7.71,0,7.71,0s-7.85,2.34-7.71,3.03c0.14,0.69,8.26-1.1,8.26-1.1s-7.16,3.72-6.88,4.27
					c0.28,0.55,15.42-4.27,16.52-3.03c1.1,1.24-5.37,6.47-4.4,7.16c0.96,0.69,8.26-4.96,9.36-7.43c1.1-2.48,2.99-6.06,2.99-6.06
					s20.13-27.39,24.12-33.31c3.99-5.92,6.61-15,6.61-15s6.27-7.48,6.72-11.59c0-0.01,0-0.01,0-0.02
					C63.71,200.7,60.02,197.51,58.46,195.74z"/>
				<path class="st4" d="M75.26,162.83c-7.27,0.21-17.71,31.75-17.71,31.75s0.29,0.47,0.9,1.16c1.56,1.77,5.25,4.96,11.6,5.41
					c0.84,0.06,1.71,0.09,2.64,0.04l7.71-14.08C80.4,187.11,87.74,162.47,75.26,162.83z"/>
			</g>
			<path class="st7" d="M142.31,296.47l-2.06-0.1c2.3,3.91,0.51,8.06-0.65,10.04l1.87-0.01l2.13-0.01c0,0,4.35-5.52-0.05-9.86
				L142.31,296.47z"/>
			<path class="st8" d="M140.25,296.37l-2.54-0.13c1.33,3.94,0.65,7.61-0.3,10.18l2.2-0.01
				C140.76,304.43,142.55,300.27,140.25,296.37z"/>
			<path class="st7" d="M152.69,332.6c0,0,5.37-3.01,4.81-22.44c-0.49-17.13-2.74-16.48-4.34-16c0,0,0,0,0,0c0,0,3.32-1.14,5-0.14
				c1.67,1,2.09,12.78,2.05,14.07c-0.04,1.29-2.28,1.35-1.43,2.19c0.85,0.83,3.23,3.19,1.25,12.4
				C158.05,331.88,154.22,333.81,152.69,332.6z"/>
			<path class="st9" d="M148.42,321.65c-0.17-0.14-0.37-0.39-0.58-0.71c2.73-2.94-1.93-10.21-2.42-11c-0.52-0.84,0.65-2.52,0.25-3.3
				c-0.4-0.77-4.73,3.42-4.73,3.42l0,0c-1.06-1.24-1.89-2.37-1.39-2.53c0.95-0.31,0.66-0.81,1.47-1.33
				c0.81-0.52,1.63,0.19,1.63,0.19s1.1,0.88,1.61-4.5c0.52-5.37-2.55-5.43-2.55-5.43c-2.59-1.64,9.28-2.05,10.85-2.17
				c0.18-0.01,0.39-0.07,0.6-0.14c1.6-0.47,3.85-1.13,4.34,16c0.56,19.42-4.81,22.44-4.81,22.44
				C149.07,331.42,149.64,322.69,148.42,321.65z"/>
			<path class="st7" d="M145.67,306.65c0.4,0.77-0.77,2.45-0.25,3.3c0.48,0.79,5.15,8.05,2.42,11c-1.3-1.95-3.23-6.67-4.23-7.87
				c-0.55-0.66-1.71-1.87-2.67-3l0,0C140.94,310.07,145.27,305.87,145.67,306.65z"/>
			<path class="st7" d="M82.94,360.29l0.11-2.23c-4.23,2.49-8.72,0.55-10.86-0.7l0.01,2.03l0.01,2.31c0,0,5.97,4.7,10.67-0.05
				L82.94,360.29z"/>
			<path class="st8" d="M83.05,358.06l0.14-2.75c-4.26,1.44-8.23,0.7-11.01-0.33l0.01,2.38C74.33,358.61,78.83,360.54,83.05,358.06z
				"/>
			<path class="st7" d="M43.86,371.51c0,0,3.26,5.81,24.27,5.21c18.53-0.53,17.82-2.96,17.31-4.69c0,0,0,0,0,0
				c0,0,1.24,3.6,0.15,5.4c-1.08,1.81-13.83,2.26-15.22,2.21c-1.39-0.04-1.46-2.46-2.36-1.55c-0.9,0.92-3.46,3.49-13.41,1.35
				C44.64,377.31,42.55,373.16,43.86,371.51z"/>
			<path class="st9" d="M55.71,366.89c0.16-0.18,0.42-0.4,0.77-0.62c3.18,2.95,11.04-2.09,11.9-2.62c0.91-0.56,2.73,0.7,3.56,0.27
				c0.84-0.43-3.7-5.12-3.7-5.12l0,0c1.34-1.15,2.56-2.04,2.74-1.5c0.34,1.03,0.87,0.72,1.44,1.59c0.57,0.87-0.21,1.76-0.21,1.76
				s-0.95,1.18,4.87,1.75c5.81,0.56,5.87-2.76,5.87-2.76c1.78-2.8,2.22,10.04,2.35,11.73c0.01,0.2,0.08,0.42,0.15,0.65
				c0.51,1.73,1.22,4.16-17.31,4.69c-21.01,0.6-24.27-5.21-24.27-5.21C45.13,367.59,54.58,368.21,55.71,366.89z"/>
			<path class="st7" d="M71.93,363.92c-0.84,0.43-2.65-0.83-3.56-0.27c-0.85,0.52-8.71,5.57-11.9,2.62
				c2.11-1.41,7.22-3.49,8.52-4.57c0.72-0.6,2.03-1.85,3.24-2.89l0,0C68.23,358.8,72.77,363.49,71.93,363.92z"/>
			<path class="st5" d="M108.06,134.34c0.41-7.82-9.77-12.78-9.77-12.78c-2.17,9.55-15.19,15.96-15.19,15.96s-0.68-4.6-2.98-3.66
				c-2.3,0.95-2.71,5.01,0.41,7.72l0.39,22.89c0.14,1.69,2.91,3.52,6.86,4c4.79,0.58,8.82-0.14,8.74-2.47
				c-0.2-5.48-0.14-12.36-0.14-12.36s7.47-0.93,10.4-9.07c0.27-0.76,0.52-1.56,0.71-2.44C107.92,139.98,108.06,134.34,108.06,134.34
				z"/>
			<g>
				<path class="st3" d="M89.71,135.92c0.23,0.04,0.47-0.03,0.64-0.21c0.13-0.14,3.13-3.37,6.73-1.91c0.35,0.14,0.75-0.03,0.9-0.38
					c0.14-0.35-0.02-0.75-0.38-0.9c-4.51-1.84-8.12,2.09-8.27,2.26c-0.25,0.28-0.23,0.72,0.05,0.97
					C89.47,135.85,89.59,135.9,89.71,135.92z"/>
				<path class="st3" d="M99.8,134.73c0.24,0.05,0.5-0.04,0.67-0.25c0.07-0.09,1.6-1.87,4.86-0.54c0.35,0.14,0.75-0.02,0.9-0.38
					c0.14-0.35-0.03-0.76-0.38-0.9c-4.26-1.74-6.37,0.85-6.46,0.96c-0.24,0.3-0.18,0.73,0.12,0.97
					C99.6,134.66,99.7,134.71,99.8,134.73z"/>
				<path class="st10" d="M96.23,148.82c0.22,0.04,0.45,0.07,0.69,0.09c0.38,0.03,0.71-0.26,0.74-0.64
					c0.03-0.38-0.26-0.71-0.64-0.74c-2.84-0.21-2.77-2.69-2.75-2.97c0.03-0.38-0.25-0.71-0.64-0.74c-0.38-0.03-0.71,0.25-0.74,0.63
					c-0.01,0.07-0.13,1.77,0.99,3.07C94.46,148.2,95.25,148.63,96.23,148.82z"/>
				<path class="st10" d="M97.47,144.11c0.02,0,0.04,0.01,0.06,0.01c0.07,0.01,1.63,0.15,2.52-0.94c0.64-0.77,0.74-1.9,0.3-3.35
					c-0.98-3.26-0.35-4.46-0.35-4.47c0.18-0.33,0.07-0.74-0.25-0.93c-0.32-0.19-0.73-0.1-0.92,0.21c-0.1,0.16-0.98,1.69,0.2,5.59
					c0.2,0.67,0.36,1.58-0.04,2.07c-0.41,0.51-1.32,0.45-1.32,0.44c-0.38-0.03-0.71,0.25-0.75,0.62
					C96.88,143.73,97.13,144.04,97.47,144.11z"/>
				<path class="st10" d="M79.35,137.78c0.28,0.11,0.62,0.01,0.79-0.26c0.39-0.62,0.82-0.46,0.83-0.46l0,0c0,0,0.01,0,0.01,0
					c0.33,0.13,0.71-0.03,0.84-0.37c0.13-0.34-0.03-0.72-0.36-0.85c-0.01,0-0.01,0-0.02-0.01c-0.51-0.2-1.64-0.24-2.41,0.98
					c-0.19,0.31-0.1,0.71,0.2,0.9C79.27,137.74,79.31,137.76,79.35,137.78z"/>
				<path class="st10" d="M82.18,140.31c0.25,0,0.49-0.15,0.6-0.39c0.15-0.33,0-0.72-0.33-0.86c-1.25-0.56-1.41-2.51-1.41-2.53
					c-0.03-0.36-0.35-0.64-0.7-0.61c-0.36,0.03-0.63,0.34-0.61,0.7c0.01,0.11,0.21,2.76,2.19,3.64
					C82.01,140.29,82.1,140.31,82.18,140.31z"/>
				<g>
					<path class="st11" d="M91.43,141.76c0,0,1.83-0.86,2.17,0.35c0.41,1.45-3.87,1.59-3.87,1.59s-0.66-4.05,0.9-3.95
						C92.19,139.85,91.43,141.76,91.43,141.76z"/>
				</g>
				<g>
					<path class="st11" d="M103.55,141.76c0,0,1.83-0.86,2.17,0.35c0.41,1.45-3.87,1.59-3.87,1.59s-0.66-4.05,0.9-3.95
						C104.32,139.85,103.55,141.76,103.55,141.76z"/>
				</g>
				<path class="st12" d="M101.95,139.23c-0.28,0.01-0.54-0.23-0.61-0.58c-0.16-0.81-0.06-1.66,0.27-2.32
					c0.29-0.59,0.75-1,1.28-1.15c1.17-0.32,2.36,0.71,2.67,2.29c0.08,0.4-0.12,0.81-0.44,0.9c-0.33,0.09-0.65-0.16-0.73-0.57
					c-0.15-0.78-0.7-1.31-1.22-1.16c-0.28,0.08-0.44,0.31-0.53,0.49c-0.16,0.33-0.21,0.77-0.13,1.19c0.08,0.4-0.12,0.81-0.44,0.9
					C102.03,139.22,101.99,139.23,101.95,139.23z"/>
				<path class="st12" d="M92.74,140.05c-0.28,0.01-0.54-0.23-0.61-0.58c-0.16-0.81-0.06-1.66,0.27-2.32c0.3-0.6,0.75-1,1.28-1.15
					c1.17-0.32,2.36,0.71,2.67,2.29c0.08,0.4-0.12,0.81-0.44,0.9c-0.32,0.09-0.65-0.16-0.73-0.57c-0.15-0.78-0.7-1.3-1.22-1.16
					c-0.28,0.08-0.44,0.31-0.53,0.49c-0.16,0.33-0.21,0.77-0.13,1.19c0.08,0.4-0.12,0.81-0.44,0.9
					C92.82,140.05,92.78,140.05,92.74,140.05z"/>
			</g>
			<path class="st13" d="M96.37,153.63c0,0-6.72,0.58-10.33-5.92c0,0-1.88,11.33,10.31,11.33L96.37,153.63z"/>
			<g>
				<path class="st14" d="M137.32,295.76c-0.53,0-38.55-2.65-39.43-5.13c-0.72-2.02-3.91-33.85-5.35-45.57
					c-2.57,0.39-5.11,0.57-7.51,0.55c-7.38-0.06-13.45-1.97-14.91-5.37c-0.12-0.28-0.23-0.57-0.33-0.88c-0.01,0-0.02,0-0.02,0
					c-0.53,4.95,4.77,31.83,4.77,37.13c0,5.3,6.19,27.76,13.08,29.88c6.9,2.12,46.33,1.24,50.4,0.18
					C138.03,306.55,140.59,295.76,137.32,295.76z"/>
				<path class="st7" d="M113.42,235.44c-6.83,7.14-18.73,10.25-28.38,10.17c-4.09,12.94-13.07,40.36-14.55,44.67
					c-1.77,5.13-2.32,62.77,0.68,64.89c3.01,2.12,12.58,1.59,12.58,1.59s3.18-51.63,4.95-57.11c1.77-5.48,22.28-40.67,26.17-49.86
					C117.82,242.81,114.97,237.56,113.42,235.44z"/>
			</g>
			<g>
				<g>
					<g>
						<path class="st9" d="M110.68,205.11c2.12-11.32,1.74-24.28,1.74-24.28s-0.18-14.5-15.42-19.57c0,0-0.63,0.51-1.75,1.11
							c-2.65,1.41-7.84,3.25-14.17,0.19c-0.13-0.06-0.26-0.12-0.39-0.19c-0.12-0.06-0.25-0.08-0.38-0.07
							c-3.19,0.19-10.05,19.6-12.53,22.77c-2.59,3.3-2.59,11.08,0.47,18.39c2.96,7.06-1.34,27.11,1.56,35.9
							c0.1,0.31,0.21,0.6,0.33,0.88c1.46,3.4,7.52,5.32,14.91,5.37c2.4,0.02,4.94-0.16,7.51-0.55c7.75-1.17,15.74-4.26,20.87-9.62
							c0.62-0.65,1.21-1.32,1.74-2.04C115.16,233.4,108.56,216.43,110.68,205.11z"/>
					</g>
				</g>
			</g>
			<path class="st15" d="M200.24,213.58c0-12.18,7.86-32.82,7.86-32.82s4.13-35.57,9.04-30.85c0.54,0.52,1.12,0.92,1.7,1.23
				c1.4-2.8,2.95-5.07,4.68-6.53c2.55-2.16-11.4-3.64-15.23,5.5c-1.5,3.57-2.95,26.33-4.52,31.83c-1.57,5.5-9.04,31.83-8.84,42.05
				c0.2,10.22-3.34,14.15-0.98,14.54c2.36,0.39,21.17-0.36,14.93-4.52c-0.04-0.03-0.11-0.17-0.19-0.39
				c-5.23-0.83-8.85-1.77-8.85-1.77S200.24,225.77,200.24,213.58z"/>
			<path class="st16" d="M282.82,339.74c-0.79-0.27-1.15,0.43-1.86,1.57c1.39,0.92,2.03,1.8,1.21,3.4
				c-1.85,3.6-10.05,5.85-10.7,4.22c-2.01,1.26-3.55,2.29-3.55,2.29s-2.73,7.88-5.11,11.66c-2.39,3.78-6.37,8.95-2.65,11.75
				c3.72,2.8,18.61-8.11,21.22-11.18c2.61-3.08,10.21-11.54,10.65-14.41C292.47,346.18,284.57,340.35,282.82,339.74z"/>
			<g>
				<path class="st8" d="M280.96,341.32c-1.31-0.86-3.28-1.77-5.31-3.33c-1.81,3.35-4.44,5.91-6.77,7.7
					c1.01,1.02,2.3,2.48,2.58,3.24c0,0,0.01,0.01,0.01,0.01c0.66,1.63,8.85-0.62,10.7-4.22C283,343.12,282.35,342.23,280.96,341.32z
					"/>
				<path class="st16" d="M255.46,309.67c-4.19-5.37-11.53-18.08-17.29-22.79c-5.76-4.72-4.85-24.76-5.5-32.62
					c-0.46-5.52-0.98-14.92-1.26-20.02c-7.56,1.24-16.33,0.4-22.71-0.61c-3.16-0.5-5.73-1.04-7.27-1.39
					c-0.08,4.67-0.1,15.54,0.98,29.1c1.44,18.21,17.42,38.38,20.17,43.1c2.75,4.72,41.26,44.41,41.26,44.41s2.3-1.04,5.04-3.15
					c2.33-1.79,4.96-4.35,6.77-7.7c0.72-1.33,1.3-2.77,1.68-4.35C277.33,333.64,259.65,315.04,255.46,309.67z"/>
			</g>
			<path class="st10" d="M251.4,229.76c0,0-1.31,0.65-15.85,2.1c-14.54,1.44-22.92-0.79-22.92-0.79l-3.41,11
				c0,0-20.7,46.37-22.27,51.35c-1.57,4.98-11.53,58.43-13.1,68.64c0,0,1.87,1.11,5.04,2.2c2.6,0.89,6.06,1.77,10.08,2.01
				c1.45,0.09,2.96,0.09,4.53-0.02c0,0,15.98-59.74,17.03-66.02C211.57,293.95,252.18,250.72,251.4,229.76z"/>
			<g>
				<path class="st10" d="M190.61,373.86c-0.12-0.83-0.91-0.83-2.25-0.93c-0.18,1.66-0.67,2.63-2.47,2.63
					c-4.05,0-9.8-6.26-8.65-7.59c-2.04-1.22-3.66-2.11-3.66-2.11s-8.25,1.18-12.71,0.79c-4.45-0.39-10.87-1.57-11.66,3.01
					s15.72,12.84,19.65,13.75c3.93,0.92,14.93,3.8,17.68,2.88C189.3,385.39,190.87,375.69,190.61,373.86z"/>
				<path class="st8" d="M178.88,364.27c-0.42,1.37-1,3-1.63,3.69c0,0,0,0.01,0,0.01c-1.15,1.33,4.6,7.59,8.65,7.59
					c1.8,0,2.29-0.98,2.47-2.63c0.18-1.64,0.05-3.96,0.6-6.65C184.95,366.04,181.48,365.17,178.88,364.27z"/>
			</g>
			<path class="st0" d="M222.84,182.86c-0.17-16.01,0-25.61,3.22-31.62c-0.66,0.52-3.17-1.6-8.91-1.33
				c-6.8,0.32-9.04,30.85-9.04,30.85s-7.86,20.63-7.86,32.82s-0.39,18.27-0.39,18.27s0.57,0.15,1.58,0.38
				c1.54,0.35,4.11,0.89,7.27,1.39c6.38,1.01,15.15,1.85,22.71,0.61c0.44-0.07,0.87-0.15,1.29-0.23
				C229.28,223.3,223.03,201.29,222.84,182.86z"/>
			<g>
				<g>
					<path class="st5" d="M240.94,130.33c-0.22-1.81-1.01-2.61-2.07-2.79c0,0,3.97-25.24-15.94-25.24
						c-19.91,0-13.82,23.83-14.58,28.15c-0.76,4.32,0.21,15.61,8.86,15.35c0.97-0.03,1.89-0.1,2.76-0.2l-0.84,7.61
						c0,0,9.51,7.23,18.52-1.65l-2.66-12.74C234.98,138.82,241.83,137.56,240.94,130.33z"/>
					<path class="st13" d="M230,142.22c-6.42,3.76-10.03,3.38-10.03,3.38l-0.41,4.96C232.04,150.76,230,142.22,230,142.22z"/>
				</g>
				<path class="st17" d="M238.87,127.54c0,0-2.58-1.76-4.79,2.91c-2.21,4.67-3.96,0-3.96,0s-3.01-9.56,0-11.45
					c3.01-1.9-3.46-4.43-5.28-4.74c-1.82-0.32-2.77-5.69-6.56-4.11c-3.79,1.58-13.91,2.26-14.86-0.29c0,0,3.55-5.72,4.62-6.03
					c1.07-0.32-4.62-1.52-4.62-1.52s3.44-7.96,9.8-3.85l-3.08-3.64c0,0,11.27-2.05,14.7,3.08c0,0-1.09-4.13-0.31-3.49
					c0.78,0.64,13.2,2.3,14.34,10.13C240.01,112.35,242.36,113.93,238.87,127.54z"/>
				<g>
					<path class="st18" d="M219.93,126c0.15,1.06,1.12,1.79,2.18,1.64c1.06-0.15,1.79-1.12,1.64-2.18
						c-0.15-1.06-1.12-1.79-2.18-1.64C220.52,123.97,219.78,124.94,219.93,126z"/>
					<path class="st10" d="M226.74,123.08c0.18-0.01,0.36-0.08,0.5-0.2c0.34-0.3,0.37-0.81,0.07-1.15c-0.18-0.2-4.38-4.87-9.72-2.77
						c-0.42,0.16-0.62,0.64-0.46,1.05c0.16,0.42,0.63,0.62,1.05,0.46c4.27-1.69,7.87,2.3,7.9,2.34
						C226.26,123,226.5,123.09,226.74,123.08z"/>
					<path class="st18" d="M208.62,125.33c0.15,1.06,1.12,1.79,2.18,1.64c1.06-0.15,1.79-1.12,1.64-2.18
						c-0.15-1.06-1.12-1.79-2.18-1.64C209.2,123.3,208.47,124.27,208.62,125.33z"/>
					<path class="st10" d="M214.79,121.43c0.16-0.01,0.33-0.06,0.46-0.17c0.35-0.28,0.42-0.78,0.14-1.13
						c-0.11-0.14-2.7-3.39-8.06-1.28c-0.42,0.16-0.62,0.64-0.46,1.05c0.16,0.42,0.64,0.62,1.05,0.46c4.18-1.65,6.1,0.67,6.18,0.77
						C214.28,121.33,214.54,121.44,214.79,121.43z"/>
					<path class="st10" d="M219.89,137.94c0,0,0.01,0,0.01,0c1.27-0.08,2.27-0.52,2.97-1.32c1.1-1.25,1-2.91,1-2.98
						c-0.03-0.45-0.46-0.74-0.87-0.76c-0.45,0.03-0.78,0.42-0.76,0.86c0.02,0.4,0.01,2.42-2.44,2.57c-0.45,0.03-0.79,0.41-0.76,0.86
						C219.07,137.62,219.45,137.96,219.89,137.94z"/>
					<path class="st10" d="M217.44,132.63c0.04,0,0.07,0,0.08,0c0.45-0.04,0.78-0.43,0.74-0.88c-0.04-0.44-0.46-0.77-0.88-0.74
						c-0.05,0.02-1.08,0.06-1.55-0.54c-0.46-0.59-0.27-1.65-0.02-2.44c1.44-4.59,0.43-6.4,0.31-6.59c-0.24-0.38-0.74-0.5-1.12-0.26
						c-0.38,0.24-0.5,0.74-0.26,1.12l0,0c0,0,0.71,1.43-0.48,5.24c-0.53,1.7-0.43,3.03,0.31,3.95
						C215.49,132.64,217.07,132.65,217.44,132.63z"/>
					<path class="st11" d="M225.01,129.84c0,0-1.99-1.32-2.6,0.03c-0.73,1.63,4.25,2.51,4.25,2.51s1.47-4.61-0.37-4.76
						C224.45,127.48,225.01,129.84,225.01,129.84z"/>
					<path class="st11" d="M210.69,131.03c0,0-1.99-1.32-2.6,0.03c-0.73,1.63,4.25,2.51,4.25,2.51s1.47-4.61-0.37-4.76
						C210.13,128.67,210.69,131.03,210.69,131.03z"/>
					<path class="st10" d="M234.22,132.97c0.19-0.45,0.71-0.65,1.16-0.46c0.47,0.21,0.85,0.01,1.11-0.24
						c-0.29-0.29-0.43-0.54-0.46-0.6c-0.21-0.43-0.04-0.93,0.38-1.15c0.42-0.23,0.95-0.07,1.19,0.34c0.01,0.02,0.36,0.59,1.46,0.64
						c0.49,0.02,0.86,0.44,0.84,0.92c-0.02,0.47-0.41,0.84-0.88,0.84c-0.01,0-0.03,0-0.04,0c-0.33-0.02-0.62-0.07-0.89-0.13
						c-0.48,0.61-1.27,1.24-2.29,1.24c-0.35,0-0.72-0.07-1.11-0.24C234.24,133.93,234.03,133.41,234.22,132.97z"/>
				</g>
			</g>
			<path class="st15" d="M258.73,221.38c-0.26-3.93,1.31-10.22-2.1-15.98c-3.41-5.76,5.24-21.22,2.36-35.89
				c-2.88-14.67-2.1-33.27-23.58-25.68c-4.54,1.61-7.47,3.89-9.36,7.42c-3.21,6-3.38,15.61-3.22,31.62
				c0.19,18.43,6.44,40.44,9.86,51.14c1.3,4.06,2.19,6.5,2.19,6.5s22.53-2.62,25.15-9.69C262.66,223.74,258.99,225.31,258.73,221.38
				z"/>
			<path class="st6" d="M268.99,192.47c-1.05-5.74-10-36.12-10.15-40.46c-0.15-4.34-8.2-10.4-11.7-9.69
				c-3.49,1.59-7.4,14.03-7.82,25c-0.42,10.97,3.87,28.91,4.19,34.43c0.26,4.43-1.87,25.67-5.52,33.64
				c-0.9,1.97-1.89,3.13-2.97,3.02c0,0,4.06,6.52,13.03,4.35c0.21-0.05,0.42-0.11,0.63-0.18c8.65-2.63,15.13-15.61,19.39-27.08
				C272.45,203.76,270.04,198.22,268.99,192.47z"/>
			<path class="st10" d="M235.03,238.42c-1.6-0.16-3.25,0.3-4.83,1.06c0,0.01,1.68,10.63,12.51,8.52c0,0,4.13-0.73,5.98-5.41
				c-0.21,0.06-0.42,0.13-0.63,0.18C239.09,244.94,235.03,238.42,235.03,238.42z"/>
			<path class="st0" d="M239.98,249.58c-2.63,0-4.91-0.78-6.79-2.33c-3.38-2.78-4.28-7.27-4.28-7.77c0-0.72,0.58-1.3,1.3-1.3
				c0.65,0,1.2,0.48,1.29,1.11c0.04,0.23,0.78,4.19,3.83,6.32c1.86,1.3,4.27,1.67,7.14,1.11c0.7-0.14,1.39,0.32,1.53,1.03
				c0.14,0.71-0.32,1.39-1.03,1.53C241.92,249.48,240.92,249.58,239.98,249.58z M231.5,239.48h0.01H231.5z"/>
		</g>
	</g>
	<g>
		<g>
			<path class="st2" d="M241.72,383.43c0,2.92,10.04,5.29,22.42,5.29c12.38,0,22.42-2.37,22.42-5.29c0-2.92-10.04-5.29-22.42-5.29
				C251.76,378.14,241.72,380.51,241.72,383.43z"/>
			<path class="st2" d="M357.1,374.86c0,2.92,10.04,5.29,22.42,5.29s22.42-2.37,22.42-5.29c0-2.92-10.04-5.29-22.42-5.29
				S357.1,371.94,357.1,374.86z"/>
			<path class="st5" d="M362.48,335.81c1.14,1.1,2.94,2.91,3.1,3.52c0.18,0.69-0.49,13.48-0.97,20.94
				c-0.15,2.34-0.29,4.16-0.37,4.91c-0.35,3.14,2.8,6.42,8.21-0.72c5.4-7.14,8.02-20.51,6.78-24.01c-0.66-1.86-4.02-5.12-7.03-7.77
				c-1.52-1.34-2.94-2.51-3.88-3.28C366.83,332.6,364.03,334.78,362.48,335.81z"/>
			<g>
				<g>
					<path class="st19" d="M373.52,357.1c7.68-11.31,10.47-12.31,11.98-16.09c-3.46-2.95-10.5-6.05-10.5-6.05l-9.79,12.06
						c0,0-0.7,5.8-1.57,8.92c-0.68,2.44-5.86,11.41-5.78,16.29C361.8,370.07,367.67,365.73,373.52,357.1z"/>
					<path class="st0" d="M359.36,375.11c4.8,2.27,19.97-17.33,20.14-20.4c0.17-3.07,0.9-0.95,0.9-0.95s8.8-8.08,6.47-11.34
						c-0.33-0.46-0.8-0.93-1.37-1.41c-1.51,3.78-4.31,4.78-11.98,16.09c-5.86,8.62-11.72,12.97-15.66,15.12
						C357.88,373.58,358.31,374.62,359.36,375.11z"/>
				</g>
				<path class="st0" d="M367.28,354.66c0.33,0.47-0.87,1.72-2.69,2.79c-1.82,1.07-3.56,1.55-3.9,1.08
					c-0.33-0.47,0.87-1.72,2.69-2.79C365.2,354.67,366.94,354.19,367.28,354.66z"/>
				<path class="st0" d="M368.77,349.56c0.33,0.47-0.87,1.72-2.69,2.79c-1.82,1.07-3.56,1.55-3.9,1.08
					c-0.33-0.47,0.87-1.72,2.69-2.79C366.69,349.57,368.43,349.08,368.77,349.56z"/>
			</g>
			<path class="st5" d="M275.14,357.65c-0.44,1.53-1.18,3.96-1.65,4.39c-0.52,0.49-12.13,5.91-18.94,8.99
				c-2.14,0.97-3.81,1.71-4.51,1.99c-2.93,1.17-4.35,5.49,4.49,6.9c8.84,1.41,21.87-2.57,24.38-5.3c1.33-1.45,2.62-5.96,3.55-9.86
				c0.47-1.97,0.83-3.77,1.07-4.96C280.02,359.99,276.78,358.54,275.14,357.65z"/>
			<path class="st20" d="M300.14,227.73c0,0,0.33,4.47,0.54,6.5c0.2,2.03,0.41,33.51,16.25,57.68c15.84,24.17,45.09,52.4,45.09,52.4
				s10.56-2.84,12.79-15.03c0,0-34.73-43.87-39.4-53.21c-4.67-9.34-7.72-47.73-7.72-47.73L300.14,227.73z"/>
			<g>
				<path class="st21" d="M303.72,240.12c0,0-17.26,37.77-21.73,50.57c-4.47,12.79-13.81,68.03-13.81,68.03s5.69,5.28,18.48,3.86
					c0,0,15.03-64.58,17.26-67.22c2.23-2.64,33.31-42.65,36.35-53.82c3.05-11.17,0-14.22,0-14.22l-33.31,0.81L303.72,240.12z"/>
				<path class="st0" d="M281.16,363.13c-0.06,0-0.13-0.01-0.19-0.02c-0.54-0.1-0.9-0.63-0.79-1.17
					c0.49-2.54,11.98-62.25,15.61-71.68c4.24-11.02,34.55-60.32,35.84-62.41c0.29-0.47,0.9-0.62,1.38-0.33
					c0.47,0.29,0.62,0.91,0.33,1.38c-0.31,0.51-31.51,51.23-35.67,62.08c-3.56,9.27-15.39,70.72-15.51,71.34
					C282.05,362.79,281.63,363.13,281.16,363.13z"/>
			</g>
			<g>
				<g>
					<path class="st19" d="M262.59,377.55c11.66-0.07,17.84,0.53,21.23-0.36c0.4-4.52-0.81-12.08-0.81-12.08l-13.21-1.25
						c0,0-8.55,3.84-11.16,4.89c-2.04,0.82-10.85,1.63-14.24,4.45C247.81,375.22,253.69,377.6,262.59,377.55z"/>
					<path class="st0" d="M243.08,376.05c0.72,5.24,21.94,6.22,24.18,4.62c2.24-1.6,4.5,0.43,4.5,0.43s10.54,1.78,11.71-1.99
						c0.16-0.53,0.27-1.19,0.33-1.93c-3.39,0.9-9.57,0.3-21.23,0.36c-8.89,0.05-14.78-2.32-18.19-4.36
						C243.45,373.97,242.92,374.91,243.08,376.05z"/>
				</g>
				<path class="st0" d="M261.29,371.01c-0.17,0.54-1.63,0.26-3.26-0.64c-1.63-0.89-2.81-2.06-2.64-2.6
					c0.17-0.54,1.63-0.26,3.26,0.64C260.28,369.31,261.46,370.47,261.29,371.01z"/>
				<path class="st0" d="M265.6,369.36c-0.17,0.54-1.63,0.26-3.26-0.64c-1.63-0.89-2.81-2.06-2.64-2.6
					c0.17-0.54,1.63-0.26,3.26,0.64C264.59,367.65,265.77,368.81,265.6,369.36z"/>
			</g>
			<path class="st8" d="M252.89,178.91c-2.72-1.84-3.2-4.89-8.58-7.54c-5.38-2.65-18.9-6.01-21.48,1.15c0,0-0.76,1.77,4.7,0.23
				c5.45-1.54,7.06-0.84,7.06-0.84s-4.77,3.69-3.7,6.06c1.07,2.37,2.87,5.05,5.18,4.42c2.31-0.63,1.47-2,1.47-2s3.72,2.12,5.87,1.71
				c2.15-0.41,5.44,2.49,5.44,2.49S255.23,180.49,252.89,178.91z"/>
			<path class="st22" d="M310.52,185.76c0,0-22.93,19.45-30.46,20.59c-7.53,1.15-31.99-17.76-33.25-19.82
				c-1.26-2.06,3.72-9.81,6.78-10.34c3.06-0.53,17.19,12.02,21.51,13.55c4.32,1.53,11.75-9.9,18.98-17
				c11.67-11.48,19.3-13.33,23.85-6.93C322,171.55,318.25,179.76,310.52,185.76z"/>
			<path class="st19" d="M333.21,188.31c0.19-6.41,1.29-25.04-6.73-29.31c-10.68-5.44-21.48,8.28-21.48,8.28s-8.96,8.32-11.47,15
				c-0.68,1.81-0.89,3.5-0.31,4.87c0.05,0.12,0.11,0.25,0.16,0.37c2.74,6.43,7.41,16.52,7.41,26.61c0,10.29-2.61,18.5-2.61,18.5
				s0.31,0.09,0.85,0.22c0.66,0.16,1.68,0.39,3,0.61c1.26,0.21,6.34,0.69,7.31,0.72c7.62,0.24,23.28,0.03,31.63-6.9
				c0.71-0.59,1.41-1.21,2.09-1.88C343.07,225.39,333.02,194.71,333.21,188.31z"/>
			<g>
				<path class="st22" d="M357.75,253.98c-6.12-1.39-2.93-29.98-4.97-41.64c-1.45-8.26-36.52-40.73-25.6-50.26
					c8.23-7.18,18.43,7.71,18.43,7.71s15.6,21.91,18.52,27.03c2.92,5.12,11.93,26.39,4.63,43.58c-1.21,2.85,1.18,4.5,1.16,6.07
					c-0.01,1.6-1.43,2.99-1.86,4.22c-0.22,0.61-0.71,1.07-1.32,1.27L357.75,253.98z"/>
				<path class="st5" d="M360.5,278.52c2.26,0.39-0.29-7.34-0.63-8.32c-0.02-0.07-0.04-0.11-0.04-0.11s0.01,0.04,0.04,0.11
					c0.34,0.98,3.05,8.62,5.08,7.78c1.38-0.57,0.07-4.3-0.94-6.69c-0.55-1.15-0.91-2.02-0.91-2.02s0.42,0.85,0.91,2.02
					c1.17,2.43,3.19,6.11,4.51,5.53c1.94-0.85-2-8.68-2-8.68s4.26,6.94,5.6,6.2c1.34-0.74-2.27-8.47-2.27-8.47s2.69-4.43-0.31-8.68
					c-0.54-0.76-2.09-4.84-1.68-7.22c0.08-0.49-0.23-0.95-0.73-1.02c-2.88-0.38-6.15,0.72-8.14,2.37c-0.74,2.79-1.75,6.41-2.19,8.53
					C354.78,269.82,358.09,278.1,360.5,278.52z"/>
			</g>
			<path class="st23" d="M295.12,132.21c0.45-10.92,13.46-14.24,13.46-14.24s7.41,2.76,8.17,10.64c0.27,2.79,1.2,4.65,2.29,5.9
				c1.99,2.29,4.51,2.53,4.51,2.53s5.9-6.5,9.07-1.11c3.18,5.39-7.41,10.51-7.41,10.51l-0.09,4.45l-0.05,13.28
				c0,0-1.39,0.95-3.58,1.59c-8.68,3.08-12.61-1.59-12.61-1.59l3.92-9.29h-4.99C296.78,153.36,294.67,143.13,295.12,132.21z"/>
			<g>
				<path class="st10" d="M330.15,139.58c0.09-0.01,0.18-0.04,0.27-0.08c0.42-0.21,0.57-0.68,0.35-1.06
					c-0.9-1.53-2.41-1.55-3.07-1.36c-0.45,0.13-0.7,0.58-0.55,0.99c0.14,0.41,0.62,0.62,1.06,0.51c0.14-0.04,0.65-0.08,1.06,0.61
					C329.43,139.48,329.8,139.63,330.15,139.58z"/>
				<path class="st10" d="M325.6,141.72c0.14,0.05,0.3,0.08,0.46,0.05c2.79-0.4,3.95-3.39,4-3.52c0.15-0.41-0.05-0.84-0.53-0.99
					c-0.44-0.14-0.93,0.07-1.09,0.48c-0.01,0.02-0.88,2.23-2.65,2.48c-0.47,0.07-0.79,0.47-0.71,0.89
					C325.13,141.39,325.34,141.61,325.6,141.72z"/>
			</g>
			<g>
				<path class="st18" d="M309.24,137.6c0.17,1.07,1.25,1.82,2.43,1.67c1.18-0.15,1.99-1.14,1.83-2.22
					c-0.17-1.07-1.25-1.82-2.43-1.67C309.89,135.54,309.08,136.53,309.24,137.6z"/>
				<path class="st10" d="M316.82,134.64c0.2-0.01,0.4-0.08,0.56-0.21c0.37-0.3,0.41-0.83,0.08-1.17c-0.2-0.2-4.88-4.96-10.82-2.82
					c-0.46,0.17-0.69,0.65-0.51,1.07c0.18,0.42,0.7,0.63,1.17,0.47c4.76-1.72,8.76,2.34,8.8,2.38
					C316.29,134.55,316.56,134.65,316.82,134.64z"/>
				<path class="st18" d="M296.64,136.92c0.17,1.07,1.25,1.82,2.43,1.67c1.18-0.15,1.99-1.14,1.83-2.22
					c-0.17-1.07-1.25-1.82-2.43-1.67C297.29,134.86,296.48,135.85,296.64,136.92z"/>
				<path class="st10" d="M303.52,132.95c0.18-0.01,0.36-0.06,0.52-0.17c0.39-0.28,0.46-0.79,0.16-1.15
					c-0.12-0.14-3.01-3.46-8.98-1.31c-0.46,0.17-0.69,0.65-0.51,1.07c0.18,0.43,0.71,0.63,1.17,0.47c4.65-1.68,6.8,0.68,6.89,0.78
					C302.95,132.86,303.24,132.96,303.52,132.95z"/>
				<path class="st10" d="M309.2,149.76c0.01,0,0.01,0,0.02,0c1.41-0.08,2.52-0.53,3.3-1.34c1.23-1.27,1.12-2.96,1.11-3.03
					c-0.03-0.46-0.51-0.76-0.96-0.77c-0.5,0.03-0.87,0.42-0.84,0.88c0.03,0.41,0.01,2.46-2.72,2.62c-0.5,0.03-0.88,0.42-0.85,0.88
					C308.29,149.44,308.71,149.78,309.2,149.76z"/>
				<path class="st10" d="M306.47,144.36c0.05,0,0.08,0,0.09,0c0.5-0.04,0.87-0.44,0.82-0.89c-0.05-0.45-0.51-0.78-0.98-0.75
					c-0.05,0.02-1.2,0.06-1.73-0.55c-0.52-0.6-0.3-1.68-0.02-2.49c1.6-4.67,0.48-6.51,0.35-6.71c-0.26-0.39-0.82-0.5-1.25-0.26
					c-0.42,0.24-0.55,0.75-0.29,1.14l0,0c0,0,0.79,1.46-0.54,5.34c-0.59,1.73-0.48,3.09,0.34,4.02
					C304.3,144.37,306.05,144.37,306.47,144.36z"/>
				<path class="st11" d="M314.9,141.52c0,0-2.22-1.34-2.89,0.03c-0.81,1.65,4.73,2.56,4.73,2.56s1.63-4.69-0.42-4.84
					C314.27,139.12,314.9,141.52,314.9,141.52z"/>
				<path class="st11" d="M298.95,142.73c0,0-2.22-1.34-2.89,0.03c-0.81,1.65,4.73,2.56,4.73,2.56s1.63-4.69-0.42-4.84
					C298.32,140.32,298.95,142.73,298.95,142.73z"/>
			</g>
			<path class="st3" d="M336.93,131.1c-0.68-20.73-14.52-20.94-14.52-20.94c-0.47-0.08-0.92-0.13-1.37-0.17l0.01-0.07
				c0,0-23.82-3.91-28.58,13.51c-4.76,17.42-0.87,26.29-3.4,33.94c-2.43,7.35,0.46,20.22,0.47,20.25c1.5-1.71,3.02-3.38,4.53-4.87
				c6.34-6.24,11.48-9.61,15.58-10.38l3.16-7.48h-4.99c-11.04-1.52-13.16-11.75-12.7-22.67c0.45-10.92,13.46-14.24,13.46-14.24
				s7.41,2.76,8.17,10.64c0.04,0.44,0.11,0.85,0.18,1.24c0.02,0.12,0.05,0.23,0.07,0.34c0,0,0,0,0,0c0.06,0.29,0.13,0.56,0.21,0.82
				c0.03,0.1,0.05,0.2,0.08,0.3c0.1,0.31,0.21,0.6,0.32,0.88c0.06,0.14,0.12,0.27,0.18,0.4c0.07,0.14,0.13,0.27,0.2,0.4
				c0.08,0.15,0.16,0.3,0.25,0.44c0.03,0.05,0.07,0.1,0.1,0.15c0,0,0,0,0,0c0.12,0.19,0.25,0.37,0.38,0.54
				c0.02,0.02,0.03,0.04,0.05,0.06c0.12,0.15,0.24,0.3,0.36,0.43c0.02,0.02,0.04,0.04,0.05,0.06c0.12,0.13,0.24,0.25,0.36,0.36
				c0.03,0.03,0.06,0.05,0.09,0.08c0.11,0.1,0.22,0.2,0.33,0.29c0.03,0.03,0.07,0.05,0.1,0.08c0.11,0.09,0.22,0.17,0.33,0.25
				c0.03,0.02,0.07,0.05,0.1,0.07c0.11,0.08,0.22,0.15,0.33,0.22c0.03,0.02,0.06,0.04,0.09,0.05c0.12,0.07,0.24,0.14,0.36,0.2
				c0.01,0.01,0.03,0.02,0.04,0.02c0.27,0.14,0.52,0.25,0.76,0.34c0.03,0.01,0.07,0.02,0.1,0.04c0.08,0.03,0.16,0.06,0.23,0.08
				c0.04,0.01,0.08,0.03,0.12,0.04c0.06,0.02,0.13,0.04,0.18,0.06c0.04,0.01,0.08,0.02,0.11,0.03c0.05,0.01,0.1,0.03,0.15,0.04
				c0.04,0.01,0.07,0.02,0.1,0.02c0.04,0.01,0.08,0.02,0.12,0.03c0.03,0.01,0.05,0.01,0.08,0.02c0.03,0.01,0.07,0.01,0.09,0.02
				c0.02,0,0.04,0.01,0.06,0.01c0.03,0,0.05,0.01,0.06,0.01c0.01,0,0.02,0,0.03,0c0.02,0,0.03,0,0.03,0s5.9-6.5,9.07-1.11
				c3.18,5.39-7.41,10.51-7.41,10.51s-0.87,2.53-1.04,4.67c-0.38,4.97-2.38,5.31-2.99,19.3c-0.13,2.83,0.98,6.48,1.23,11.89
				c0.68,14.72,14.06,21.56,12.74,15.97c-1.33-5.6,8.25-8.5,5.86-19.08c-2.38-10.57,5.77-10.27,6.81-17.62
				C348.86,154.23,337.61,151.84,336.93,131.1z"/>
		</g>
		<g>
			<path class="st2" d="M454.2,388.72c0,2.92,8.39,5.29,18.73,5.29c10.35,0,18.73-2.37,18.73-5.29c0-2.92-8.39-5.29-18.73-5.29
				C462.59,383.43,454.2,385.8,454.2,388.72z"/>
			<path class="st2" d="M385.37,395.04c0,2.92,8.39,5.29,18.73,5.29c10.35,0,18.73-2.37,18.73-5.29c0-2.92-8.39-5.29-18.73-5.29
				C393.75,389.75,385.37,392.12,385.37,395.04z"/>
			<g>
				<path class="st24" d="M373.27,249.64c-5.04-5.36,20.66-27.91,27.78-39.38c5.04-8.12-4.52-60.02,13.91-60.84
					c13.9-0.62,12.39,19.18,12.39,19.18s-1.61,29.54-2.72,35.95c-1.1,6.41-8.82,30.92-29.65,40.82c-3.45,1.64-2.36,4.68-3.61,6.04
					c-1.27,1.38-3.78,1.62-5.19,2.39c-0.7,0.38-1.55,0.45-2.33,0.2L373.27,249.64z"/>
				<path class="st25" d="M356.71,272.71c1.96,1.87,5.48-6.54,5.92-7.62c0.03-0.07,0.05-0.12,0.05-0.12s-0.02,0.04-0.05,0.12
					c-0.43,1.08-3.73,9.52-1.04,10.18c1.83,0.44,3.45-3.67,4.32-6.42c0.35-1.37,0.67-2.37,0.67-2.37s-0.25,1.02-0.67,2.37
					c-0.74,2.89-1.61,7.45,0.16,7.85c2.61,0.58,4.82-8.86,4.82-8.86s-1.19,8.89,0.74,9.16c1.93,0.27,4.39-8.87,4.39-8.87
					s6.18-2.01,6.52-7.71c0.06-1.03,1.72-5.6,4-7.39c0.47-0.37,0.52-0.98,0.07-1.38c-2.58-2.28-6.73-3.56-10.01-3.48
					c-2.94,1.91-6.8,4.35-8.91,5.89C357.82,261.31,354.62,270.71,356.71,272.71z"/>
			</g>
			<g>
				<path class="st26" d="M471.1,334.98c-7.08-9.38-20.86-28.31-23.73-37.26c-1.63-5.09-2.37-14.38-2.65-23.99
					c-0.41-13.74,0.11-28.11,0.25-31.71c-12.45,2.59-27.67,0.65-33.91-0.37c-0.2,1.36-0.76,5.48-1.05,11.25
					c-0.62,12.06-0.13,31.39,7.04,48.21c8.83,20.7,24.24,41.16,30.79,49.38c2.04,2.56,5.28,3.85,8.5,3.35
					c0.09-0.01,0.18-0.01,0.27-0.03c3.81-0.72,8.94-2.48,13.5-6.72c1.15-1.06,1.92-2.37,2.37-3.77
					C473.38,340.56,472.96,337.43,471.1,334.98z"/>
				<g>
					<g>
						<path class="st0" d="M472.48,343.31c-0.46,1.4-1.23,2.71-2.37,3.77c-4.56,4.24-9.69,6-13.5,6.72
							c-0.09,0.02-0.18,0.02-0.27,0.03l6.26,6.47c0,0,1.73-0.01,4.02-0.65c2.62-0.73,5.98-2.32,8.38-5.68
							c0.45-0.63,0.88-1.31,1.25-2.07L472.48,343.31z"/>
						<g>
							<path class="st0" d="M477.49,357.82l-1.12-1.72c-1.81,4.13-6.2,5.11-8.47,5.33l1.1,1.51l1.25,1.71c0,0,6.98,0.29,7.92-5.78
								L477.49,357.82z"/>
							<path class="st25" d="M476.37,356.1l-1.38-2.12c-2.4,3.37-5.76,4.95-8.38,5.68l1.29,1.77
								C470.17,361.21,474.56,360.23,476.37,356.1z"/>
						</g>
						<path class="st0" d="M453.44,386.37c0,0,5.47,2.74,21.16-8.55c13.84-9.96,12.04-11.44,10.76-12.5l0,0c0,0,2.8,2.1,2.9,4.03
							c0.11,1.94-9.36,8.84-10.45,9.53c-1.08,0.69-2.38-1.12-2.6,0.04c-0.21,1.16-0.83,4.44-9.51,7.95
							C457.03,390.37,453.3,388.3,453.44,386.37z"/>
					</g>
					<g>
						<path class="st27" d="M455.24,163.09c-1.94-4.84-3.58-11.49-9.19-15.45c-4.66-3.29-12.48-6.06-24.68-1.68
							c-3.99,1.43-7.68,0.2-11.42,13.59c-3.74,13.39,0.64,35.65-0.15,47.46c-0.62,9.25-1.26,24.93-1.51,31.3
							c-0.06,1.64,1.1,3.06,2.71,3.33c0.02,0,0.04,0.01,0.05,0.01c4.01,0.65,11.74,1.68,20.05,1.65c4.62-0.02,9.41-0.36,13.85-1.28
							c7.07-1.47,13.25-4.4,16.38-9.82C461.35,232.2,458.79,171.95,455.24,163.09z"/>
					</g>
					<g>
						<g>
							<g>
								<path class="st0" d="M416.86,363.21c-1.22,0.82-2.64,1.38-4.19,1.51c-4.87,0.41-9.06-0.6-12.31-1.91l2.64,7.92
									c0,0,1.56,0.74,3.9,1.16c2.68,0.48,6.39,0.5,10.02-1.5c0.68-0.37,1.36-0.8,2.02-1.33l0.28-8.14
									C418.57,361.81,417.77,362.59,416.86,363.21z"/>
								<path class="st28" d="M461.35,232.2c-3.13,5.41-9.31,8.34-16.38,9.82c-4.44,0.93-9.24,1.27-13.85,1.28c0,0,0,0,0,0
									c-4.81,24.73-24.93,26.39-31.9,52.51c-5.8,21.74-10.12,61.89-1.56,65.74c0.08,0.04,0.15,0.1,0.23,0.14
									c0.74,0.38,1.57,0.76,2.46,1.12c3.25,1.31,7.44,2.32,12.31,1.91c1.56-0.13,2.97-0.69,4.19-1.51
									c0.92-0.62,1.71-1.4,2.36-2.29c1.04-1.45,1.66-3.22,1.7-5.12c0.2-11.75,1.02-35.16,4.28-43.97
									C429.68,299.65,467.09,270.2,461.35,232.2z"/>
							</g>
							<path class="st0" d="M417.5,374.93l-0.26-2.04c-3.42,2.94-7.8,1.92-9.94,1.14l0.34,1.83l0.38,2.09c0,0,6.17,3.28,9.65-1.78
								L417.5,374.93z"/>
							<path class="st25" d="M417.23,372.9l-0.32-2.51c-3.62,2-7.33,1.97-10.02,1.5l0.4,2.15
								C409.43,374.82,413.82,375.83,417.23,372.9z"/>
						</g>
						<g>
							<path class="st0" d="M383.96,391.46c0,0,3.9,4.72,22.81,0.76c16.68-3.5,15.65-5.59,14.9-7.07c0,0,0,0,0,0
								c0,0,1.71,3.05,1.02,4.87c-0.68,1.81-12.14,4.29-13.41,4.48c-1.27,0.19-1.72-1.99-2.39-1.02c-0.67,0.97-2.56,3.73-11.92,3.41
								C385.61,396.58,383.05,393.17,383.96,391.46z"/>
							<g>
								<path class="st29" d="M485.37,365.32c-0.17-0.14-0.33-0.27-0.45-0.42c-0.97-1.22-7.93-10.77-7.84-7.72
									c0,0,1.66,2.56-3.05,5.13c-4.72,2.57-4.61,1.18-4.61,1.18s0.13-1.07-0.75-1.44c-0.88-0.37-1.13,0.14-1.91-0.47
									c-0.41-0.32-0.88,0.99-1.31,2.56l0,0l0,0c-0.39,1.42-0.74,3.05-0.98,3.87c-0.43,1.49-3.24,5.71-4.13,7.87
									c-0.14,0.35-0.24,0.65-0.26,0.87c-0.17,1.59-7.68,5.99-6.64,9.63c0,0,5.47,2.74,21.16-8.55
									C488.44,367.86,486.65,366.37,485.37,365.32z"/>
								<path class="st29" d="M421.43,384.58c-0.39-1.51-2.88-13.06-4.04-10.24c0,0,0.49,3.01-4.87,3.45
									c-5.35,0.44-4.69-0.79-4.69-0.79s0.55-0.93-0.1-1.62c-0.65-0.7-1.09-0.33-1.56-1.21c-0.25-0.46-1.21,0.55-2.24,1.81
									c-0.93,1.14-1.91,2.49-2.46,3.14c-1,1.19-5.28,3.91-6.96,5.53c-0.27,0.26-0.48,0.5-0.59,0.69c-0.8,1.38-9.45,2.36-9.97,6.11
									c0,0,3.9,4.72,22.81,0.76c16.68-3.5,15.65-5.59,14.9-7.07C421.57,384.95,421.47,384.76,421.43,384.58z"/>
							</g>
						</g>
					</g>
				</g>
			</g>
			<g>
				<path class="st24" d="M473.61,252.45c-6.57-1.81-1.67-32.65-3.3-45.39c-1.16-9.02-37.54-45.99-25.23-55.77
					c9.29-7.37,19.59,9.29,19.59,9.29s15.81,24.54,18.72,30.23c2.91,5.7,11.61,29.21,2.83,47.48c-1.45,3.02,1.05,4.93,0.95,6.64
					c-0.09,1.74-1.7,3.17-2.23,4.48c-0.26,0.65-0.82,1.13-1.5,1.31L473.61,252.45z"/>
				<path class="st25" d="M475.35,279.19c2.43,0.54,0.05-7.97-0.26-9.06c-0.02-0.07-0.03-0.12-0.03-0.12s0.01,0.04,0.03,0.12
					c0.32,1.08,2.87,9.5,5.11,8.69c1.53-0.55,0.29-4.66-0.68-7.29c-0.54-1.27-0.89-2.23-0.89-2.23s0.41,0.94,0.89,2.23
					c1.14,2.69,3.15,6.79,4.61,6.23c2.14-0.82-1.73-9.51-1.73-9.51s4.27,7.74,5.76,7c1.49-0.74-2.03-9.3-2.03-9.3
					s3.14-4.67,0.1-9.43c-0.55-0.85-2.02-5.36-1.46-7.92c0.12-0.53-0.2-1.05-0.74-1.14c-3.1-0.55-6.71,0.47-8.94,2.16
					c-0.95,2.99-2.22,6.86-2.8,9.14C469.58,269.47,472.75,278.61,475.35,279.19z"/>
			</g>
			<path class="st25" d="M436.48,97.29c11.41,6.41,9.53,18.02,5.97,26.59c0,0,2.9,7.17-5.54,10.17l-0.33,3.7l-0.53,6.03
				c0,0-0.22,4.52-3.12,9.65c-2.78,4.92-11.85,3.38-12.66-2.21l0,0l1.93-8.75l0.07-0.3c-0.44,0.03-0.9,0.05-1.38,0.05
				c-8.87,0-13.73-9.01-13.73-15.73c0-6.72,0-20.88,0-20.88S416.88,86.28,436.48,97.29z"/>
			<path class="st13" d="M422.27,142.16c0,0,5.84-1.1,9.99-4.53c0,0-0.69,9.04-10.66,9.69L422.27,142.16z"/>
			<path class="st17" d="M442.45,123.88c0,0-3.92-3.19-6.58,2.09l-6.36-11.57l3.49-2.03l-5.7-4.47c0,0-6.49,2.03-10.55,0l2.43-3.05
				c0,0-2.63,4.06-8.92,3.05l2.64-3.05c0,0-4.16,3.45-7.86,1.62c0,0,0.18-7.2,7.07-8.73l-2.86-2.31c0,0,4.85-0.48,7.92,0l-2.03-3.58
				c0,0,6.56-3.05,13.03,1.62c0,0,16.72,3.15,17.8,13.09C447.49,120.66,442.45,123.88,442.45,123.88z"/>
			<g>
				<g>
					<path class="st12" d="M420.97,124.47c-0.35,0-0.67-0.25-0.74-0.61c-0.16-0.82,0.01-1.66,0.45-2.31
						c0.39-0.58,0.98-0.97,1.64-1.1c1.47-0.27,2.9,0.8,3.21,2.39c0.08,0.41-0.19,0.8-0.59,0.88c-0.41,0.08-0.8-0.19-0.88-0.59
						c-0.15-0.79-0.81-1.33-1.46-1.21c-0.35,0.07-0.56,0.29-0.68,0.47c-0.22,0.33-0.3,0.76-0.22,1.18c0.08,0.41-0.19,0.8-0.59,0.88
						C421.07,124.47,421.02,124.47,420.97,124.47z"/>
					<path class="st12" d="M409.46,124.06c-0.35,0-0.67-0.25-0.74-0.61c-0.16-0.81,0-1.66,0.45-2.31c0.4-0.58,0.98-0.97,1.64-1.1
						c1.47-0.28,2.9,0.79,3.21,2.39c0.08,0.41-0.19,0.8-0.59,0.88c-0.41,0.08-0.8-0.19-0.88-0.59c-0.15-0.79-0.81-1.33-1.46-1.21
						c-0.35,0.07-0.56,0.29-0.68,0.47c-0.22,0.33-0.3,0.76-0.22,1.18c0.08,0.41-0.19,0.8-0.59,0.88
						C409.55,124.06,409.5,124.06,409.46,124.06z"/>
					<path class="st10" d="M415.42,118.74c0.16-0.02,0.33-0.08,0.46-0.19c0.34-0.29,0.38-0.8,0.09-1.14
						c-0.12-0.13-2.9-3.26-8.21-0.88c-0.41,0.19-0.6,0.67-0.41,1.08c0.19,0.41,0.67,0.59,1.09,0.41c4.14-1.86,6.2,0.36,6.28,0.46
						C414.91,118.67,415.17,118.76,415.42,118.74z"/>
					<path class="st10" d="M426.56,118.48c0.16-0.02,0.33-0.08,0.46-0.2c0.34-0.29,0.38-0.8,0.09-1.14
						c-0.12-0.13-2.9-3.26-8.21-0.88c-0.41,0.19-0.6,0.67-0.41,1.08c0.19,0.41,0.67,0.59,1.09,0.41c4.14-1.86,6.2,0.36,6.28,0.46
						C426.05,118.42,426.31,118.51,426.56,118.48z"/>
					<path class="st10" d="M416.86,133.82c0,0,0.01,0,0.01,0.01c1.2,0.44,2.31,0.44,3.28-0.01c1.53-0.7,2.12-2.26,2.14-2.33
						c0.15-0.42-0.12-0.87-0.49-1.04c-0.43-0.15-0.89,0.06-1.05,0.48c-0.14,0.38-0.98,2.22-3.31,1.37c-0.42-0.16-0.9,0.06-1.06,0.48
						C416.23,133.19,416.44,133.66,416.86,133.82z"/>
					<path class="st10" d="M418.66,129.82c0.04,0,0.07-0.01,0.08-0.01c0.45-0.06,0.76-0.47,0.7-0.92c-0.06-0.44-0.5-0.75-0.92-0.7
						c-0.05,0.02-1.09,0.11-1.6-0.46c-0.5-0.56-0.35-1.64-0.14-2.44c1.22-4.66,0.11-6.42-0.02-6.61c-0.26-0.37-0.77-0.46-1.14-0.2
						c-0.37,0.26-0.46,0.76-0.2,1.13l0,0c0,0,0.79,1.4-0.22,5.27c-0.45,1.73-0.28,3.06,0.51,3.94
						C416.7,129.93,418.29,129.85,418.66,129.82z"/>
					<path class="st11" d="M426.29,127.98c0,0-1.73-1.66-2.59-0.44c-1.03,1.47,3.75,3.26,3.75,3.26s2.31-4.27,0.51-4.75
						C426.16,125.55,426.29,127.98,426.29,127.98z"/>
					<path class="st11" d="M410.74,128.35c0,0,1.91-1.46,2.62-0.15c0.85,1.57-4.1,2.82-4.1,2.82s-1.81-4.5,0.03-4.78
						C411.14,125.95,410.74,128.35,410.74,128.35z"/>
				</g>
				<path class="st10" d="M439.83,128.01c0.06-0.01,0.13-0.03,0.19-0.06c0.29-0.16,0.4-0.52,0.24-0.81
					c-0.63-1.16-1.68-1.18-2.14-1.03c-0.31,0.1-0.48,0.44-0.38,0.75c0.1,0.31,0.43,0.48,0.74,0.39c0.1-0.03,0.45-0.06,0.74,0.46
					C439.33,127.93,439.58,128.05,439.83,128.01z"/>
				<path class="st10" d="M436.66,129.64c0.1,0.04,0.21,0.06,0.32,0.04c1.94-0.3,2.75-2.58,2.78-2.68c0.11-0.31-0.03-0.64-0.37-0.76
					c-0.31-0.11-0.65,0.06-0.76,0.37c-0.01,0.02-0.61,1.7-1.84,1.89c-0.32,0.05-0.55,0.35-0.5,0.68
					C436.34,129.39,436.48,129.56,436.66,129.64z"/>
			</g>
		</g>
	</g>
</g>
<g id="DESIGNED_BY_FREEPIK" class="st30">
	<g class="st31">
		<g>
			<g id="XMLID_225_">
				<g id="XMLID_244_">
					<path id="XMLID_252_" d="M259.98,475.01c-0.43,0.44-0.8,0.93-1.11,1.45l-0.46-0.24c-0.07-0.3-0.35-0.5-0.66-0.47
						c-0.33,0.04-0.57,0.34-0.53,0.67c0.04,0.33,0.34,0.57,0.67,0.53c0.07-0.01,0.13-0.03,0.18-0.05l0.45,0.23
						c-0.25,0.55-0.43,1.14-0.54,1.74l0.75,0.13c0.23-1.3,0.85-2.51,1.79-3.47L259.98,475.01z"/>
					<path id="XMLID_251_" d="M265.47,472.71c-0.17,0-0.34,0.01-0.51,0.02l-0.07-0.62c0.19-0.15,0.3-0.39,0.27-0.64
						c-0.05-0.39-0.4-0.67-0.8-0.63c-0.39,0.05-0.67,0.4-0.63,0.8c0.03,0.25,0.19,0.46,0.4,0.56l0.07,0.62
						c-0.71,0.12-1.4,0.33-2.06,0.64l0.33,0.69c0.94-0.45,1.94-0.67,3-0.67c0.5,0,0.99,0.05,1.47,0.16l0.16-0.74
						C266.57,472.77,266.02,472.71,265.47,472.71z"/>
					<path id="XMLID_250_" d="M272.07,475.25c0.33-0.04,0.57-0.34,0.53-0.67c-0.04-0.33-0.34-0.57-0.67-0.53
						c-0.31,0.04-0.54,0.3-0.53,0.61l-0.42,0.36c-0.42-0.43-0.89-0.81-1.41-1.14l-0.4,0.64c1.13,0.71,2.02,1.73,2.56,2.93l0.69-0.31
						c-0.25-0.55-0.57-1.07-0.94-1.54l0.4-0.35C271.94,475.26,272,475.26,272.07,475.25z"/>
					<path id="XMLID_249_" d="M264.92,482.91c-0.39,0.02-0.78,0.04-1.16,0.04c-0.88,0-1.73-0.06-2.48-0.18
						c-0.39-0.06-0.85-0.15-1.27-0.29c1.05,1.86,3.07,3.12,5.39,3.12c2.86,0,5.26-1.92,5.95-4.5c-0.68,0.45-1.51,0.83-2.46,1.12
						C267.71,482.59,266.34,482.83,264.92,482.91z"/>
					<path id="XMLID_245_" d="M265.47,474.22c-3.35,0-6.08,2.67-6.08,5.94c0,0.43,0.05,0.85,0.14,1.26
						c0.67,0.48,2.71,0.89,5.35,0.73c2.88-0.17,5.3-0.96,6.67-2.16c0-0.2-0.02-0.39-0.04-0.58
						C271.12,476.46,268.53,474.22,265.47,474.22z M263.31,480.74c-1.02,0-1.85-0.83-1.85-1.85c0-1.02,0.83-1.85,1.85-1.85
						c1.02,0,1.85,0.83,1.85,1.85C265.16,479.91,264.33,480.74,263.31,480.74z M268.05,479.83c-0.75,0-1.36-0.61-1.36-1.36
						s0.61-1.36,1.36-1.36s1.36,0.61,1.36,1.36S268.8,479.83,268.05,479.83z"/>
				</g>
				<path id="XMLID_242_" d="M281.47,476.09c-0.29-0.12-0.81-0.31-1.38-0.24c-0.55,0.07-0.84,0.34-0.84,1.01v0.87h2.23v1.72h-2.23
					v5.45h-1.93v-5.45h-1.34v-1.72h1.34v-0.89c0-1.68,0.89-2.78,2.57-2.78c0.64,0,1.16,0.12,1.59,0.31V476.09z"/>
				<path id="XMLID_240_" d="M286.17,479.42c-0.18-0.03-0.36-0.05-0.53-0.05c-0.89,0-1.51,0.55-1.51,1.61v3.91h-1.93v-7.17h1.87
					v0.79c0.45-0.67,1.14-0.98,2.02-0.98c0.41,0,0.85,0.13,1.1,0.34L286.17,479.42z"/>
				<path id="XMLID_237_" d="M293.84,481.3c0,0.22-0.02,0.49-0.04,0.65h-5.08c0.21,1.04,0.93,1.49,1.84,1.49
					c0.62,0,1.29-0.25,1.81-0.69l1.13,1.24c-0.81,0.75-1.85,1.09-3.06,1.09c-2.2,0-3.72-1.5-3.72-3.75c0-2.26,1.48-3.8,3.63-3.8
					C292.42,477.53,293.83,479.06,293.84,481.3z M288.73,480.64h3.17c-0.18-0.92-0.73-1.44-1.56-1.44
					C289.43,479.2,288.9,479.75,288.73,480.64z"/>
				<path id="XMLID_234_" d="M301.5,481.3c0,0.22-0.02,0.49-0.04,0.65h-5.09c0.21,1.04,0.93,1.49,1.84,1.49
					c0.62,0,1.29-0.25,1.81-0.69l1.13,1.24c-0.81,0.75-1.85,1.09-3.06,1.09c-2.2,0-3.72-1.5-3.72-3.75c0-2.26,1.48-3.8,3.63-3.8
					C300.07,477.53,301.49,479.06,301.5,481.3z M296.38,480.64h3.18c-0.18-0.92-0.73-1.44-1.56-1.44
					C297.08,479.2,296.55,479.75,296.38,480.64z"/>
				<path id="XMLID_231_" d="M309.84,481.31c0,2.15-1.5,3.78-3.47,3.78c-0.96,0-1.64-0.38-2.11-0.93v3.71h-1.92v-10.13h1.89v0.79
					c0.47-0.59,1.15-0.98,2.14-0.98C308.34,477.53,309.84,479.15,309.84,481.31z M304.16,481.31c0,1.13,0.75,1.98,1.84,1.98
					c1.14,0,1.85-0.88,1.85-1.98c0-1.09-0.71-1.97-1.85-1.97C304.91,479.33,304.16,480.18,304.16,481.31z"/>
				<path id="XMLID_228_" d="M312.94,475.38c0,0.7-0.54,1.23-1.24,1.23c-0.7,0-1.23-0.53-1.23-1.23c0-0.7,0.53-1.24,1.23-1.24
					C312.4,474.14,312.94,474.68,312.94,475.38z M312.68,484.9h-1.93v-7.17h1.93V484.9z"/>
				<path id="XMLID_226_" d="M315.91,480.28l2.7-2.55h2.37l-3.48,3.38l3.5,3.8h-2.38l-2.72-2.9v2.9h-1.93v-10.66h1.93V480.28z"/>
			</g>
			<g>
				<path d="M184.29,484.83v-1.05c-0.53,0.72-1.39,1.23-2.39,1.23c-1.85,0-3.15-1.41-3.15-3.71c0-2.26,1.29-3.72,3.15-3.72
					c0.95,0,1.82,0.47,2.39,1.24v-3.76h1.1v9.77H184.29z M184.29,482.91v-3.21c-0.4-0.62-1.24-1.14-2.12-1.14
					c-1.42,0-2.27,1.17-2.27,2.74c0,1.57,0.85,2.72,2.27,2.72C183.04,484.03,183.89,483.53,184.29,482.91z"/>
				<path d="M186.81,481.29c0-2.05,1.46-3.71,3.49-3.71c2.14,0,3.4,1.67,3.4,3.79v0.28h-5.73c0.09,1.33,1.03,2.45,2.55,2.45
					c0.81,0,1.63-0.32,2.18-0.89l0.53,0.72c-0.7,0.7-1.65,1.08-2.81,1.08C188.32,485.01,186.81,483.5,186.81,481.29z M190.28,478.49
					c-1.51,0-2.26,1.27-2.31,2.36h4.64C192.59,479.79,191.89,478.49,190.28,478.49z"/>
				<path d="M194.48,483.89l0.57-0.79c0.47,0.54,1.36,1.01,2.33,1.01c1.08,0,1.67-0.51,1.67-1.22c0-1.71-4.38-0.66-4.38-3.28
					c0-1.1,0.95-2.04,2.64-2.04c1.2,0,2.05,0.45,2.62,1.03l-0.51,0.76c-0.42-0.51-1.2-0.89-2.11-0.89c-0.97,0-1.57,0.48-1.57,1.11
					c0,1.55,4.38,0.53,4.38,3.28c0,1.19-0.95,2.14-2.78,2.14C196.18,485.01,195.2,484.66,194.48,483.89z"/>
				<path d="M201.35,476.01c0-0.41,0.34-0.75,0.73-0.75c0.41,0,0.75,0.34,0.75,0.75c0,0.41-0.34,0.73-0.75,0.73
					C201.69,476.75,201.35,476.42,201.35,476.01z M201.54,484.83v-7.07h1.1v7.07H201.54z"/>
				<path d="M204.46,486.65l0.56-0.82c0.59,0.7,1.29,0.97,2.3,0.97c1.17,0,2.27-0.57,2.27-2.12v-1.01
					c-0.51,0.72-1.38,1.26-2.37,1.26c-1.85,0-3.15-1.38-3.15-3.66c0-2.27,1.29-3.68,3.15-3.68c0.95,0,1.8,0.47,2.37,1.24v-1.07h1.1
					v6.87c0,2.34-1.64,3.08-3.37,3.08C206.11,487.7,205.29,487.47,204.46,486.65z M209.58,482.8v-3.09
					c-0.38-0.62-1.23-1.14-2.11-1.14c-1.42,0-2.27,1.13-2.27,2.7c0,1.55,0.85,2.7,2.27,2.7C208.35,483.95,209.2,483.41,209.58,482.8
					z"/>
				<path d="M217.29,484.83v-4.63c0-1.24-0.63-1.64-1.58-1.64c-0.86,0-1.68,0.53-2.09,1.1v5.17h-1.1v-7.07h1.1v1.03
					c0.5-0.59,1.46-1.2,2.52-1.2c1.48,0,2.26,0.75,2.26,2.29v4.96H217.29z"/>
				<path d="M219.81,481.29c0-2.05,1.46-3.71,3.49-3.71c2.14,0,3.4,1.67,3.4,3.79v0.28h-5.73c0.09,1.33,1.02,2.45,2.55,2.45
					c0.81,0,1.63-0.32,2.18-0.89l0.53,0.72c-0.7,0.7-1.66,1.08-2.81,1.08C221.32,485.01,219.81,483.5,219.81,481.29z M223.28,478.49
					c-1.51,0-2.26,1.27-2.31,2.36h4.64C225.59,479.79,224.89,478.49,223.28,478.49z"/>
				<path d="M233.23,484.83v-1.05c-0.53,0.72-1.39,1.23-2.39,1.23c-1.85,0-3.15-1.41-3.15-3.71c0-2.26,1.29-3.72,3.15-3.72
					c0.95,0,1.82,0.47,2.39,1.24v-3.76h1.1v9.77H233.23z M233.23,482.91v-3.21c-0.4-0.62-1.25-1.14-2.12-1.14
					c-1.42,0-2.27,1.17-2.27,2.74c0,1.57,0.85,2.72,2.27,2.72C231.98,484.03,232.83,483.53,233.23,482.91z"/>
				<path d="M239.57,484.83v-9.77h1.1v3.76c0.57-0.78,1.42-1.24,2.39-1.24c1.85,0,3.15,1.46,3.15,3.72c0,2.3-1.3,3.71-3.15,3.71
					c-1,0-1.86-0.51-2.39-1.23v1.05H239.57z M242.78,484.03c1.44,0,2.29-1.16,2.29-2.72c0-1.57-0.85-2.74-2.29-2.74
					c-0.86,0-1.73,0.53-2.11,1.14v3.21C241.05,483.53,241.91,484.03,242.78,484.03z"/>
				<path d="M247.4,486.61c0.16,0.07,0.43,0.12,0.6,0.12c0.48,0,0.81-0.16,1.05-0.75l0.47-1.07l-2.96-7.15h1.19l2.36,5.8l2.34-5.8
					h1.2l-3.54,8.51c-0.42,1.03-1.14,1.42-2.08,1.44c-0.23,0-0.6-0.04-0.81-0.1L247.4,486.61z"/>
			</g>
		</g>
	</g>
</g>
</svg>
